<svg xmlns="http://www.w3.org/2000/svg" width="60" height="60" fill="none"><path fill="#E6E9ED" d="M15 5.625h5.625v3.75H15v-3.75Z"/><path fill="#CCD1D9" d="M24.375 2.813v1.874a.94.94 0 0 1-.938.938h-11.25a.94.94 0 0 1-.937-.938V2.813a.94.94 0 0 1 .938-.937h11.25a.94.94 0 0 1 .937.938ZM26.25 10.313v1.874a.94.94 0 0 1-.938.938h-15a.94.94 0 0 1-.937-.938v-1.874a.94.94 0 0 1 .938-.938h15a.94.94 0 0 1 .937.938Z"/><path fill="#04CE78" d="m22.5 28.125-3.75 5.625h-1.875l-3.75-5.625H22.5ZM22.5 24.375v3.75h-9.375v-15H22.5v11.25Z"/><path fill="#1F5FFF" d="M48.75 54.375v1.875a1.88 1.88 0 0 1-1.875 1.875H3.75a1.88 1.88 0 0 1-1.875-1.875v-1.875c0-1.219.394-2.4 1.125-3.375a5.565 5.565 0 0 1 2.719-1.96 5.718 5.718 0 0 1 1.781-.29h35.625a5.717 5.717 0 0 1 2.513.59A5.474 5.474 0 0 1 47.625 51a5.617 5.617 0 0 1 1.125 3.375Z"/><path fill="#04CE78" d="M56.25 8.438v9.374a4.69 4.69 0 0 1-4.688 4.688H38.767c-.76 0-1.453.469-1.735 1.181l-1.125 2.803a1.122 1.122 0 0 1-1.04.703 1.112 1.112 0 0 1-1.116-1.115V8.438a4.69 4.69 0 0 1 4.688-4.688h13.124a4.69 4.69 0 0 1 4.688 4.688Z"/><path fill="#E6E9ED" d="M50.625 12.188v1.874a.94.94 0 0 1-.938.938h-2.812v2.813a.94.94 0 0 1-.938.937h-1.874a.94.94 0 0 1-.938-.938V15h-2.813a.94.94 0 0 1-.937-.938v-1.874a.94.94 0 0 1 .938-.938h2.812V8.437a.94.94 0 0 1 .938-.937h1.874a.94.94 0 0 1 .938.938v2.812h2.813a.94.94 0 0 1 .937.938ZM43.125 48.75h-7.5a11.197 11.197 0 0 1-1.875-6.197v-2.69c0-.929.272-1.838.797-2.616a3.638 3.638 0 0 1 4.66-1.238 2.43 2.43 0 0 0 1.105.263c.376 0 .76-.084 1.107-.263a3.638 3.638 0 0 1 4.66 1.237c.524.779.796 1.688.796 2.616v2.691c0 2.213-.656 4.36-1.875 6.197l-.094.29a5.718 5.718 0 0 0-1.781-.29ZM31.875 39.862v2.691c0 2.213-.656 4.36-1.875 6.197h-9.375a11.197 11.197 0 0 1-1.875-6.197v-2.69c0-.929.272-1.838.797-2.616a3.638 3.638 0 0 1 4.66-1.238 2.43 2.43 0 0 0 1.105.263c.375 0 .76-.084 1.107-.263a3.638 3.638 0 0 1 4.66 1.237c.524.779.796 1.688.796 2.616ZM7.5 48.75c-.61 0-1.21.103-1.781.29l-.094-.29a11.197 11.197 0 0 1-1.875-6.197v-2.69c0-.929.272-1.838.797-2.616a3.638 3.638 0 0 1 4.66-1.238 2.43 2.43 0 0 0 1.105.263c.376 0 .76-.084 1.107-.263a3.638 3.638 0 0 1 4.66 1.237c.524.779.796 1.688.796 2.616v2.691c0 2.213-.656 4.36-1.875 6.197H7.5Z"/><path fill="#000D44" d="M46.2 48.589a12.049 12.049 0 0 0 1.612-6.031v-2.692a5.64 5.64 0 0 0-.95-3.137A4.576 4.576 0 0 0 41 35.172a1.54 1.54 0 0 1-1.372 0 4.604 4.604 0 0 0-2.05-.484 4.574 4.574 0 0 0-3.814 2.041 5.63 5.63 0 0 0-.95 3.136 5.64 5.64 0 0 0-.95-3.137 4.577 4.577 0 0 0-5.864-1.556 1.54 1.54 0 0 1-1.372 0 4.604 4.604 0 0 0-2.05-.484 4.574 4.574 0 0 0-3.814 2.041c-.005.007-.007.015-.012.022v-2.063h.502l4.184-6.279V14.063h1.875c1.035 0 1.875-.841 1.875-1.876v-1.874c0-1.035-.84-1.876-1.875-1.876h-3.75V6.563h1.875c1.035 0 1.875-.841 1.875-1.875V2.813c0-1.035-.84-1.876-1.875-1.876h-11.25c-1.034 0-1.874.841-1.874 1.875v1.876c0 1.034.84 1.875 1.874 1.875h1.876v1.875h-3.75c-1.035 0-1.876.84-1.876 1.874v1.876c0 1.034.841 1.874 1.876 1.874h1.874V28.41l4.186 6.279h.502v2.063l-.012-.022a4.576 4.576 0 0 0-5.864-1.557 1.54 1.54 0 0 1-1.372 0 4.604 4.604 0 0 0-2.05-.484 4.574 4.574 0 0 0-3.814 2.041 5.63 5.63 0 0 0-.95 3.136v2.692c0 2.129.556 4.198 1.613 6.032a6.552 6.552 0 0 0-2.176 1.848 6.598 6.598 0 0 0-1.313 3.937v1.876a2.816 2.816 0 0 0 2.813 2.813h43.125a2.816 2.816 0 0 0 2.813-2.813v-1.876a6.6 6.6 0 0 0-1.313-3.937 6.544 6.544 0 0 0-2.176-1.848ZM12.186 2.813h11.25l.001 1.874h-11.25V2.813Zm7.5 3.75v1.875h-3.75V6.562h3.75Zm-9.375 3.75h15.001v1.874h-15v-1.874Zm11.25 3.75v1.874h-3.75v1.876h3.75v1.875h-1.875v1.875h1.875v1.875h-3.75v1.875h3.75v1.875h-7.5V14.063h7.5Zm-6.686 15h5.872l-2.5 3.75h-.872l-2.5-3.75Zm19.812 10.802c0-.749.219-1.473.634-2.096.737-1.103 2.277-1.514 3.467-.92a3.43 3.43 0 0 0 3.048 0c1.184-.595 2.729-.183 3.465.92a3.76 3.76 0 0 1 .636 2.096v2.692c0 1.915-.537 3.77-1.545 5.39a6.501 6.501 0 0 0-1.268-.135h-6.977a10.185 10.185 0 0 1-1.46-5.254v-2.693Zm-1.876 2.693c0 1.834.415 3.622 1.204 5.255H31.61a12.062 12.062 0 0 0 1.203-5.255Zm-13.124-2.693c0-.749.219-1.473.634-2.096.737-1.103 2.277-1.514 3.467-.92a3.43 3.43 0 0 0 3.048 0c1.185-.595 2.729-.183 3.465.92a3.76 3.76 0 0 1 .636 2.096v2.692c0 1.862-.508 3.666-1.461 5.255h-8.329a10.18 10.18 0 0 1-1.46-5.254v-2.693Zm-1.875 2.693c0 1.834.414 3.622 1.203 5.255H16.61a12.062 12.062 0 0 0 1.203-5.255Zm-13.125 0v-2.692c0-.749.219-1.474.634-2.096.737-1.103 2.277-1.514 3.467-.92a3.43 3.43 0 0 0 3.048 0c1.185-.595 2.729-.183 3.465.92.416.622.636 1.347.636 2.095v2.692c0 1.862-.508 3.666-1.461 5.255H7.5c-.43 0-.852.052-1.268.135a10.173 10.173 0 0 1-1.545-5.39ZM47.812 56.25c0 .517-.42.938-.937.938H3.75a.938.938 0 0 1-.938-.938v-1.876c0-1.008.333-2.007.938-2.812a4.709 4.709 0 0 1 3.75-1.874h35.625c1.467 0 2.87.7 3.75 1.874.605.805.938 1.804.938 2.812v1.876Z"/><path fill="#000D44" d="M8.438 38.438h3.75v1.874h-3.75v-1.874ZM23.438 38.438h3.75v1.874h-3.75v-1.874ZM38.438 38.438h3.75v1.874h-3.75v-1.874ZM51.563 2.813H38.437a5.63 5.63 0 0 0-5.624 5.624V26.07a2.057 2.057 0 0 0 3.963.763l1.122-2.806a.935.935 0 0 1 .871-.59h12.794a5.63 5.63 0 0 0 5.624-5.625V8.438a5.63 5.63 0 0 0-5.624-5.624Zm3.75 15a3.754 3.754 0 0 1-3.75 3.75H38.769a2.8 2.8 0 0 0-2.611 1.768l-1.123 2.806c-.063.162-.347.106-.347-.067V8.437a3.754 3.754 0 0 1 3.75-3.75h13.124a3.754 3.754 0 0 1 3.75 3.75v9.376Z"/><path fill="#000D44" d="M49.688 10.313h-1.876V8.437c0-1.034-.84-1.874-1.874-1.874h-1.876c-1.034 0-1.874.84-1.874 1.875v1.874h-1.876c-1.034 0-1.874.841-1.874 1.876v1.874c0 1.035.84 1.876 1.874 1.876h1.876v1.874c0 1.035.84 1.875 1.874 1.875h1.876c1.034 0 1.874-.84 1.874-1.875v-1.875h1.876c1.034 0 1.874-.84 1.874-1.874v-1.876c0-1.034-.84-1.874-1.874-1.874Zm0 3.75h-3.75v3.75h-1.876v-3.75h-3.75v-1.876h3.75v-3.75h1.876v3.75h3.75v1.876Z"/></svg>