<svg xmlns="http://www.w3.org/2000/svg" width="60" height="60" fill="none"><g clip-path="url(#a)"><path fill="#1F5FFF" d="M26.92.879C12.538.879.88 12.539.88 26.92.879 33.31 3.18 39.16 7 43.692H3.956a1.894 1.894 0 1 0 0 3.788h7.576a1.894 1.894 0 0 0 1.894-1.894V38.01a1.894 1.894 0 0 0-3.788 0v2.913a22.147 22.147 0 0 1-4.971-14.002c0-12.271 9.983-22.254 22.253-22.254 12.271 0 22.254 9.983 22.254 22.254h3.788C52.962 12.538 41.302.878 26.92.878Z"/><path fill="#1F5FFF" d="M50.534 15.93a6.136 6.136 0 0 0-2.213 1.422l-.903.903a22.128 22.128 0 0 1 1.756 8.665h3.788c0-3.927-.871-7.65-2.428-10.99Z"/><path fill="#04CE78" d="M25.89 45.14 20.03 51a2.368 2.368 0 0 0 0 3.348l3.383 3.382a4.735 4.735 0 0 0 4.86 1.14c3.63-1.222 10.286-4.37 18.256-12.34 7.97-7.971 11.119-14.627 12.34-18.258a4.735 4.735 0 0 0-1.139-4.86l-3.382-3.382a2.367 2.367 0 0 0-3.348 0l-5.86 5.86a2.367 2.367 0 0 0 0 3.347l1.263 1.262c.449.45.545 1.142.235 1.697-.961 1.721-3.205 5.445-6.101 8.34-2.896 2.897-6.62 5.14-8.34 6.102a1.42 1.42 0 0 1-1.698-.236l-1.262-1.261a2.368 2.368 0 0 0-3.348 0Z"/><path fill="#04CE78" d="m57.73 23.413-2.187-2.187a4.735 4.735 0 0 1 1.14 4.86c-1.222 3.63-4.37 10.286-12.34 18.256-7.971 7.97-14.627 11.119-18.258 12.34a4.735 4.735 0 0 1-4.86-1.139l2.188 2.187a4.735 4.735 0 0 0 4.86 1.14c3.63-1.222 10.286-4.37 18.256-12.34 7.97-7.971 11.119-14.627 12.34-18.258a4.735 4.735 0 0 0-1.139-4.86Z"/><path fill="#000D44" d="M2.436 36.687a.879.879 0 0 0 .826-1.18 25.058 25.058 0 0 1-1.504-8.586c0-6.721 2.617-13.04 7.37-17.793C13.88 4.375 20.2 1.758 26.92 1.758a24.955 24.955 0 0 1 14.873 4.866.879.879 0 0 0 1.04-1.417C38.196 1.801 32.694 0 26.921 0 19.73 0 12.97 2.8 7.885 7.885 2.8 12.97 0 19.73 0 26.921c0 3.157.542 6.248 1.61 9.187a.88.88 0 0 0 .826.58Z"/><path fill="#000D44" d="M58.351 22.791 54.97 19.41a3.226 3.226 0 0 0-2.485-.945 27.012 27.012 0 0 0-6.442-10.491.879.879 0 0 0-1.248 1.237 25.245 25.245 0 0 1 6.028 9.828 3.29 3.29 0 0 0-.445.371l-1.201 1.201a23.274 23.274 0 0 0-7.594-11.568 23.156 23.156 0 0 0-14.662-5.254c-12.755 0-23.133 10.378-23.133 23.133a23.17 23.17 0 0 0 5.168 14.557.88.88 0 0 0 1.56-.554v-2.913a1.016 1.016 0 0 1 2.032 0v7.576c0 .56-.456 1.014-1.016 1.014H3.956a1.016 1.016 0 0 1 0-2.03H7a.88.88 0 0 0 .672-1.444 25.232 25.232 0 0 1-2.768-4.016.879.879 0 1 0-1.537.853 26.931 26.931 0 0 0 1.825 2.85H3.956a2.776 2.776 0 0 0-2.772 2.773 2.776 2.776 0 0 0 2.772 2.772h7.576a2.776 2.776 0 0 0 2.773-2.773v-7.575a2.776 2.776 0 0 0-2.773-2.773 2.776 2.776 0 0 0-2.773 2.773v.164a21.41 21.41 0 0 1-3.213-11.254c0-11.786 9.589-21.375 21.375-21.375 4.925 0 9.736 1.724 13.546 4.854a21.486 21.486 0 0 1 7.27 11.651l-3.218 3.218a3.225 3.225 0 0 0-.951 2.295c0 .867.338 1.682.95 2.295l1.264 1.263c.17.17.206.435.088.646-.324.581-.857 1.5-1.555 2.578a.879.879 0 0 0 1.475.956 48.34 48.34 0 0 0 1.615-2.676c.35-.626.377-1.366.115-2.001l8.09-8.09 1.498 1.5a3.837 3.837 0 0 1 .93 3.957c-2.556 7.589-8.697 14.482-12.13 17.915-3.434 3.434-10.327 9.575-17.916 12.13a3.837 3.837 0 0 1-3.958-.928l-1.5-1.5 8.09-8.089a2.306 2.306 0 0 0 2.001-.115c1.934-1.08 5.615-3.328 8.534-6.246a30.066 30.066 0 0 0 2.185-2.457.879.879 0 1 0-1.372-1.098 28.342 28.342 0 0 1-2.056 2.312c-2.872 2.87-6.655 5.12-8.148 5.955a.542.542 0 0 1-.647-.09L29.86 44.52a3.225 3.225 0 0 0-2.295-.95c-.867 0-1.682.337-2.296.95l-5.859 5.86a3.226 3.226 0 0 0-.95 2.295c0 .868.337 1.683.95 2.296l3.382 3.382a5.582 5.582 0 0 0 5.761 1.352c2.447-.824 5.033-2.078 7.685-3.727C39.898 53.7 43.57 50.73 47.15 47.15s6.55-7.252 8.827-10.914c1.649-2.652 2.902-5.237 3.726-7.685a5.585 5.585 0 0 0-1.352-5.76Zm-11.949 6.466-.64-.64a1.479 1.479 0 0 1-.437-1.053c0-.398.155-.771.436-1.053l5.86-5.859a1.48 1.48 0 0 1 1.053-.436c.397 0 .772.155 1.053.436l.64.64-7.965 7.965ZM20.216 52.674c0-.398.155-.772.436-1.053l5.86-5.86a1.479 1.479 0 0 1 1.052-.435c.397 0 .771.154 1.052.436l.64.64-7.964 7.965-.64-.64a1.48 1.48 0 0 1-.436-1.053Z"/><path fill="#000D44" d="M27.8 10.822V8.455a.879.879 0 0 0-1.759 0v2.367a.879.879 0 0 0 1.758 0ZM18.872 13.858a.879.879 0 0 0 .76-1.318l-1.183-2.05a.879.879 0 0 0-1.523.878l1.184 2.05c.163.282.458.44.762.44ZM12.978 19.75a.879.879 0 0 0 .44-1.64l-2.05-1.183a.878.878 0 1 0-.879 1.522l2.05 1.183c.139.08.29.118.439.118ZM8.455 26.042a.879.879 0 0 0 0 1.757h2.367a.879.879 0 0 0 0-1.757H8.455ZM40.863 19.75c.149 0 .3-.038.438-.118l2.05-1.183a.879.879 0 1 0-.878-1.523l-2.05 1.184a.879.879 0 0 0 .44 1.64ZM36.593 10.167a.879.879 0 0 0-1.2.322l-1.184 2.05a.879.879 0 1 0 1.522.88l1.184-2.051a.879.879 0 0 0-.322-1.2ZM30.356 31.563a.88.88 0 0 0 1.06-.648l1.83-7.576a.879.879 0 1 0-1.708-.413l-1.83 7.576a.879.879 0 0 0 .648 1.06ZM35.195 23.133c0 .485.393.879.879.879h2.821l-2.788 6.343a.879.879 0 1 0 1.609.707l3.33-7.576a.88.88 0 0 0-.805-1.232h-4.167a.879.879 0 0 0-.88.879ZM25.773 22.624l-3.791 5.34a.879.879 0 0 0 .717 1.387h2.896l-.003 1.355a.879.879 0 0 0 .876.881h.002a.879.879 0 0 0 .88-.877l.003-1.359h.103a.879.879 0 0 0 0-1.758h-.099l.011-4.458a.879.879 0 0 0-1.595-.511Zm-.174 4.97H24.4l1.204-1.696-.005 1.695ZM20.597 30.708a.879.879 0 0 0-.879-.878h-1.78c.39-.553.928-1.32 1.672-2.383l.01-.015c.59-.88.977-1.524.977-2.394a2.788 2.788 0 0 0-2.784-2.784 2.79 2.79 0 0 0-2.732 2.245.879.879 0 1 0 1.724.34 1.028 1.028 0 0 1 2.035.2c0 .338-.177.664-.675 1.407-2.303 3.29-2.62 3.723-2.632 3.739a.879.879 0 0 0 .706 1.402h3.48a.879.879 0 0 0 .878-.879Z"/></g><defs><clipPath id="a"><path fill="#fff" d="M0 0h60v60H0z"/></clipPath></defs></svg>