<svg xmlns="http://www.w3.org/2000/svg" width="60" height="60" fill="none"><g fill-rule="evenodd" clip-path="url(#a)" clip-rule="evenodd"><path fill="#fff" d="M53.648 57.305a.81.81 0 0 1-.808.808H31.78l7.887-12.715 2.45.059c.585.023 1.03-.504.948-1.078l-1.054-6.457 1.957.574c.011.176.023 7.688.023 7.688a5.142 5.142 0 0 0-4.16 5.039 5.139 5.139 0 0 0 5.133 5.133 5.139 5.139 0 0 0 5.133-5.133 5.135 5.135 0 0 0-4.23-5.051v-7.113l7.206 2.109a.779.779 0 0 1 .586.773v15.364h-.012Z"/><path fill="#1F5FFF" d="M24.926 38.824A7.473 7.473 0 0 0 30 40.804a7.473 7.473 0 0 0 5.074-1.98L30 55.781l-5.074-16.957Z"/><path fill="#fff" d="M7.148 58.113a.81.81 0 0 1-.808-.808V41.93c0-.375.223-.668.574-.774l7.207-2.11v7.231a4.162 4.162 0 0 0-3.258 4.067v5.226a.94.94 0 0 0 .938.938h1.23c1.23 0 1.23-1.875 0-1.875h-.293v-4.301a2.288 2.288 0 0 1 2.285-2.285 2.298 2.298 0 0 1 2.297 2.285v4.3h-.363c-1.23 0-1.23 1.876 0 1.876h1.3a.94.94 0 0 0 .938-.938v-5.226a4.16 4.16 0 0 0-3.187-4.043c0-2.496-.14-5.356.023-7.805L18 37.922l-1.066 6.457c-.047.27.035.55.222.762a.912.912 0 0 0 .727.316l2.449-.059 7.898 12.715H7.148Z"/><path fill="#04CE78" d="m27.176 52.887-5.543-8.918a.953.953 0 0 0-.82-.446l-1.852.047 1.031-6.234 2.32-.68 4.864 16.23Z"/><path fill="#FECEA4" d="M20.637 19.852v-2.836l3.281-4.16a.787.787 0 0 1 .96-.247c3.81 1.688 9.434 1.242 14.403.844l.07 6.41c0 5.157-4.195 9.364-9.363 9.364-5.144-.024-9.351-4.22-9.351-9.375Z"/><path fill="#7C7C7C" d="M19.324 7.195c.645-.867 1.63-1.312 2.79-1.312.468 0 .96.07 1.464.222.984.282 1.559-.304 1.863-.62C29.004 1.921 35.45.186 39.316 4.16c2.367 2.426 3.457 6.691 1.864 10.371l-.024-2.086a.942.942 0 0 0-1.008-.925c-4.136.328-10.722 1.066-14.496-.61a2.636 2.636 0 0 0-3.187.797l-2.625 3.34c-1.945-3.692-1.547-6.492-.516-7.852Z"/><path fill="#FECEA4" d="M17.941 20.52v-1.817c0-.469.504-.41.82-.41 0 0 .024 2.285.048 2.637-.317 0-.868.07-.868-.41ZM42 20.52c0 .468-.492.41-.809.41.036-.352.036-2.637.036-2.637.304 0 .773-.047.773.41v1.817Z"/><path fill="#04CE78" d="m41.04 43.559-1.852-.047a.942.942 0 0 0-.82.445l-5.532 8.906 4.863-16.23 2.32.68 1.02 6.246Z"/><path fill="#FECEA4" d="M25.863 30.293c1.278.516 2.684.785 4.137.785 1.465 0 2.86-.281 4.137-.785-.13 1.523.281 3.105 1.207 4.723A5.592 5.592 0 0 1 30 38.918a5.607 5.607 0 0 1-5.344-3.902c.926-1.606 1.325-3.2 1.207-4.723Z"/><path fill="#7C7C7C" d="M48.223 51.21a3.266 3.266 0 0 1-3.258 3.259 3.266 3.266 0 0 1-3.258-3.258 3.266 3.266 0 0 1 3.258-3.258 3.244 3.244 0 0 1 3.258 3.258Z"/><path fill="#04CE78" d="M44.965 50.672c.293 0 .527.234.527.539a.525.525 0 0 1-.527.527.535.535 0 0 1-.54-.527.553.553 0 0 1 .54-.54Z"/><path fill="#fff" d="M44.965 53.613a2.406 2.406 0 0 0 2.402-2.402 2.416 2.416 0 0 0-2.402-2.414 2.418 2.418 0 0 0-2.414 2.414 2.423 2.423 0 0 0 2.414 2.402Z"/><path fill="#000D44" d="M44.965 53.613a2.406 2.406 0 0 0 2.402-2.402 2.416 2.416 0 0 0-2.402-2.414 2.418 2.418 0 0 0-2.414 2.414 2.423 2.423 0 0 0 2.414 2.402Zm0-2.941c.293 0 .527.234.527.539a.525.525 0 0 1-.527.527.535.535 0 0 1-.54-.527.553.553 0 0 1 .54-.54Z"/><path fill="#000D44" d="M55.523 57.305V41.93a2.661 2.661 0 0 0-1.921-2.567l-7.922-2.32a11.476 11.476 0 0 0-2.625-5.414c-1.5-1.723-3.41-2.93-5.473-3.469a11.21 11.21 0 0 0 3.258-5.344h.75a2.288 2.288 0 0 0 2.285-2.285v-1.816c0-1.031-.68-1.899-1.617-2.18 2.566-4.277 1.898-10.09-1.594-13.676-4.71-4.84-12.27-2.964-16.652 1.418-2.52-.691-4.817-.011-6.188 1.805-1.863 2.484-1.605 6.398.633 10.348-1.313 0-2.379.949-2.379 2.285v1.816a2.28 2.28 0 0 0 2.285 2.285h.797a11.322 11.322 0 0 0 3.258 5.344c-2.074.55-3.984 1.746-5.473 3.469a11.476 11.476 0 0 0-2.625 5.414l-7.91 2.32a2.661 2.661 0 0 0-1.922 2.567v15.386A2.688 2.688 0 0 0 7.16 60h45.703c1.453-.012 2.66-1.219 2.66-2.695Zm-7.3-6.094a3.266 3.266 0 0 1-3.258 3.258 3.266 3.266 0 0 1-3.258-3.258 3.266 3.266 0 0 1 3.258-3.258 3.244 3.244 0 0 1 3.258 3.258Zm-4.617-14.79s-6.235-1.816-6.329-1.839c-1.113-1.723-1.5-3.316-1.148-4.828 3.48.469 6.445 3.258 7.477 6.668Zm-17.743-6.128c1.278.516 2.684.785 4.137.785 1.465 0 2.86-.281 4.137-.785-.13 1.523.281 3.105 1.207 4.723A5.592 5.592 0 0 1 30 38.918a5.607 5.607 0 0 1-5.344-3.902c.926-1.606 1.325-3.2 1.207-4.723ZM41.04 43.559l-1.852-.047a.942.942 0 0 0-.82.445l-5.531 8.906 4.863-16.23 2.32.68 1.02 6.246ZM42 20.519c0 .47-.492.41-.809.41.036-.35.036-2.636.036-2.636.304 0 .773-.047.773.41v1.817Zm-24.059 0v-1.816c0-.469.504-.41.82-.41 0 0 .024 2.285.048 2.637-.317 0-.868.07-.868-.41Zm1.383-13.324c.645-.867 1.63-1.312 2.79-1.312.468 0 .96.07 1.464.222.985.282 1.559-.304 1.863-.62C29.004 1.921 35.45.186 39.316 4.16c2.368 2.426 3.457 6.691 1.864 10.371l-.024-2.086a.942.942 0 0 0-1.008-.925c-4.136.328-10.722 1.066-14.496-.61a2.636 2.636 0 0 0-3.187.797l-2.625 3.34c-1.945-3.692-1.547-6.492-.516-7.852Zm1.313 12.657v-2.836l3.281-4.16a.787.787 0 0 1 .96-.247c3.81 1.688 9.434 1.242 14.403.844l.07 6.41c0 5.157-4.195 9.364-9.363 9.364-5.144-.024-9.351-4.22-9.351-9.375Zm3.246 9.902c.351 1.512-.035 3.105-1.149 4.828-.093.012-6.328 1.84-6.328 1.84 1.008-3.41 3.985-6.2 7.477-6.668Zm3.293 23.133-5.543-8.918a.953.953 0 0 0-.82-.446l-1.852.047 1.031-6.234 2.32-.68 4.864 16.23ZM7.148 58.113a.81.81 0 0 1-.808-.808V41.93c0-.375.223-.668.574-.774l7.207-2.11v7.231a4.162 4.162 0 0 0-3.258 4.067v5.226a.94.94 0 0 0 .938.938h1.23c1.23 0 1.23-1.875 0-1.875h-.293v-4.301a2.288 2.288 0 0 1 2.285-2.285 2.298 2.298 0 0 1 2.297 2.285v4.3h-.363c-1.23 0-1.23 1.876 0 1.876h1.3a.94.94 0 0 0 .938-.938v-5.226a4.16 4.16 0 0 0-3.187-4.043c0-2.496-.14-5.356.023-7.805L18 37.922l-1.066 6.457c-.047.27.035.55.222.762a.912.912 0 0 0 .727.316l2.449-.059 7.898 12.715H7.148Zm17.778-19.289A7.473 7.473 0 0 0 30 40.804a7.473 7.473 0 0 0 5.074-1.98L30 55.781l-5.074-16.957Zm28.722 18.48a.81.81 0 0 1-.808.81H31.78l7.887-12.716 2.45.059c.585.023 1.03-.504.948-1.078l-1.054-6.457 1.957.574c.011.176.023 7.688.023 7.688a5.142 5.142 0 0 0-4.16 5.039 5.139 5.139 0 0 0 5.133 5.133 5.139 5.139 0 0 0 5.133-5.133 5.135 5.135 0 0 0-4.23-5.051v-7.113l7.206 2.109a.779.779 0 0 1 .586.773v15.364h-.012Z"/></g><defs><clipPath id="a"><path fill="#fff" d="M0 0h60v60H0z"/></clipPath></defs></svg>