<svg xmlns="http://www.w3.org/2000/svg" width="156" height="156" fill="none"><path fill="#F5F7FA" d="M117.124 15.128a34.554 34.554 0 0 1 34.516 34.516v.173c0 .114.015.284.028.51.708 12.535-1.341 46.378-35.583 89.744a2.106 2.106 0 0 1-3.616-.541 2.106 2.106 0 0 1-.033-1.445c.097-.286 9.455-28.318 3.061-53.967a34.516 34.516 0 0 1 1.636-68.994l-.009.004Zm30.3 34.396a30.3 30.3 0 1 0-30.3 30.418 2.108 2.108 0 0 1 2.033 1.549c4.848 17.645 2.47 36.154.061 47.386 27.161-38.047 28.866-67.088 28.232-78.314a8.793 8.793 0 0 1-.026-1.04ZM38.732 15.128a34.554 34.554 0 0 1 34.516 34.516v.173c0 .114.015.284.028.51.708 12.535-1.341 46.378-35.583 89.744a2.104 2.104 0 0 1-2.66.543 2.105 2.105 0 0 1-.99-2.529c.098-.286 9.456-28.318 3.062-53.967a34.516 34.516 0 0 1 1.636-68.994l-.009.004Zm30.3 34.396a30.3 30.3 0 1 0-30.3 30.418 2.108 2.108 0 0 1 2.032 1.549c4.85 17.645 2.471 36.154.062 47.386C67.986 90.83 69.694 61.789 69.06 50.563a8.901 8.901 0 0 1-.028-1.04Z"/></svg>