<svg xmlns="http://www.w3.org/2000/svg" width="56" height="56" fill="none"><path fill="#04CE78" d="M42.045 5.43a12.404 12.404 0 0 1 12.39 12.39v.063c0 .04.005.102.01.183.254 4.5-.481 16.649-12.773 32.216a.757.757 0 0 1-1.31-.713c.034-.103 3.394-10.166 1.098-19.373a12.39 12.39 0 0 1 .588-24.767l-.003.001Zm10.877 12.348a10.876 10.876 0 1 0-10.877 10.919.757.757 0 0 1 .73.556c1.74 6.334.886 12.978.021 17.01 9.75-13.657 10.362-24.083 10.135-28.112a3.204 3.204 0 0 1-.01-.373ZM13.904 5.43a12.404 12.404 0 0 1 12.39 12.39v.063c0 .04.006.102.01.183.254 4.5-.481 16.649-12.773 32.216a.757.757 0 0 1-1.31-.713c.035-.103 3.394-10.166 1.099-19.373a12.39 12.39 0 0 1 .587-24.767l-.003.001ZM24.78 17.778a10.876 10.876 0 1 0-10.877 10.919.757.757 0 0 1 .73.556c1.74 6.334.886 12.978.021 17.01 9.75-13.657 10.363-24.083 10.136-28.112a3.203 3.203 0 0 1-.01-.373Z"/></svg>