<svg xmlns="http://www.w3.org/2000/svg" width="70" height="70" fill="none"><path fill="#04CE78" d="M62.343 32.813H7.657a4.375 4.375 0 0 0-4.375 4.374v14.22a4.375 4.375 0 0 0 4.375 4.374h54.688a4.375 4.375 0 0 0 4.375-4.375V37.188a4.375 4.375 0 0 0-4.375-4.376Z"/><path fill="#01BDB2" d="M7.656 32.813a4.339 4.339 0 0 0-2.344.692c.306.562.538 1.16.69 1.782.11.603.166 1.214.169 1.827.002.973.115 1.943.335 2.891.905 3.463 3.151 5.531 6.007 5.531 4.605.018 5.906-4.401 6.578-7.128.67 2.727 1.974 7.147 6.578 7.128 2.858 0 5.103-2.068 6.007-5.531.22-.95.334-1.92.338-2.895.001-.612.057-1.222.166-1.823.228-.876.59-1.71 1.076-2.474h-25.6Z"/><path fill="#E4F4FD" d="M19.091 18.564C11.156 9.406.612 17.937 3.897 26.62c1.094 2.923 3.549 5.104 4.24 8.187.346 1.542.086 3.114.486 4.646.51 1.952 1.689 3.95 3.983 3.894 5.164-.122 3.676-8.96 6.485-9.287 2.81.329 1.322 9.165 6.486 9.287 2.297.055 3.473-1.942 3.984-3.894.399-1.532.14-3.104.485-4.646.691-3.083 3.144-5.264 4.24-8.187 3.284-8.683-7.263-17.214-15.195-8.056Z"/><path fill="#01BDB2" d="M62.343 32.813h-25.6a8.682 8.682 0 0 1 1.075 2.472c.11.602.166 1.213.168 1.825.003.974.116 1.945.337 2.894.904 3.464 3.15 5.532 6.008 5.532 4.604.018 5.906-4.401 6.577-7.128.67 2.727 1.97 7.147 6.578 7.128 2.899 0 5.088-2.016 6.008-5.532.22-.948.332-1.917.335-2.89.002-.613.059-1.224.168-1.827.153-.621.385-1.22.69-1.782a4.339 4.339 0 0 0-2.343-.693Z"/><path fill="#E4F4FD" d="M50.908 18.564c-7.931-9.158-18.479-.627-15.195 8.056 1.094 2.923 3.55 5.104 4.24 8.187.346 1.542.087 3.114.486 4.646.51 1.952 1.689 3.95 3.983 3.894 5.164-.122 3.677-8.96 6.486-9.287 2.81.329 1.322 9.165 6.485 9.287 2.297.055 3.473-1.942 3.984-3.894.4-1.532.14-3.104.485-4.646.692-3.083 3.144-5.264 4.24-8.187 3.285-8.683-7.258-17.214-15.194-8.056Z"/><path fill="#00B6A7" d="M21.875 25.156h-5.469c-.604 0-1.094.49-1.094 1.094v2.188c0 .604.49 1.093 1.094 1.093h5.469c.604 0 1.093-.49 1.093-1.093V26.25c0-.604-.49-1.094-1.093-1.094ZM53.593 25.156h-5.468c-.604 0-1.094.49-1.094 1.094v2.188c0 .604.49 1.093 1.094 1.093h5.468c.605 0 1.094-.49 1.094-1.093V26.25c0-.604-.49-1.094-1.093-1.094Z"/><path fill="#1E120B" d="M4.945 30.778c.29.443.565.875.829 1.313a5.434 5.434 0 0 0-3.587 5.096v14.22a5.475 5.475 0 0 0 5.47 5.468h54.687a5.476 5.476 0 0 0 5.468-5.469V37.188a5.425 5.425 0 0 0-3.624-5.112c.26-.43.532-.86.818-1.298a19.522 19.522 0 0 0 2.071-3.771 10.015 10.015 0 0 0-4.102-12.202c-3.091-1.843-7.803-2.155-12.116 2.154-4.312-4.309-9.025-3.995-12.115-2.154a9.94 9.94 0 0 0-3.768 4.137 9.953 9.953 0 0 0-3.768-4.137c-3.091-1.842-7.804-2.155-12.117 2.154-4.312-4.31-9.025-3.994-12.115-2.154a10.013 10.013 0 0 0-4.104 12.199 19.522 19.522 0 0 0 2.073 3.774Zm60.68 6.41v14.218a3.28 3.28 0 0 1-3.281 3.282H7.656a3.281 3.281 0 0 1-3.281-3.282V37.188a3.264 3.264 0 0 1 2.385-3.133c.127.323.23.654.31.992.126.67.19 1.35.193 2.031.001.893.102 1.784.301 2.655.786 3.002 2.586 4.71 4.95 4.714 3.866 0 4.88-3.737 5.556-6.453.24-.944.513-2.783 1.021-2.784.509-.001.782 1.84 1.023 2.784.675 2.715 1.69 6.453 5.555 6.453 2.366 0 4.165-1.712 4.95-4.714.2-.872.3-1.764.302-2.658.002-.68.067-1.356.192-2.024.09-.39.21-.773.36-1.145h7.005c.15.37.27.752.36 1.141.126.668.19 1.346.193 2.026 0 .893.1 1.784.301 2.655.785 3.003 2.586 4.711 4.95 4.714 3.866 0 4.88-3.736 5.555-6.453.24-.943.513-2.783 1.022-2.783.51 0 .782 1.84 1.023 2.783.675 2.716 1.689 6.453 5.555 6.453 2.364 0 4.164-1.711 4.95-4.714.199-.87.3-1.761.3-2.654.003-.68.068-1.359.194-2.027.08-.343.185-.68.315-1.008a3.256 3.256 0 0 1 2.429 3.148Zm-43.75-6.563a2.188 2.188 0 0 0 2.187-2.188h8.071c-.234.38-.476.76-.728 1.147a15.266 15.266 0 0 0-2.42 4.985c-.158.798-.24 1.61-.246 2.423.003.735-.074 1.469-.232 2.187-.372 1.422-1.147 3.126-2.9 3.08-2.006-.056-2.636-1.934-3.368-4.805-.547-2.13-1.109-4.484-3.142-4.484-2.034 0-2.6 2.354-3.142 4.484-.741 2.9-1.369 4.799-3.43 4.805-1.678 0-2.47-1.67-2.838-3.08A9.987 9.987 0 0 1 9.455 37a13.05 13.05 0 0 0-.246-2.427 15.272 15.272 0 0 0-2.428-4.988 54.746 54.746 0 0 1-.728-1.146h8.166a2.188 2.188 0 0 0 2.187 2.187h5.469Zm-5.469-2.188V26.25h5.469v2.188h-5.469Zm37.188 2.188a2.188 2.188 0 0 0 2.187-2.188h8.12c-.234.38-.476.76-.728 1.147a15.272 15.272 0 0 0-2.426 4.984c-.158.8-.24 1.612-.246 2.427a10.06 10.06 0 0 1-.231 2.18c-.373 1.422-1.195 3.155-2.9 3.079-2.007-.047-2.637-1.933-3.368-4.804-.547-2.13-1.11-4.484-3.143-4.484-2.033 0-2.6 2.353-3.142 4.484-.732 2.871-1.362 4.757-3.369 4.804-1.715.082-2.526-1.652-2.9-3.08a10.07 10.07 0 0 1-.231-2.18 12.95 12.95 0 0 0-.245-2.426 15.274 15.274 0 0 0-2.426-4.984 54.743 54.743 0 0 1-.729-1.146h8.12a2.188 2.188 0 0 0 2.188 2.187h5.469Zm-5.47-2.188V26.25h5.47v2.188h-5.47Zm-8.261-11.753c3.271-1.949 7.074-.984 10.172 2.595a4.551 4.551 0 0 0 4.623 2.933 1.094 1.094 0 0 0 0-2.188 2.302 2.302 0 0 1-2.45-1.312c2.996-3.105 6.563-3.87 9.65-2.03a7.833 7.833 0 0 1 3.166 9.568h-9.243a2.187 2.187 0 0 0-2.187-2.188h-5.47a2.187 2.187 0 0 0-2.187 2.188h-9.242a7.83 7.83 0 0 1 3.168-9.566ZM35.3 28.437c.437.82.924 1.592 1.412 2.341.206.317.408.629.603.94h-4.682c.196-.311.397-.623.604-.94.488-.75.979-1.52 1.412-2.34h.65ZM8.094 16.684c3.242-1.933 7-.993 10.083 2.502a4.55 4.55 0 0 0 4.66 3.026 1.094 1.094 0 1 0 0-2.188 2.297 2.297 0 0 1-2.43-1.278c3-3.13 6.576-3.911 9.68-2.062a7.832 7.832 0 0 1 3.17 9.566h-9.195a2.188 2.188 0 0 0-2.187-2.188h-5.469a2.187 2.187 0 0 0-2.187 2.188H4.922a7.83 7.83 0 0 1 3.172-9.566Z"/></svg>