<svg xmlns="http://www.w3.org/2000/svg" width="70" height="70" fill="none"><path fill="#DCDCDC" d="m53.777 28.438 2.058-13.375c.086-.563.13-1.132.13-1.7 0-6.173-5.004-11.175-11.175-11.175h-1.683a11.21 11.21 0 0 0-7.924 3.28 11.207 11.207 0 0 0-7.924-3.28h-1.684C19.403 2.188 14.4 7.19 14.4 13.361c0 .57.044 1.139.13 1.701l2.06 13.374"/><path fill="#EEE" d="M55.965 13.362c0-6.172-5.004-11.175-11.175-11.175h-1.683a11.21 11.21 0 0 0-7.924 3.282 11.202 11.202 0 0 0-7.117-3.242c-5.801.407-10.384 5.23-10.384 11.134 0 .57.043 1.139.13 1.701l2.058 13.376h33.907l2.058-13.375c.086-.563.13-1.132.13-1.7Z"/><path fill="#C8C8C8" d="M43.933 33.264c5.858-.92 9.843-2.736 9.843-4.827 0-3.02-8.324-5.468-18.593-5.468-10.27 0-18.594 2.449-18.594 5.468 0 2.09 3.986 3.906 9.844 4.827"/><path fill="#fff" d="M19.87 13.125h-2.187c0-4.222 3.434-7.656 7.656-7.656v2.187a5.475 5.475 0 0 0-5.469 5.469Z"/><path fill="#959595" d="M16.893 27.477C18.79 29.905 26.168 31.72 35 31.72c9.153 0 16.744-1.947 18.29-4.509-1.897-2.428-9.275-4.241-18.107-4.241-9.153 0-16.744 1.947-18.29 4.508Z"/><path fill="#FFD992" d="M47.214 39.375a7.369 7.369 0 0 1-3.281-6.132V31.72a3.281 3.281 0 0 0-3.282-3.282H29.714a3.281 3.281 0 0 0-3.281 3.282v1.524a7.37 7.37 0 0 1-3.282 6.132"/><path fill="#FFE1B2" d="M43.933 33.243V31.72a3.281 3.281 0 0 0-3.282-3.282h-7.839a3.281 3.281 0 0 0-3.28 3.282v1.524a7.37 7.37 0 0 1-3.282 6.132h20.964a7.37 7.37 0 0 1-3.281-6.132Z"/><path fill="#DCDCDC" d="M35.183 39.375h17.5l-3.672 8.261a8.163 8.163 0 0 0-.703 3.315 34.367 34.367 0 0 1-3.628 15.367 2.704 2.704 0 0 1-5.122-1.21c0-4.018-.44-8.024-1.312-11.947l-.401-1.806a2.727 2.727 0 0 0-5.325-.001l-.401 1.806a55.086 55.086 0 0 0-1.311 11.948 2.704 2.704 0 0 1-5.122 1.208 34.364 34.364 0 0 1-3.628-15.367c0-1.142-.24-2.272-.704-3.315l-3.671-8.259h17.5Z"/><path fill="#EEE" d="M35.183 39.375H21.267l3.185 7.167a8.143 8.143 0 0 1 .704 3.316 34.365 34.365 0 0 0 3.628 15.367 2.7 2.7 0 0 0 1.586 1.352c.275-.424.438-.926.438-1.467 0-4.019.44-8.025 1.311-11.948l.401-1.806a2.728 2.728 0 0 1 5.325-.002l.401 1.806a55.086 55.086 0 0 1 1.312 11.948 2.704 2.704 0 0 0 5.122 1.208 34.365 34.365 0 0 0 3.628-15.367c0-1.142.24-2.272.703-3.315l3.672-8.259h-17.5Z"/><path fill="#000D44" d="M54.85 28.603h.007l2.059-13.375c.095-.619.143-1.248.142-1.867 0-6.764-5.504-12.267-12.268-12.267h-1.683c-2.932 0-5.708 1.02-7.924 2.89a12.207 12.207 0 0 0-7.923-2.89h-1.684c-6.765 0-12.268 5.503-12.27 12.268 0 .622.049 1.25.144 1.868l2.058 13.375.008-.001c.2 3.338 6.241 4.928 9.748 5.57a6.244 6.244 0 0 1-2.477 4.107h-5.103a1.092 1.092 0 0 0-.999 1.538l3.672 8.261c.404.91.61 1.875.61 2.871a35.65 35.65 0 0 0 3.742 15.856 3.773 3.773 0 0 0 3.395 2.1 3.802 3.802 0 0 0 3.797-3.798c0-3.931.434-7.872 1.286-11.711l.401-1.807a1.624 1.624 0 0 1 1.595-1.279c.772 0 1.427.527 1.594 1.28l.402 1.806a54.12 54.12 0 0 1 1.285 11.71 3.802 3.802 0 0 0 3.797 3.798c1.449 0 2.75-.804 3.398-2.099A35.632 35.632 0 0 0 49.4 50.951c0-.995.206-1.96.61-2.87l3.671-8.262a1.093 1.093 0 0 0-1-1.538H47.58a6.245 6.245 0 0 1-2.476-4.108c3.507-.64 9.546-2.231 9.746-5.57ZM25.575 3.28h1.684c2.7 0 5.24 1.051 7.15 2.961a1.093 1.093 0 0 0 1.546 0c1.91-1.91 4.45-2.96 7.151-2.96h1.683c5.559 0 10.081 4.522 10.081 10.081 0 .509-.039 1.026-.117 1.534l-1.64 10.66c-3.272-2.426-10.633-3.682-17.931-3.682-7.299 0-14.66 1.256-17.931 3.683l-1.64-10.661a10.184 10.184 0 0 1-.118-1.535c.001-5.558 4.524-10.08 10.082-10.08Zm22.436 43.91a9.197 9.197 0 0 0-.798 3.76 33.436 33.436 0 0 1-3.512 14.877c-.275.55-.826.89-1.44.89-.889 0-1.61-.722-1.61-1.61 0-4.092-.45-8.191-1.338-12.185l-.402-1.807a3.798 3.798 0 0 0-3.73-2.991 3.798 3.798 0 0 0-3.729 2.991l-.401 1.807a56.235 56.235 0 0 0-1.338 12.186c0 .888-.723 1.61-1.61 1.61a1.6 1.6 0 0 1-1.44-.89 33.434 33.434 0 0 1-3.511-14.879 9.21 9.21 0 0 0-.798-3.76l-2.989-6.721h31.635l-2.989 6.722Zm-22.159-8.91a8.438 8.438 0 0 0 1.673-5.036v-1.526a2.19 2.19 0 0 1 2.188-2.188h10.938a2.19 2.19 0 0 1 2.187 2.188v1.526c0 1.846.606 3.6 1.673 5.036H25.853Zm19.173-6.316v-.246a4.38 4.38 0 0 0-4.375-4.375H29.715a4.38 4.38 0 0 0-4.375 4.375v.246c-5.549-1.046-7.656-2.683-7.656-3.527 0-1.527 6.01-4.375 17.5-4.375s17.5 2.848 17.5 4.375c0 .844-2.108 2.481-7.657 3.527Z"/><path fill="#000D44" d="M25.339 7.656V5.47c-4.222 0-7.656 3.434-7.656 7.656h2.187a5.475 5.475 0 0 1 5.469-5.469Z"/></svg>