<svg xmlns="http://www.w3.org/2000/svg" width="50" height="50" fill="none"><g clip-path="url(#a)"><path fill="#04CE78" d="M21.454 20.838c-3.181-3.666-3.307-8.062-3.024-10.63a4.084 4.084 0 0 0-1.552-3.681 4.065 4.065 0 0 0-5.056.05c-3.017 2.46-7.661 7.94-9.807 19.275-3.322 17.537-.07 22.886 8.216 22.886 8.287 0 12.377.4 12.377-12.167s-2.412-12.586-1.154-15.733Z"/><path fill="#1F5FFF" d="M4.945 25.852c2.146-11.334 6.79-16.816 9.807-19.275a4.017 4.017 0 0 1 1.09-.634 4.055 4.055 0 0 0-4.02.634c-3.017 2.46-7.661 7.94-9.807 19.275-3.322 17.537-.07 22.886 8.216 22.886.916 0 1.78.005 2.594-.003-8.037-.145-11.156-5.585-7.88-22.883Z"/><path fill="#04CE78" d="M28.546 20.838c3.181-3.666 3.307-8.062 3.023-10.63a4.084 4.084 0 0 1 1.553-3.681 4.065 4.065 0 0 1 5.055.05c3.017 2.46 7.661 7.94 9.808 19.275 3.321 17.537.07 22.886-8.217 22.886-8.286 0-12.376.4-12.376-12.167s2.412-12.586 1.154-15.733Z"/><path fill="#1F5FFF" d="M30.322 36.571c0-12.567 2.412-10.633 1.153-13.78 3.182-3.666 3.308-10.015 3.024-12.584a4.085 4.085 0 0 1 2.588-4.264 4.076 4.076 0 0 0-5.518 4.264c.284 2.57.158 6.965-3.024 10.631 1.259 3.147-1.153 3.166-1.153 15.733 0 12.568 4.09 12.167 12.376 12.167.114 0 .225-.001.336-.003-6.546-.066-9.782-.986-9.782-12.164Z"/><path fill="#1F5FFF" d="M43.185 40.658c-.278-2.951-1.454-9.984-6.417-14.051-4.376-3.588-6.867-6.684-8.005-8.283a4.104 4.104 0 0 1-.762-2.38V2.503c0-.707-.574-1.281-1.282-1.281h-3.438c-.708 0-1.282.574-1.282 1.281v13.443c0 .853-.267 1.684-.762 2.38-1.137 1.598-3.629 4.694-8.005 8.282-4.962 4.067-6.14 11.1-6.417 14.052-.065.681.427 1.308 1.11 1.363a1.216 1.216 0 0 0 1.288-.959c.475-2.227 2.04-7.833 6.326-11.624 4.274-3.78 6.885-4.715 7.964-6.65a1.66 1.66 0 0 1 1.446-.86h.103a1.66 1.66 0 0 1 1.446.86c1.079 1.935 3.69 2.87 7.963 6.65 4.286 3.791 5.852 9.397 6.326 11.624a1.216 1.216 0 0 0 1.289.959c.682-.055 1.174-.682 1.11-1.364Z"/><path fill="#000D44" d="M1.54 43.317c.39-.107.618-.51.51-.9-.968-3.52-.745-8.894.682-16.429.937-4.95 2.448-9.235 4.49-12.733 1.467-2.514 3.17-4.57 5.06-6.11a3.314 3.314 0 0 1 4.144-.039 3.33 3.33 0 0 1 1.273 3.02c-.266 2.417-.154 5.938 1.805 9.256-.265.328-.562.68-.893 1.059l-.003.002a47.038 47.038 0 0 1-2.247 2.375c-.189.188-2.427 2.34-2.482 2.284a21.196 21.196 0 0 1-1.772-2.035c.009-.695.077-2.774.556-4.157a.732.732 0 0 0-1.385-.48c-.274.791-.43 1.742-.52 2.594-.509-.91-.945-1.905-1.227-2.962a.733.733 0 0 0-1.415.377c.371 1.394.979 2.683 1.673 3.826-.957-.094-2.157-.07-3.254.367a.732.732 0 0 0-.41.952.742.742 0 0 0 .952.41c1.452-.579 3.261-.197 3.865-.041a22.727 22.727 0 0 0 1.813 2.096c-.278.228-.55.468-.812.72-1.063 1.018-1.997 2.226-2.797 3.612-1.026-.858-2.321-2.18-2.82-3.699a.733.733 0 0 0-1.392.457c.21.64.523 1.24.896 1.799a7.55 7.55 0 0 0-2.143.62.732.732 0 0 0-.351.974c.17.36.614.521.975.351 1.026-.483 2.123-.558 2.626-.565.494.526 1.018.991 1.514 1.389a22.252 22.252 0 0 0-.876 2.096 26.398 26.398 0 0 0-.85 2.878c-.242-.073-.496-.14-.758-.2-.209-.372-.585-1.145-.67-2.024a.732.732 0 1 0-1.458.14c.06.617.223 1.184.404 1.654a6.136 6.136 0 0 0-1.506.13.733.733 0 0 0 .316 1.43c1.11-.246 2.367-.006 3.372.31-.172.94-.278 1.782-.343 2.469-.1 1.07.702 2.076 1.782 2.162.948.075 1.865-.604 2.063-1.537.059-.275.135-.605.231-.976.78.696 1.653 1.67 2.013 2.765a.741.741 0 0 0 .924.467.732.732 0 0 0 .468-.924 6.178 6.178 0 0 0-.654-1.363 6.273 6.273 0 0 0 1.625-.496.732.732 0 1 0-.623-1.325c-.798.375-1.65.447-2.078.457A12.41 12.41 0 0 0 10.61 38.7c.634-1.932 1.698-4.388 3.428-6.596.229.35.491.715.787 1.086-.101.828-.283 3.019.349 4.77a.742.742 0 0 0 .937.442.733.733 0 0 0 .44-.938c-.318-.884-.38-1.949-.362-2.807.537.496 1.144.971 1.83 1.395a.741.741 0 0 0 1.008-.24.732.732 0 0 0-.239-1.007c-1.802-1.112-3.006-2.64-3.752-3.862.312-.329.639-.65.986-.956 1.863-1.649 3.408-2.75 4.649-3.634.116-.083.23-.163.341-.244.385 1.855.861 4.939.861 10.461 0 5.196-.689 8.2-2.233 9.742-1.706 1.704-4.626 1.7-8.666 1.694-2.978 0-6.127-.392-7.867-3.12a.732.732 0 1 0-1.235.787c1.63 2.555 4.363 3.797 8.357 3.797l1.45.001c4.029 0 6.976-.106 8.996-2.122 1.842-1.84 2.663-5.163 2.663-10.779 0-6.372-.624-9.598-1.035-11.42.796-.63 1.411-1.242 1.836-2.005a.93.93 0 0 1 .807-.485h.103c.33 0 .64.186.806.485.425.763 1.04 1.374 1.836 2.006-.41 1.82-1.034 5.047-1.034 11.419 0 5.616.82 8.94 2.663 10.779 2.02 2.017 4.966 2.122 8.995 2.122l1.45-.001c3.564 0 6.106-.978 7.773-2.99 1.438-1.736 2.229-4.23 2.417-7.623.19-3.394-.22-7.693-1.253-13.142-.987-5.214-2.598-9.724-4.786-13.406a.732.732 0 1 0-1.26.75c2.102 3.533 3.651 7.883 4.607 12.928 1.948 10.288 1.677 16.503-.853 19.558-1.817 2.194-4.736 2.456-7.39 2.46-4.04.006-6.96.011-8.665-1.693-1.545-1.542-2.233-4.546-2.233-9.742 0-5.522.476-8.606.86-10.46l.342.243c1.602 1.142 3.174 2.329 4.649 3.634.347.307.674.627.985.956-.745 1.222-1.95 2.75-3.752 3.862a.732.732 0 0 0-.238 1.008.74.74 0 0 0 1.008.239c.686-.424 1.293-.9 1.83-1.396.02.857-.043 1.92-.363 2.808a.742.742 0 0 0 .689.98c.3 0 .581-.185.69-.483.63-1.752.45-3.943.348-4.772.296-.37.558-.735.787-1.085 1.73 2.208 2.794 4.664 3.428 6.596-.4.322-.822.697-1.223 1.119-.428-.01-1.28-.082-2.078-.457a.733.733 0 0 0-.623 1.325c.56.264 1.13.413 1.625.496-.27.427-.496.882-.654 1.363a.732.732 0 0 0 .467.924.741.741 0 0 0 .925-.467c.36-1.096 1.234-2.069 2.013-2.765.096.371.172.7.23.976 0 .002.001.002.002.003.198.927 1.117 1.608 2.062 1.534 1.131-.09 1.88-1.162 1.773-2.245a29.183 29.183 0 0 0-.334-2.386c1.005-.316 2.261-.556 3.372-.31a.732.732 0 0 0 .316-1.43 6.136 6.136 0 0 0-1.506-.13c.181-.47.344-1.037.403-1.654a.732.732 0 0 0-1.458-.14c-.084.88-.46 1.652-.669 2.023-.262.06-.516.128-.758.2a26.415 26.415 0 0 0-.85-2.877c-.067-.186-.902-2.076-.876-2.096.497-.398 1.02-.864 1.515-1.39.5.005 1.59.08 2.625.566a.741.741 0 0 0 .975-.35.733.733 0 0 0-.351-.975 7.56 7.56 0 0 0-2.143-.62c.373-.559.686-1.16.895-1.799a.732.732 0 1 0-1.391-.457c-.5 1.52-1.794 2.841-2.82 3.7-.998-1.73-2.205-3.18-3.61-4.333a22.633 22.633 0 0 0 1.814-2.097c.603-.157 2.404-.54 3.865.042a.74.74 0 0 0 .951-.41.732.732 0 0 0-.41-.951c-1.097-.437-2.296-.462-3.253-.368.694-1.143 1.301-2.432 1.673-3.826a.732.732 0 1 0-1.415-.377 12.9 12.9 0 0 1-1.228 2.962c-.089-.852-.245-1.803-.52-2.593a.733.733 0 1 0-1.384.48c.48 1.382.547 3.46.556 4.156a21.184 21.184 0 0 1-1.773 2.036l-.05-.044c-1.415-1.223-2.695-2.557-4.015-3.878a38.539 38.539 0 0 1-1.56-1.798c1.96-3.319 2.072-6.84 1.805-9.256a3.331 3.331 0 0 1 1.273-3.021 3.314 3.314 0 0 1 4.144.039c1.216.99 2.371 2.216 3.434 3.643a.732.732 0 1 0 1.175-.876c-1.135-1.522-2.374-2.836-3.683-3.903a4.774 4.774 0 0 0-5.967-.061 4.786 4.786 0 0 0-1.832 4.34c.228 2.064.155 5.011-1.322 7.832l-.16-.22a3.356 3.356 0 0 1-.626-1.955V2.502c0-1.11-.904-2.014-2.014-2.014h-3.439c-1.11 0-2.014.904-2.014 2.014v13.443c0 .703-.216 1.379-.626 1.955l-.16.22c-1.476-2.82-1.55-5.768-1.322-7.833a4.786 4.786 0 0 0-1.832-4.34 4.774 4.774 0 0 0-5.967.062C9.33 7.66 7.514 9.85 5.957 12.517 3.831 16.159 2.261 20.6 1.293 25.716c-1.47 7.76-1.684 13.35-.654 17.09.107.39.51.619.9.511ZM21.83 18.75a4.81 4.81 0 0 0 .898-2.804V2.502a.55.55 0 0 1 .549-.548h3.439a.55.55 0 0 1 .549.548v13.443c0 1.009.31 1.979.897 2.804 1.24 1.741 2.672 3.345 4.182 4.854 1.528 1.527 3.268 2.822 4.808 4.336 4.046 3.979 5.052 10.166 5.3 12.774v.014c.025.266-.162.542-.438.564H42a.486.486 0 0 1-.5-.38c-.155-.732-.322-1.487-.574-2.193-1.034-2.853-2.178-5.544-4.134-7.91-1.86-2.25-4.258-3.965-6.619-5.647-1.072-.765-2.378-1.545-3.039-2.728-.905-1.623-3.368-1.625-4.274 0-.662 1.186-1.963 1.96-3.04 2.728-1.268.904-2.848 2.03-4.769 3.73-2.692 2.381-4.534 5.603-5.703 8.97a25.504 25.504 0 0 0-.854 3.05.486.486 0 0 1-.514.38c-.277-.022-.464-.299-.44-.564.097-1.024.312-2.606.783-4.392.581-2.203 1.451-4.355 2.735-6.245a13.702 13.702 0 0 1 2.635-2.917 54.738 54.738 0 0 0 3.942-3.556c1.517-1.511 2.954-3.123 4.196-4.868Z"/></g><defs><clipPath id="a"><path fill="#fff" d="M0 0h50v50H0z"/></clipPath></defs></svg>