<svg xmlns="http://www.w3.org/2000/svg" width="50" height="50" fill="none"><g clip-path="url(#a)"><path fill="#1F5FFF" d="M29.305 41.33a1.557 1.557 0 0 1-.816-2.842c1.38-.94 2.488-2.396 3.12-4.101 2.116-5.71-2.04-8.537-2.693-13.576-.612-4.725 2.607-9.436 7.238-10.594a1.557 1.557 0 0 1 .756 3.02c-3.1.775-5.316 4.016-4.906 7.174.334 2.578 2.208 5.037 2.963 8.046 1.166 4.645-.822 9.946-4.726 12.604a1.55 1.55 0 0 1-.936.27ZM20.695 41.33a1.557 1.557 0 0 0 .816-2.842c-1.38-.94-2.488-2.396-3.12-4.101-2.116-5.71 2.04-8.537 2.693-13.576.612-4.725-2.608-9.436-7.238-10.594a1.557 1.557 0 0 0-.756 3.02c3.1.775 5.316 4.016 4.906 7.174-.334 2.578-2.208 5.037-2.963 8.046-1.166 4.645.822 9.946 4.726 12.604.287.195.615.282.936.27Z"/><path fill="#04CE78" d="M40.745.94h-.82c-2.292 0-4.212 1.817-4.244 4.109a4.155 4.155 0 0 0 1.161 2.947.484.484 0 0 1 0 .67 4.154 4.154 0 0 0-1.161 2.886c0 1.12.442 2.137 1.16 2.886.18.187.18.483.001.67a4.155 4.155 0 0 0-1.16 2.947c.032 2.291 1.951 4.109 4.242 4.109h.82c4.31 0 8.524-4.752 8.524-10.612S45.054.94 40.745.94Z"/><path fill="#1F5FFF" d="M40.745.94h-.895c-.306 0-.602.034-.89.096 3.914.697 7.46 5.14 7.46 10.516s-3.546 9.819-7.459 10.516c.287.062.584.096.889.096h.895c4.31 0 8.523-4.752 8.523-10.612S45.054.94 40.745.94Z"/><path fill="#04CE78" d="M9.255.94h.82c2.292 0 4.212 1.817 4.244 4.109a4.155 4.155 0 0 1-1.161 2.947.484.484 0 0 0 0 .67 4.154 4.154 0 0 1 1.161 2.886c0 1.12-.442 2.137-1.16 2.886a.484.484 0 0 0-.001.67 4.155 4.155 0 0 1 1.16 2.947c-.031 2.291-1.951 4.109-4.242 4.109h-.82c-4.31 0-8.524-4.752-8.524-10.612S4.946.94 9.255.94Z"/><path fill="#1F5FFF" d="M14.32 11.552c0-1.12-.443-2.137-1.162-2.886a.484.484 0 0 1 0-.67 4.154 4.154 0 0 0 1.16-2.947c-.031-2.261-1.982-4.11-4.242-4.11h-.82a6.05 6.05 0 0 0-1.065.097 4.17 4.17 0 0 1 2.12 6.96.485.485 0 0 0 0 .67 4.154 4.154 0 0 1 1.16 2.886c0 1.12-.441 2.137-1.16 2.886a.485.485 0 0 0 0 .67 4.17 4.17 0 0 1-2.12 6.96c.353.063.708.096 1.064.096h.82c2.262 0 4.212-1.848 4.244-4.11a4.154 4.154 0 0 0-1.161-2.946.484.484 0 0 1 0-.67 4.154 4.154 0 0 0 1.161-2.886Z"/><path fill="#04CE78" d="M33.85 36.958c-.375-2.394-3.962-3.947-8.85-3.947s-8.475 1.553-8.85 3.947c-.378 2.41 2.619 6.13 6.453 7.31.421.13.706.523.706.964v2.09c0 .91.7 1.694 1.61 1.736a1.69 1.69 0 0 0 1.771-1.688v-2.138c0-.441.285-.834.707-.964 3.834-1.18 6.831-4.9 6.453-7.31Z"/><path fill="#1F5FFF" d="M33.85 36.958c-.32-2.041-2.976-3.47-6.781-3.848 2.704.738 4.504 2.19 4.764 3.848.378 2.41-2.62 5.3-6.453 6.48-.422.13-.707.522-.707.963v2.969c0 .552-.266 1.042-.676 1.35.259.198.575.322.921.338a1.69 1.69 0 0 0 1.772-1.688v-2.138c0-.441.286-.834.707-.964 3.834-1.18 6.831-4.9 6.453-7.31Z"/><path fill="#000D44" d="M47.186 3.581C45.41 1.437 43.061.207 40.745.207h-.82c-2.706 0-4.939 2.167-4.976 4.831a4.87 4.87 0 0 0 1.207 3.293c-.36.41-.642.873-.845 1.368-2.921.954-5.331 3.258-6.491 6.23a.732.732 0 1 0 1.364.533c.891-2.283 2.63-4.106 4.768-5.057a4.874 4.874 0 0 0 .252 1.711c-2.648 1.4-4.307 4.448-3.926 7.39.194 1.496.838 2.892 1.521 4.37.553 1.196 1.125 2.434 1.457 3.76.528 2.101.372 4.42-.415 6.553a5.308 5.308 0 0 0-1.33-1.186c1.075-3.529-.103-6.064-1.245-8.52-.685-1.474-1.394-2.998-1.624-4.765a8.237 8.237 0 0 1-.067-1.165.732.732 0 0 0-.722-.742h-.01c-.4 0-.727.321-.733.722-.006.454.02.916.08 1.373.258 1.992 1.015 3.62 1.748 5.195 1.083 2.328 2.029 4.364 1.246 7.218-1.618-.668-3.731-1.04-6.184-1.04-2.453 0-4.566.373-6.184 1.04a7.51 7.51 0 0 1-.251-2.767.732.732 0 0 0-1.458-.147c-.119 1.186.006 2.368.382 3.598-.542.35-.989.747-1.33 1.186-.786-2.133-.943-4.451-.415-6.553.332-1.326.904-2.564 1.457-3.76.683-1.478 1.328-2.874 1.522-4.37.38-2.942-1.279-5.99-3.926-7.39.183-.546.27-1.115.252-1.712 3.532 1.569 5.81 5.442 5.309 9.313-.23 1.769-.94 3.293-1.625 4.768-.21.453-.429.921-.629 1.389a.733.733 0 0 0 1.347.577c.191-.447.395-.885.61-1.349.733-1.575 1.49-3.203 1.75-5.196.627-4.845-2.481-9.69-7.122-11.207a4.884 4.884 0 0 0-.844-1.368 4.87 4.87 0 0 0 1.207-3.292c-.038-2.664-2.27-4.832-4.976-4.832h-.82c-2.317 0-4.665 1.23-6.442 3.374C1 5.771 0 8.601 0 11.552c0 2.951 1 5.782 2.814 7.971 1.777 2.144 4.125 3.373 6.441 3.373h.82c2.707 0 4.939-2.167 4.976-4.83a4.87 4.87 0 0 0-1.207-3.293c.1-.115.194-.233.283-.355 2.118 1.123 3.446 3.555 3.143 5.899-.165 1.274-.764 2.57-1.399 3.944-.581 1.258-1.182 2.56-1.548 4.018-.717 2.858-.325 6.058 1.074 8.819-.107 1.342.554 2.948 1.843 4.452 1.356 1.583 3.232 2.829 5.148 3.418.111.034.19.143.19.263v2.09c0 1.324 1.012 2.408 2.306 2.469a2.423 2.423 0 0 0 2.539-2.42V45.23c0-.12.078-.229.19-.263 1.915-.59 3.79-1.835 5.147-3.418 1.288-1.504 1.95-3.11 1.843-4.452 1.399-2.76 1.791-5.961 1.074-8.82-.772-3.078-2.634-5.545-2.947-7.961-.303-2.344 1.025-4.777 3.143-5.9.089.123.183.241.283.356a4.87 4.87 0 0 0-1.207 3.292c.037 2.664 2.27 4.831 4.975 4.831h.82c2.317 0 4.665-1.23 6.442-3.373C49 17.334 50 14.503 50 11.553 50 8.6 49 5.77 47.186 3.58ZM12.63 15.615c.63.656.97 1.519.957 2.43-.027 1.867-1.602 3.386-3.511 3.386h-.82c-1.88 0-3.816-1.036-5.314-2.843-1.598-1.927-2.477-4.425-2.477-7.036 0-2.61.88-5.11 2.477-7.036C5.44 2.709 7.376 1.672 9.255 1.672h.82c1.91 0 3.485 1.52 3.511 3.387a3.417 3.417 0 0 1-.957 2.43 1.212 1.212 0 0 0 .001 1.684 3.435 3.435 0 0 1 0 4.758 1.213 1.213 0 0 0 0 1.684Zm19.017 24.982c-1.18 1.378-2.808 2.46-4.465 2.97a1.73 1.73 0 0 0-1.224 1.665v2.138c0 .543-.45.981-1.005.957-.502-.024-.911-.474-.911-1.005v-2.09a1.73 1.73 0 0 0-1.224-1.664c-1.657-.51-3.285-1.593-4.465-2.97-1.06-1.238-1.627-2.589-1.48-3.527.308-1.96 3.65-3.328 8.127-3.328s7.82 1.369 8.127 3.328c.147.938-.42 2.29-1.48 3.526Zm14.411-22.009c-1.498 1.807-3.434 2.843-5.313 2.843h-.82c-1.91 0-3.485-1.519-3.511-3.386a3.417 3.417 0 0 1 .957-2.43 1.213 1.213 0 0 0-.001-1.684 3.435 3.435 0 0 1 0-4.758 1.213 1.213 0 0 0 0-1.684 3.416 3.416 0 0 1-.956-2.43c.026-1.868 1.6-3.387 3.51-3.387h.82c1.88 0 3.816 1.036 5.314 2.844 1.598 1.927 2.477 4.426 2.477 7.036 0 2.61-.88 5.11-2.477 7.036Z"/></g><defs><clipPath id="a"><path fill="#fff" d="M0 0h50v50H0z"/></clipPath></defs></svg>