<svg xmlns="http://www.w3.org/2000/svg" width="50" height="50" fill="none"><g clip-path="url(#a)"><path fill="#04CE78" d="M29.662 15.284a5.547 5.547 0 0 1 6.215 7.13s-1.232 2.688-1.608 2.973c-.376.285-5.428 1.35-7.045-.508-1.617-1.859-2.77-5.026-2.77-5.026l5.207-4.57ZM19.895 12.194v5.894l.97.108 3.878-7.357 6.873-2.732a10.82 10.82 0 0 0-1.369-2.183 6.23 6.23 0 0 0-2.824-.687c-3.426 0-6.355 2.886-7.528 6.957Z"/><path fill="#1F5FFF" d="M36.592 11.866v-1.718c-4.06.17-12.182 1.507-12.805 9.41l3.791 1.686s-.117-9.688 9.014-9.378ZM17.209 16.611V7.25c0-.687-.557-1.243-1.243-1.243h-.746c-.392.21-.658.621-.658 1.096v10.084l2.647-.575Z"/><path fill="#04CE78" d="M39.482 27.126a7.922 7.922 0 0 0-3.602-3.811c-.05.01-.099.02-.15.032 0 0-.099-.1-.332-.26a7.75 7.75 0 0 0-4.94-.424s-1.713-1.712-7.563-2.354c-1.276-1.218-2.536-2.142-3.764-2.763-1.229.37-2.386 1.149-3.446 2.359-3.425 3.905-2.462 10.861-.785 13.643.928 2.466 1.216 4.21 3.75 7.188 3.464 4.073 8.162 6.905 13.366 8.133l.351.083a8.481 8.481 0 0 0 3.913-1.561l.66-.482a12.03 12.03 0 0 0 4.903-8.852 19.425 19.425 0 0 0-1.64-9.318l-.72-1.613Z"/><path fill="#000D44" d="m39.925 30.633.003.006a.976.976 0 1 0 1.785-.793.971.971 0 0 0-1.291-.508c-.5.22-.719.789-.497 1.295Z"/><path fill="#000D44" d="M42.62 33.479a.976.976 0 1 0-1.93.305c.22 1.387.28 2.802.18 4.203a11.035 11.035 0 0 1-4.506 8.133l-.66.483a7.508 7.508 0 0 1-6.15 1.244l-2.587-.612c-5.002-1.181-9.564-3.957-12.847-7.815-1.459-1.716-2.117-2.963-2.622-4.249a.97.97 0 0 0 .035-.415c-.005-.042-.486-4.26 5.463-6.968 4.079-1.857 5.988-5.033 6.652-6.402 4.472.617 6.011 1.876 6.126 1.975.236.25.562.331.899.255l.242-.053c3.129-.657 6.356 1.01 7.675 3.962a.977.977 0 1 0 1.784-.797 8.947 8.947 0 0 0-3.568-4.014l.003-.01a6.523 6.523 0 0 0 .284-2.346h.677a.977.977 0 0 0 0-1.953h-1.104a6.527 6.527 0 0 0-1.034-1.775l.442-.442a.977.977 0 0 0-1.381-1.382l-.511.512a6.486 6.486 0 0 0-2.688-1.022c1.294-1.035 2.994-1.525 5.065-1.454a.975.975 0 0 0 1.01-.976v-3.72a.976.976 0 0 0-.896-.973c-.158-.013-1.987-.152-4.365.134-1.063-2.058-2.56-3.586-4.28-4.434l.69-1.032A.976.976 0 1 0 27.096.754l-.99 1.478a7.09 7.09 0 0 0-2.035-.08V.978a.977.977 0 1 0-1.953 0v1.67a8.376 8.376 0 0 0-2.577 1.682 10.57 10.57 0 0 0-1.595 1.92 2.221 2.221 0 0 0-1.98-1.22h-2.651c-1.224 0-2.22.996-2.22 2.22v9.982c-.49.382-.965.83-1.418 1.346-2.14 2.442-2.567 5.642-2.547 7.896.022 2.55.638 5.15 1.612 6.816.148.394.28.775.409 1.143.656 1.883 1.276 3.66 3.481 6.253 3.55 4.174 8.482 7.175 13.886 8.45l2.588.612a9.472 9.472 0 0 0 2.172.253c2.02 0 3.948-.63 5.578-1.82l.66-.482a12.983 12.983 0 0 0 5.301-9.571 20.42 20.42 0 0 0-.198-4.648ZM30.701 21.614c-.394-.274-1.065-.664-2.113-1.055.08-.94.353-2.711 1.27-4.317a4.576 4.576 0 0 1 5.148 5.655 8.769 8.769 0 0 0-4.305-.283Zm4.914-12.527v1.807c-2.42.105-4.415.913-5.943 2.407-2.147 2.1-2.794 5.018-2.988 6.675a27.178 27.178 0 0 0-3.356-.6 21.953 21.953 0 0 0-.887-.78c.001-.023.003-.046.003-.07 0-2.623.848-4.735 2.52-6.277 3.177-2.931 8.536-3.182 10.65-3.162ZM24.819 4.065c.49 0 .972.072 1.44.21h.003c1.556.454 2.966 1.636 4.002 3.372-2.27.489-4.727 1.42-6.618 3.161-1.801 1.658-2.837 3.813-3.091 6.417-.8-.496-1.59-.877-2.37-1.141v-5.647c.017-.04.032-.08.045-.121 1.076-3.739 3.725-6.25 6.59-6.25ZM13.05 7.25c0-.147.119-.267.266-.267h2.65c.148 0 .267.12.267.267v8.415a7.378 7.378 0 0 0-.975-.022 6.897 6.897 0 0 0-2.208.466v-8.86Zm-1.903 12.616c1.262-1.44 2.675-2.204 4.198-2.272 1.943-.087 4.178.969 6.484 3.058a11.967 11.967 0 0 1-5.642 5.36c-3.737 1.7-5.332 4.008-6.013 5.644l-.033.083c-1.235-2.735-1.898-8.56 1.006-11.873Z"/><path fill="#000D44" d="M19.514 39.274a.977.977 0 0 0-1.247 1.503 22.503 22.503 0 0 0 9.149 4.557.977.977 0 1 0 .449-1.9 20.544 20.544 0 0 1-8.351-4.16ZM15.71 36.78a.973.973 0 0 0-.101 1.375.975.975 0 0 0 1.375.125.977.977 0 0 0 .125-1.375l-.02-.023a.98.98 0 0 0-1.38-.101Z"/></g><defs><clipPath id="a"><path fill="#fff" d="M0 0h50v50H0z"/></clipPath></defs></svg>