<svg xmlns="http://www.w3.org/2000/svg" width="50" height="50" fill="none"><g fill-rule="evenodd" clip-path="url(#a)" clip-rule="evenodd"><path fill="#000D44" d="M14.821 38.723h-1.435v1.435c0 1.465-2.226 1.465-2.226 0v-1.435H9.725c-1.494 0-1.494-2.226 0-2.226h1.435v-1.465c0-1.464 2.226-1.464 2.226 0v1.465h1.435c1.465 0 1.465 2.226 0 2.226ZM43.85 50h-17.78c-.615 0-1.084-.498-1.113-1.084-.79-17.662-7.088-22.466-7.88-22.993C4.16 21.968 6.035 5.858 6.064 5.683c.059-.44.381-.82.82-.938L24.458.03a1.26 1.26 0 0 1 .732.059c19.303 8.787 19.772 22.495 19.772 23.081v25.689c0 .615-.498 1.142-1.113 1.142Zm-16.725-2.255h6.092l-2.724-17.546c-3.486.557-6.122-3.193-4.335-6.298a4.214 4.214 0 0 1 5.243-1.816c2.138-2.724 6.532-1.845 7.44 1.524A4.26 4.26 0 0 1 36 28.764l2.958 18.98h3.779V23.2c-.03-.498-.498-12.742-18.102-20.885l-3.896 1.025 5.009 7.499c2.929-1.992 6.883.322 6.561 3.866-.176 2.138-1.875 3.75-3.983 3.867-.791 3.397-5.126 4.422-7.352 1.757-1.465-1.757-1.29-4.364.38-5.858l-6.385-9.578-6.766 1.816c-.206 3.017-.264 14.177 9.666 17.106.556.146 8.143 4.657 9.256 23.93Zm8.377 0h1.2l-3.075-19.743c-.117-.673.41-1.288 1.113-1.288 1.29 0 2.256-1.26 1.934-2.52-.498-1.874-3.135-1.991-3.808-.175-.264.703-1.172.937-1.758.468-1.494-1.23-3.72.176-3.192 2.05.322 1.29 1.786 1.875 2.929 1.202.673-.381 1.552.029 1.67.79L35.5 47.745ZM18.453 3.955l-1.2.321 6.59 9.872c.38.556.146 1.347-.469 1.64-1.845.85-1.376 3.632.645 3.808 1.23.088 2.285-.938 2.197-2.139-.059-.761.644-1.376 1.376-1.171 1.875.468 3.28-1.728 2.05-3.222-.849-1.025-2.43-.938-3.192.146-.44.645-1.406.615-1.845-.029l-6.152-9.227Zm-6.18 40.89c-4.013 0-7.264-3.252-7.264-7.235a7.263 7.263 0 0 1 7.264-7.264c3.984 0 7.235 3.25 7.235 7.264 0 3.983-3.251 7.235-7.235 7.235Zm0-12.244a5.007 5.007 0 0 0-5.009 5.009c0 2.753 2.256 5.009 5.009 5.009 2.753 0 5.009-2.256 5.009-5.01a5.007 5.007 0 0 0-5.009-5.008Z"/><path fill="#fff" d="M23.374 15.788c-1.845.85-1.376 3.632.645 3.808 1.23.088 2.285-.938 2.197-2.139-.059-.761.644-1.376 1.376-1.171 1.875.468 3.28-1.728 2.05-3.222-.849-1.025-2.43-.938-3.192.146-.44.645-1.406.615-1.845-.03l-6.152-9.226-1.2.322 6.59 9.872c.38.556.146 1.347-.469 1.64ZM31.107 24.487c-1.494-1.23-3.72.176-3.192 2.05.322 1.29 1.786 1.875 2.929 1.202.673-.381 1.552.029 1.67.79L35.5 47.746h1.2l-3.075-19.743c-.117-.673.41-1.288 1.113-1.288 1.29 0 2.256-1.26 1.934-2.52-.498-1.874-3.135-1.991-3.808-.175-.264.703-1.172.937-1.758.468Z"/><path fill="#04CE78" d="M26.157 23.901a4.214 4.214 0 0 1 5.243-1.816c2.138-2.724 6.532-1.845 7.44 1.524A4.26 4.26 0 0 1 36 28.764l2.958 18.98h3.779V23.2c-.03-.498-.498-12.742-18.102-20.885l-3.896 1.025 5.009 7.499c2.93-1.992 6.883.322 6.561 3.866-.176 2.138-1.875 3.75-3.983 3.867-.791 3.397-5.126 4.422-7.352 1.757-1.465-1.757-1.29-4.364.38-5.858l-6.385-9.578-6.766 1.816c-.205 3.017-.264 14.177 9.666 17.106.556.146 8.143 4.657 9.256 23.93h6.092L30.492 30.2c-3.486.557-6.122-3.193-4.335-6.298Z"/><path fill="#1F5FFF" d="M17.282 37.61a5.007 5.007 0 0 0-5.009-5.009 5.007 5.007 0 0 0-5.009 5.009c0 2.753 2.256 5.009 5.009 5.009 2.753 0 5.009-2.256 5.009-5.01Zm-2.46-1.113c1.464 0 1.464 2.226 0 2.226h-1.436v1.435c0 1.465-2.226 1.465-2.226 0v-1.435H9.725c-1.494 0-1.494-2.226 0-2.226h1.435v-1.465c0-1.464 2.226-1.464 2.226 0v1.465h1.435Z"/></g><defs><clipPath id="a"><path fill="#fff" d="M0 0h50v50H0z"/></clipPath></defs></svg>