<svg xmlns="http://www.w3.org/2000/svg" width="50" height="50" fill="none"><g clip-path="url(#a)"><path fill="#04CE78" d="M18.582 23.413s-3.714-9.308.308-15.95c3.883-6.411 11.465-8.298 19.512-5.424C46.45 4.913 49.63 14.868 47.21 20.683c-3.368 8.093-12.286 12.661-13.417 18.82-1.386 7.54-8.697 11.109-13.118 9.297-4.092-1.676-7.847-6.175-3.756-14.426 3.34-6.739 1.665-10.961 1.665-10.961Z"/><path fill="#1F5FFF" d="M43.803 5.652c2.358 4.023 2.896 8.936 1.458 12.389-3.368 8.093-12.286 12.661-13.418 18.82-1.385 7.54-8.697 11.109-13.117 9.297-1.01-.414-2-1-2.856-1.772.985 2.178 2.856 3.616 4.804 4.414 4.42 1.812 11.732-1.758 13.118-9.298 1.131-6.158 10.05-10.727 13.417-18.82 1.773-4.258.541-10.738-3.407-15.03Z"/><path fill="#1F5FFF" d="M23.45 16.446s2.925-6.208 9.524-6.208c6.6 0 9.074 5.31 9.074 5.31.34-7.186-8.532-11.353-14.712-7.706-3.36 1.984-4 5.662-3.886 8.604"/><path fill="#1F5FFF" d="M37.356 21.535c-.375-5.91-6.456-10.281-13.905-5.09l.724 4.42s3.718-.22 3.888 2.904c.163 2.97-3.888 3.226-3.888 3.226l-.187-.115c-.25 1.487-.698 3.006-1.478 4.245 0 0-2.277 6.704 1.897 6.957 4.175.253 2.815-5.17 5.218-6.942 2.404-1.77 8.014-5.141 7.731-9.605Z"/><path fill="#1F5FFF" d="M37.223 23.074a5.25 5.25 0 0 0 .133-1.539c-.375-5.91-6.456-10.281-13.905-5.09l.385 2.351c6.817-4.48 12.41-.964 13.387 4.278Z"/><path fill="#000D44" d="M32.196 43.79a.731.731 0 0 0-1.018.184c-1.263 1.818-3.051 3.233-5.035 3.985-1.848.7-3.74.76-5.192.165-1.284-.527-3.588-1.805-4.587-4.453-.93-2.462-.522-5.48 1.209-8.972 3.445-6.951 1.762-11.371 1.689-11.557-.014-.033-1.328-3.379-1.494-7.382a.731.731 0 0 0-1.462.061c.178 4.262 1.54 7.718 1.597 7.862.015.039 1.519 3.993-1.64 10.366-1.92 3.87-2.346 7.282-1.267 10.139.885 2.346 2.803 4.225 5.4 5.29a7.295 7.295 0 0 0 2.776.522c3.306 0 6.962-1.96 9.208-5.192a.731.731 0 0 0-.184-1.018Z"/><path fill="#000D44" d="M47.27 9.659c-1.774-4.006-4.835-6.956-8.622-8.309-4.13-1.475-8.196-1.747-11.754-.787-3.66.987-6.644 3.242-8.63 6.52-1.03 1.703-1.665 3.712-1.887 5.971a.731.731 0 0 0 1.456.143c.2-2.04.766-3.842 1.683-5.356 3.615-5.97 10.758-7.929 18.64-5.113 3.406 1.216 6.167 3.887 7.776 7.523 1.535 3.467 1.765 7.356.602 10.15-1.596 3.835-4.456 6.83-7.222 9.725-2.892 3.026-5.622 5.884-6.24 9.244a12.14 12.14 0 0 1-.75 2.523.731.731 0 0 0 1.348.568c.378-.895.66-1.846.84-2.827.54-2.93 3.005-5.51 5.86-8.498 2.725-2.853 5.814-6.086 7.515-10.172 1.311-3.152 1.076-7.484-.616-11.305Z"/><path fill="#000D44" d="M42.014 16.278a.731.731 0 0 0 .765-.696c.159-3.36-1.511-6.348-4.583-8.2-3.462-2.087-7.87-2.153-11.231-.17a.731.731 0 0 0 .743 1.26c2.905-1.715 6.725-1.65 9.733.163 2.597 1.565 4.01 4.072 3.877 6.878a.731.731 0 0 0 .696.765ZM25.897 8.89a.731.731 0 0 0-1.03.088c-1.521 1.81-2.258 4.383-2.146 7.456 0 .024 0 .047.002.071.004.095.006.188.012.283.136 2.39.719 4.224.744 4.301 0 .004.003.006.004.01.011.035.026.07.042.102l.003.005a.745.745 0 0 0 .14.184c0 .002.002.003.004.005.085.08.189.14.303.173h.001c.038.01.076.018.116.023h.006a.72.72 0 0 0 .116.004h.005c.036-.002.84-.035 1.627.252.947.346 1.434.988 1.487 1.962.12 2.207-3.07 2.447-3.205 2.456a.731.731 0 0 0 .093 1.46c1.651-.104 4.732-1.074 4.573-3.995-.057-1.031-.44-1.87-1.139-2.494-.9-.804-2.113-1.027-2.856-1.086l-.551-3.36c4.112-2.702 7.1-1.975 8.537-1.282 2.2 1.06 3.671 3.388 3.842 6.074.107 1.686-.746 3.39-2.606 5.21a.731.731 0 0 0 1.023 1.045c2.183-2.135 3.178-4.211 3.042-6.348-.204-3.212-1.992-6.009-4.666-7.299-1.627-.784-4.889-1.624-9.229.914.09-1.795.55-3.703 1.795-5.185a.731.731 0 0 0-.09-1.03ZM21.818 30.89c-.151.444-1.432 4.4.03 6.576.546.814 1.416 1.279 2.515 1.346.114.007.223.01.33.01 2.807 0 3.444-2.315 3.96-4.188.331-1.206.644-2.344 1.406-2.905.264-.195.576-.415.906-.648a53.573 53.573 0 0 0 2.158-1.58.731.731 0 0 0-.9-1.153 52.522 52.522 0 0 1-2.101 1.538c-.337.238-.655.462-.93.665-1.17.863-1.567 2.302-1.95 3.695-.566 2.057-.974 3.216-2.79 3.106-.654-.04-1.095-.262-1.39-.7-.9-1.338-.204-4.273.14-5.292a.731.731 0 0 0-1.384-.47ZM1.475 20.446a.731.731 0 0 0 .027 1.034c.952.902 1.52 2.428 1.52 4.083 0 1.655-.568 3.181-1.52 4.083a.731.731 0 0 0 1.007 1.061c1.237-1.173 1.975-3.096 1.975-5.144s-.738-3.971-1.975-5.145a.731.731 0 0 0-1.034.028ZM6.08 17.208a.731.731 0 1 0-1.006 1.06c1.713 1.625 2.735 4.352 2.735 7.295 0 2.943-1.022 5.67-2.735 7.294a.731.731 0 0 0 1.007 1.06c1.998-1.895 3.19-5.018 3.19-8.354 0-3.336-1.192-6.46-3.19-8.355Z"/><path fill="#000D44" d="M9.848 14.291a.731.731 0 0 0-1.006 1.061c2.404 2.28 3.84 6.098 3.84 10.211s-1.436 7.93-3.84 10.21a.731.731 0 0 0 1.006 1.062c2.69-2.552 4.296-6.765 4.296-11.272 0-4.507-1.606-8.72-4.296-11.272Z"/></g><defs><clipPath id="a"><path fill="#fff" d="M0 0h50v50H0z"/></clipPath></defs></svg>