<svg xmlns="http://www.w3.org/2000/svg" width="50" height="50" fill="none"><g clip-path="url(#a)"><path fill="#fff" d="M33.308 4.435c-1.767 0-3.518.462-4.995 1.433A5.957 5.957 0 0 1 25 6.855a5.957 5.957 0 0 1-3.313-.987c-1.476-.971-3.228-1.433-4.995-1.433a9.435 9.435 0 0 0-9.434 9.434v2.127a29.285 29.285 0 0 0 4.65 15.835 29.274 29.274 0 0 1 3.777 8.734l.879 3.512a1.964 1.964 0 0 0 3.848-.186l1.81-12.063a2.81 2.81 0 0 1 5.556 0l1.81 12.063a1.964 1.964 0 0 0 3.848.186l.879-3.512a29.274 29.274 0 0 1 3.776-8.734A29.276 29.276 0 0 0 42.5 19.758l.144-7.258c-.663-4.561-4.59-8.065-9.335-8.065Z"/><path fill="#04CE78" d="M25.403 27.016c-7.047 0-13.351-2.061-17.568-5.303A29.267 29.267 0 0 0 11.91 31.83a29.274 29.274 0 0 1 3.776 8.734l.879 3.512a1.964 1.964 0 0 0 3.848-.186l1.81-12.063a2.81 2.81 0 0 1 5.556 0l1.81 12.063a1.964 1.964 0 0 0 3.848.186l.879-3.512a29.274 29.274 0 0 1 3.776-8.734 29.285 29.285 0 0 0 3.933-9.436c-4.185 2.845-10.082 4.621-16.62 4.621Z"/><path fill="#FCD770" d="M37.097 16.532a6.452 6.452 0 0 0 6.451-6.451A6.452 6.452 0 0 0 50 16.532a6.452 6.452 0 0 0-6.452 6.452 6.452 6.452 0 0 0-6.451-6.452ZM0 37.5a6.452 6.452 0 0 0 6.452-6.451 6.452 6.452 0 0 0 6.451 6.451 6.452 6.452 0 0 0-6.451 6.452A6.452 6.452 0 0 0 0 37.5Z"/><path fill="#000D44" d="M11.29 15.996v-.27H9.677v.27c0 .462.013.924.036 1.384l1.611-.082a25.86 25.86 0 0 1-.034-1.302ZM9.85 19.043a26.969 26.969 0 0 0 4.094 11.48l1.357-.873a25.367 25.367 0 0 1-3.849-10.79l-1.602.183ZM25 9.274a8.414 8.414 0 0 1-4.726-1.44l-.902 1.336A10.021 10.021 0 0 0 25 10.887a10.02 10.02 0 0 0 5.629-1.718l-.902-1.337A8.411 8.411 0 0 1 25 9.274ZM7.258 31.048H5.645A5.652 5.652 0 0 1 0 36.694v1.612a5.652 5.652 0 0 1 5.645 5.646h1.613a5.652 5.652 0 0 1 5.645-5.646v-1.612a5.652 5.652 0 0 1-5.645-5.646Zm-.806 9.593A7.293 7.293 0 0 0 3.31 37.5a7.294 7.294 0 0 0 3.142-3.141 7.294 7.294 0 0 0 3.14 3.141 7.293 7.293 0 0 0-3.14 3.141Z"/><path fill="#000D44" d="M44.355 10.08H42.81c-1.528-3.799-5.267-6.451-9.503-6.451-2 0-3.88.541-5.439 1.564a5.26 5.26 0 0 1-5.738 0c-1.558-1.023-3.438-1.564-5.44-1.564-5.646 0-10.24 4.594-10.24 10.24v2.127a30.031 30.031 0 0 0 4.78 16.272 28.43 28.43 0 0 1 3.673 8.492l.877 3.511a2.765 2.765 0 0 0 2.688 2.1 2.753 2.753 0 0 0 2.74-2.36l1.81-12.063A1.993 1.993 0 0 1 25 30.242c1 0 1.832.718 1.98 1.706l1.81 12.063a2.755 2.755 0 0 0 2.74 2.36c1.275 0 2.38-.863 2.688-2.1l.879-3.511a28.417 28.417 0 0 1 3.673-8.492A30.325 30.325 0 0 0 42.74 22.9c-.001.028.003.056.003.084h1.613A5.652 5.652 0 0 1 50 17.339v-1.613a5.652 5.652 0 0 1-5.645-5.645Zm-6.942 21.315a30.042 30.042 0 0 0-3.88 8.974l-.88 3.512c-.128.517-.59.877-1.122.877-.579 0-1.06-.415-1.145-.987l-1.81-12.063A3.594 3.594 0 0 0 25 28.63a3.594 3.594 0 0 0-3.577 3.08L19.615 43.77a1.15 1.15 0 0 1-1.146.987c-.532 0-.994-.36-1.124-.877l-.878-3.512a30.003 30.003 0 0 0-3.88-8.974 28.426 28.426 0 0 1-4.522-15.399v-2.127c0-4.757 3.87-8.627 8.627-8.627 1.685 0 3.259.45 4.552 1.3A6.728 6.728 0 0 0 25 7.661a6.723 6.723 0 0 0 3.755-1.12c1.294-.85 2.868-1.3 4.553-1.3 4.255 0 7.926 3.17 8.53 7.31l.035.525a5.642 5.642 0 0 1-4.776 2.649v1.613c1.893 0 3.568.94 4.593 2.375a28.655 28.655 0 0 1-4.277 11.681Zm6.135-11.722a7.293 7.293 0 0 0-3.14-3.14 7.294 7.294 0 0 0 3.14-3.142 7.293 7.293 0 0 0 3.142 3.141 7.293 7.293 0 0 0-3.142 3.141Z"/></g><defs><clipPath id="a"><path fill="#fff" d="M0 0h50v50H0z"/></clipPath></defs></svg>