<svg xmlns="http://www.w3.org/2000/svg" width="50" height="50" fill="none"><g clip-path="url(#a)"><path fill="#1F5FFF" d="M26.543 30.802c-.417 0-.827-.197-1.083-.565a16.14 16.14 0 0 0-7.508-5.832 33.658 33.658 0 0 0-1.296-.446c-1.171-.386-2.383-.784-3.507-1.5-3.71-2.363-4.943-7.227-2.808-11.072a1.318 1.318 0 0 1 2.305 1.28 5.704 5.704 0 0 0 1.92 7.568c.845.539 1.85.87 2.915 1.22.456.15.928.305 1.396.48a18.804 18.804 0 0 1 8.746 6.794 1.318 1.318 0 0 1-1.08 2.073Z"/><path fill="#04CE78" d="M42.528 20.973a.876.876 0 0 1 .03-1.261l.34-.313c2.302-2.109 3.899-5.038 3.79-8.435C46.506 5.325 41.868.78 36.226.733c-5.874-.05-10.65 4.696-10.65 10.558 0 .472.142 2.588.22 3.716a.821.821 0 0 1-.65.86.82.82 0 0 0-.62 1.038c.674 2.249 2.93 8.1 8.068 7.691a16.843 16.843 0 0 0 2.441-.367l-.184 1.072-7.34 2.72-7.057 9.715v3.91c0 5.97 9.036 12.73 19.457 1.837 7.742-8.094 6.424-18.668 2.617-22.51Z"/><path fill="#1F5FFF" d="m42.558 19.712.34-.313c2.302-2.109 3.899-5.038 3.79-8.435C46.506 5.325 41.868.78 36.226.733c-.362-.003-.721.012-1.075.045 5.237.483 9.412 4.843 9.584 10.185.109 3.398-1.488 6.327-3.79 8.436l-.34.313a.876.876 0 0 0-.03 1.26c3.807 3.843 5.125 14.416-2.617 22.51-3.62 3.785-7.073 5.439-10.038 5.735 3.348.349 7.543-1.085 11.99-5.734 7.743-8.094 6.425-18.668 2.618-22.51a.876.876 0 0 1 .03-1.261Z"/><path fill="#04CE78" d="M40.743 24.108a3.596 3.596 0 0 0-4.742-1.93l-7.692 3.377a1.143 1.143 0 0 1-1.317-.304l-3.64-4.225a2.408 2.408 0 0 0-3.653 3.14l5.571 6.5a4.884 4.884 0 0 0 5.522 1.357l7.957-3.2a3.594 3.594 0 0 0 1.994-4.715Z"/><path fill="#1F5FFF" d="m21.83 22.006 4.34 5.064c.326.378.86.502 1.318.305l7.691-3.377a3.596 3.596 0 0 1 4.98 2.793c.044.302.46.361.578.08A3.596 3.596 0 0 0 36 22.178l-7.692 3.376a1.144 1.144 0 0 1-1.318-.304L23.39 21.07c-.863-1.002-2.427-1.16-3.43-.3a2.41 2.41 0 0 0-.403.442 2.407 2.407 0 0 1 2.274.794Z"/><path fill="#04CE78" d="M21.084 28.149h-5.31a.648.648 0 0 1-.49-.223l-1.111-1.277a2.285 2.285 0 0 0-1.723-.785h-.074a2.284 2.284 0 0 0-2.285 2.285v4.93c0 .75.609 1.359 1.359 1.359h6.646a2.359 2.359 0 0 1 2.358 2.359v1.88l7.79-1.326V35.31a7.16 7.16 0 0 0-7.16-7.161Z"/><path fill="#1F5FFF" d="M28.244 35.31v.02c0 .531-.43.962-.962.962a.956.956 0 0 1-.952-.826 7.161 7.161 0 0 0-7.101-6.244h-5.311a.648.648 0 0 1-.49-.222l-1.11-1.277a2.286 2.286 0 0 0-1.724-.785h-.073l-.084.002a2.28 2.28 0 0 1 1.939-1.076h.074c.66 0 1.29.287 1.723.785l1.111 1.277a.648.648 0 0 0 .49.223h5.31a7.161 7.161 0 0 1 7.16 7.16ZM18.48 13.919l-3.758-3.758a.334.334 0 0 1 0-.472L18.48 5.93a.334.334 0 0 0 0-.473l-3.07-3.07a.334.334 0 0 0-.473 0l-3.758 3.757a.334.334 0 0 1-.473 0L6.95 2.388a.334.334 0 0 0-.473 0l-3.07 3.07a.334.334 0 0 0 0 .473l3.757 3.757c.13.131.13.343 0 .473L3.405 13.92a.334.334 0 0 0 0 .473l3.07 3.07c.131.13.343.13.474 0l3.757-3.757c.13-.13.342-.13.473 0l3.757 3.757c.131.13.343.13.473 0l3.07-3.07a.334.334 0 0 0 .001-.473Z"/><path fill="#000D44" d="m43.055 20.251.338-.31c2.704-2.478 4.134-5.674 4.027-9a11.251 11.251 0 0 0-3.403-7.712A11.225 11.225 0 0 0 36.134 0c-2.999 0-5.819 1.16-7.95 3.274a11.213 11.213 0 0 0-3.341 8.018c0 .521.156 2.808.223 3.766a.09.09 0 0 1-.07.093 1.552 1.552 0 0 0-1.17 1.965c.535 1.79 2.01 5.675 5.05 7.39l-.856.377a.41.41 0 0 1-.474-.11l-3.64-4.224a3.148 3.148 0 0 0-4.413-.343 3.138 3.138 0 0 0-.734.908c-.349-.123-1.052-.355-1.052-.355-1.018-.335-1.98-.652-2.748-1.14a4.963 4.963 0 0 1-2.218-3.316l1.677 1.678c.202.201.47.313.755.313.285 0 .553-.112.754-.313l3.07-3.07a1.067 1.067 0 0 0 0-1.51l-3.475-3.476 3.476-3.476a1.068 1.068 0 0 0 0-1.509l-3.07-3.07a1.068 1.068 0 0 0-1.51 0l-3.476 3.476L7.466 1.87a1.068 1.068 0 0 0-1.509 0l-3.07 3.07a1.06 1.06 0 0 0-.313.755c0 .285.111.553.313.754l3.476 3.476-3.476 3.477a1.06 1.06 0 0 0-.313.754c0 .285.111.553.313.755l3.07 3.07a1.066 1.066 0 0 0 1.509 0l1.202-1.202a9.105 9.105 0 0 0 4.088 6.299c2.652 1.69 4.903 1.422 8.282 3.775l.495.578a7.952 7.952 0 0 0-.45-.014h-5.271l-1.087-1.248c-1.82-2.092-5.366-.811-5.366 1.98v4.932c0 1.153.938 2.09 2.09 2.09h6.647c.896 0 1.626.73 1.626 1.627v4.849c0 3.148 2.14 6.192 5.325 7.572A9.62 9.62 0 0 0 28.89 50c.868 0 1.756-.108 2.649-.327 2.601-.636 5.212-2.167 7.759-4.552a.732.732 0 1 0-1.001-1.07c-2.361 2.211-4.752 3.624-7.106 4.2-1.966.48-3.89.35-5.562-.376-2.616-1.134-4.443-3.695-4.443-6.228v-4.849a3.095 3.095 0 0 0-3.091-3.091H11.45a.627.627 0 0 1-.627-.626V28.15c0-1.465 1.873-2.081 2.797-1.02l1.112 1.278a1.38 1.38 0 0 0 1.041.474h5.31a6.436 6.436 0 0 1 6.43 6.429v2.487a.732.732 0 1 0 1.464 0v-2.487c0-.77-.113-1.513-.319-2.216a5.546 5.546 0 0 0 2.407-.392l3.87-1.555a.733.733 0 0 0-.547-1.36l-3.868 1.556c-.798.32-1.68.38-2.512.18a7.939 7.939 0 0 0-4.113-3.587l-3.64-4.247a1.665 1.665 0 0 1-.398-1.223c.035-.448.243-.854.585-1.145a1.68 1.68 0 0 1 2.354.184l3.64 4.225a1.871 1.871 0 0 0 2.168.495l7.685-3.373a2.846 2.846 0 0 1 2.211-.022 2.845 2.845 0 0 1 1.566 1.559 2.84 2.84 0 0 1-.008 2.208c-.3.71-.861 1.26-1.583 1.546l-.916.37a.733.733 0 0 0 .274 1.411c.237 0 .308-.077 1.187-.421a4.27 4.27 0 0 0 2.388-2.336 4.294 4.294 0 0 0 .012-3.338 4.299 4.299 0 0 0-2.367-2.356 4.304 4.304 0 0 0-3.346.035l-4.99 2.19c-1.39-.39-2.628-1.4-3.682-3.008-.977-1.492-1.552-3.143-1.808-3.996a.087.087 0 0 1 .068-.11 1.56 1.56 0 0 0 1.232-1.629c-.106-1.516-.22-3.276-.22-3.664a9.759 9.759 0 0 1 2.908-6.978 9.763 9.763 0 0 1 7.005-2.849 9.767 9.767 0 0 1 6.772 2.811 9.793 9.793 0 0 1 2.964 6.712c.093 2.893-1.17 5.688-3.553 7.872l-.342.314a1.597 1.597 0 0 0-.518 1.147c-.01.44.155.855.464 1.168 1.743 1.759 2.826 4.995 2.825 8.445 0 4.134-1.512 8.284-4.257 11.686a.733.733 0 0 0 1.14.92c2.954-3.661 4.581-8.138 4.582-12.606 0-3.88-1.214-7.422-3.249-9.476a.145.145 0 0 1 .007-.207ZM6.712 16.664l-2.508-2.508L7.68 10.68a1.068 1.068 0 0 0 0-1.509L4.204 5.695l2.508-2.508 3.476 3.476a1.068 1.068 0 0 0 1.509 0l3.476-3.476 2.507 2.508-3.476 3.476a1.06 1.06 0 0 0-.312.754c0 .285.11.553.312.755l3.476 3.476-2.507 2.508-3.476-3.477a1.068 1.068 0 0 0-1.51 0l-3.475 3.477Zm6.83 5.178a7.64 7.64 0 0 1-3.513-6.423l.913-.914.29.289a6.429 6.429 0 0 0 2.94 6.06c.922.587 1.969.932 3.08 1.298l.018.006c.367.12.745.246 1.118.38-.01.476.087.94.281 1.364a16.239 16.239 0 0 0-.459-.181c-1.507-.567-3.207-.948-4.667-1.879Z"/><path fill="#000D44" d="M30.685 13.503a1.08 1.08 0 0 1-1.397.209.732.732 0 1 0-.782 1.238c.41.26.88.394 1.357.394a2.55 2.55 0 0 0 1.932-.886.733.733 0 0 0-1.11-.955ZM36.128 16.637a.732.732 0 1 0-.74 1.263c.358.21.75.34 1.162.382 1.663.172 3.164-1.122 3.346-2.884.18-1.746-.999-3.333-2.685-3.507a2.9 2.9 0 0 0-1.766.384.732.732 0 0 0 .737 1.267c.271-.158.575-.225.878-.194.832.086 1.48.91 1.378 1.9-.128 1.24-1.345 1.954-2.31 1.389Z"/></g><defs><clipPath id="a"><path fill="#fff" d="M0 0h50v50H0z"/></clipPath></defs></svg>