<svg xmlns="http://www.w3.org/2000/svg" width="44" height="44" fill="none"><g clip-path="url(#a)"><path fill="#04CE78" d="M42.308 4.232h-2.539V1.693h-3.384v2.539h-2.539v3.384h2.539v2.539h3.384V7.616h2.539V4.232Z"/><path fill="#000D44" d="M39.77 11h-3.385a.846.846 0 0 1-.847-.845V8.462h-1.692A.846.846 0 0 1 33 7.616V4.231c0-.467.379-.846.846-.846h1.692V1.693c0-.467.38-.846.847-.846h3.384c.467 0 .846.379.846.846v1.692h1.693c.467 0 .846.38.846.846v3.385a.846.846 0 0 1-.846.846h-1.693v1.693a.846.846 0 0 1-.846.846Zm-2.54-1.692h1.693V7.616c0-.467.379-.846.846-.846h1.692V5.078H39.77a.846.846 0 0 1-.846-.847V2.54h-1.692v1.692a.846.846 0 0 1-.846.847h-1.693V6.77h1.693c.467 0 .846.379.846.846v1.692Z"/><path fill="#04CE78" d="M7.087 25.174H.847V.846a10.013 10.013 0 0 1 6.24 9.275v15.052Z"/><path fill="#000D44" d="M7.087 26.02H.847a.846.846 0 0 1-.846-.846V.847A.846.846 0 0 1 1.166.062a10.819 10.819 0 0 1 6.77 10.06v15.052a.846.846 0 0 1-.849.846Zm-5.394-1.693h4.548V10.122a9.123 9.123 0 0 0-4.548-7.921v22.126Z"/><path fill="#1F5FFF" d="M.847 25.385h5.077v17.769H.847V25.385Z"/><path fill="#000D44" d="M5.924 44H.847a.846.846 0 0 1-.846-.846V25.385c0-.467.379-.846.846-.846h5.077c.467 0 .846.379.846.846v17.769a.846.846 0 0 1-.846.846Zm-4.23-1.692h3.384V26.23H1.693v16.077Z"/><path fill="#1F5FFF" d="M17.77 38.5a4.654 4.654 0 1 1-9.308 0 4.654 4.654 0 0 1 9.308 0Z"/><path fill="#000D44" d="M13.116 44a5.5 5.5 0 1 1 5.5-5.5 5.507 5.507 0 0 1-5.5 5.5Zm0-9.307a3.808 3.808 0 1 0 0 7.615 3.808 3.808 0 0 0 0-7.615Z"/><path fill="#000D44" d="M17.77 38.923a.846.846 0 0 1-.847-.846V6.77c0-.225.09-.44.248-.598l2.539-2.539a.846.846 0 0 1 1.196 1.197l-2.29 2.29v30.957a.846.846 0 0 1-.846.846Z"/><path fill="#1F5FFF" d="M32.154 38.5a4.654 4.654 0 1 1-9.307 0 4.654 4.654 0 0 1 9.307 0Z"/><path fill="#000D44" d="M27.5 44a5.5 5.5 0 1 1 5.5-5.5 5.507 5.507 0 0 1-5.5 5.5Zm0-9.307a3.808 3.808 0 1 0 0 7.615 3.808 3.808 0 0 0 0-7.615Z"/><path fill="#000D44" d="M22.846 38.923a.846.846 0 0 1-.846-.846V7.12l-2.29-2.29a.846.846 0 0 1 1.196-1.197l2.539 2.539a.846.846 0 0 1 .247.598v31.307a.846.846 0 0 1-.846.846Z"/><path fill="#04CE78" d="m30.462 15.231 12.692 6.77v21.153h-4.23V24.539l-8.462-9.308Z"/><path fill="#000D44" d="M43.154 44h-4.23a.846.846 0 0 1-.847-.846V24.866l-8.241-9.065a.846.846 0 0 1 1.024-1.317l12.692 6.77A.847.847 0 0 1 44 22v21.154a.846.846 0 0 1-.846.846Zm-3.385-1.692h2.539v-19.8l-7.934-4.23 5.175 5.691c.142.156.22.36.22.57v17.769Z"/><path fill="#04CE78" d="M22.846 25.385H17.77V6.77l2.538-2.538 2.538 2.538v18.615Z"/><path fill="#000D44" d="M22.846 26.231H17.77a.846.846 0 0 1-.847-.846V6.77c0-.225.09-.44.248-.598l2.539-2.539a.846.846 0 0 1 1.196 0l2.539 2.539a.846.846 0 0 1 .247.598v18.615a.846.846 0 0 1-.846.846Zm-4.23-1.692H22V7.119l-1.692-1.691-1.692 1.692v17.419Z"/></g><defs><clipPath id="a"><path fill="#fff" d="M0 0h44v44H0z"/></clipPath></defs></svg>