<svg xmlns="http://www.w3.org/2000/svg" width="50" height="50" fill="none"><g clip-path="url(#a)"><path fill="#04CE78" d="M39.84 33.244c0 8.85-7.174 16.024-16.023 16.024-8.85 0-16.024-7.175-16.024-16.024 0-11.626 10.736-25.203 14.632-29.747a1.832 1.832 0 0 1 2.783 0c3.897 4.544 14.633 18.12 14.633 29.747Z"/><path fill="#1F5FFF" d="M25.209 3.497a1.832 1.832 0 0 0-2.784 0 84.23 84.23 0 0 0-.81.96c4.391 5.282 13.82 17.891 13.82 28.787 0 8.102-6.013 14.799-13.82 15.872.72.1 1.454.151 2.202.151 8.85 0 16.024-7.174 16.024-16.023 0-11.626-10.736-25.203-14.633-29.747Z"/><path fill="#F2FBFF" d="M38.472 19.913a9.59 9.59 0 1 0-9.59-9.59 9.59 9.59 0 0 0 9.59 9.59Z"/><path fill="#DFF6FD" d="M38.472.732c-.744 0-1.467.085-2.162.245 4.256.98 7.429 4.793 7.429 9.346s-3.173 8.365-7.429 9.346c.695.16 1.418.244 2.162.244a9.59 9.59 0 0 0 0-19.18Z"/><path fill="#04CE78" d="M43.901 8.054h-3.16v-3.16a.84.84 0 0 0-.84-.84h-2.859a.84.84 0 0 0-.84.84v3.16h-3.16a.84.84 0 0 0-.839.84v2.858c0 .464.376.84.84.84h3.16v3.16c0 .464.376.84.84.84H39.9a.84.84 0 0 0 .84-.84v-3.16h3.16a.84.84 0 0 0 .84-.84V8.893a.84.84 0 0 0-.84-.84Z"/><path fill="#04CE78" d="M44.74 8.894v2.858a.84.84 0 0 1-.84.84h-.432c.177-.728.27-1.488.27-2.269 0-.782-.093-1.542-.27-2.27h.433a.84.84 0 0 1 .84.84Z"/><path fill="#1F5FFF" d="M14.03 32.157c3.323-3.322 3.98-8.053 1.467-10.566S8.253 19.735 4.93 23.058C1.608 26.38.95 31.11 3.464 33.624s7.243 1.856 10.566-1.467Z"/><path fill="#1F5FFF" d="M15.502 21.592c-1.33-1.33-3.282-1.772-5.317-1.4 1.02.206 1.942.667 2.675 1.4 2.514 2.513 1.857 7.245-1.466 10.568-1.565 1.564-3.441 2.538-5.25 2.868 2.477.5 5.537-.514 7.891-2.868 3.323-3.323 3.98-8.055 1.467-10.568ZM23.817 46.144c3.554 0 6.435-3.81 6.435-8.51 0-4.7-2.881-8.51-6.435-8.51s-6.436 3.81-6.436 8.51c0 4.7 2.882 8.51 6.436 8.51Z"/><path fill="#1F5FFF" d="M23.817 29.124c-.452 0-.893.062-1.319.18 2.922.804 5.117 4.228 5.117 8.33 0 4.103-2.195 7.527-5.116 8.331.425.117.866.18 1.318.18 3.554 0 6.435-3.81 6.435-8.51 0-4.7-2.88-8.51-6.435-8.51ZM25.265 22.992c1.24-1.241 1.486-3.008.547-3.947-.938-.939-2.706-.693-3.947.548s-1.486 3.008-.548 3.947c.939.939 2.706.693 3.948-.548Z"/><path fill="#1F5FFF" d="M25.818 19.044c-.696-.695-1.845-.74-2.899-.213.091.063.177.134.257.213.939.94.694 2.707-.548 3.948-.322.322-.68.577-1.049.761.98.676 2.555.375 3.69-.76 1.242-1.242 1.488-3.01.549-3.949Z"/><path fill="#000D44" d="M35.47 13.324v2.428c0 .867.706 1.572 1.572 1.572h2.86c.866 0 1.571-.705 1.571-1.572v-2.428h2.428c.867 0 1.572-.705 1.572-1.572V8.893c0-.866-.705-1.572-1.572-1.572h-2.428V4.894c0-.867-.705-1.572-1.572-1.572h-2.859c-.866 0-1.572.705-1.572 1.572V7.32h-2.427c-.867 0-1.572.706-1.572 1.572v2.86c0 .866.705 1.571 1.572 1.571h2.428Zm-2.535-1.572V8.893c0-.059.049-.107.108-.107h3.16a.732.732 0 0 0 .732-.732v-3.16c0-.06.048-.107.107-.107h2.86c.058 0 .106.048.106.107v3.16c0 .404.328.732.733.732h3.16c.06 0 .107.048.107.107v2.86a.107.107 0 0 1-.107.106h-3.16a.732.732 0 0 0-.733.733v3.16a.107.107 0 0 1-.107.107h-2.859a.107.107 0 0 1-.107-.107v-3.16a.732.732 0 0 0-.732-.733h-3.16a.107.107 0 0 1-.108-.107Z"/><path fill="#000D44" d="M38.472 20.646c5.692 0 10.323-4.631 10.323-10.323S44.164 0 38.472 0c-4.436 0-8.227 2.813-9.685 6.748a91.155 91.155 0 0 0-3.022-3.727 2.564 2.564 0 0 0-3.895 0c-2.648 3.086-7.555 9.27-11.016 16.342-2.248.191-4.63 1.359-6.438 3.178-1.72 1.72-2.83 3.852-3.13 6.005-.309 2.229.282 4.217 1.663 5.599 1.111 1.111 2.615 1.709 4.32 1.74C8.55 43.978 15.547 50 23.818 50c9.24 0 16.756-7.517 16.756-16.756 0-3.168-.778-6.72-2.31-10.556a.732.732 0 0 0-1.361.543c1.464 3.663 2.206 7.031 2.206 10.013 0 8.431-6.86 15.291-15.291 15.291-7.506 0-13.865-5.435-15.082-12.758 2.09-.336 4.149-1.43 5.818-3.1 1.72-1.718 2.83-3.851 3.13-6.004.31-2.229-.282-4.217-1.663-5.599-.939-.939-2.159-1.511-3.543-1.685 3.368-6.669 7.98-12.472 10.504-15.415a1.099 1.099 0 0 1 1.671 0 90.57 90.57 0 0 1 3.652 4.56 10.346 10.346 0 0 0-.155 1.789c0 5.692 4.63 10.323 10.323 10.323Zm-22.24 5.826c-.255 1.839-1.22 3.675-2.715 5.17-2.492 2.579-6.945 3.955-9.532 1.467-2.224-2.224-1.565-6.5 1.467-9.532 1.744-1.701 3.805-2.744 6.1-2.78 1.375 0 2.572.452 3.432 1.313 1.05 1.05 1.493 2.598 1.248 4.362Zm22.24-25.007c4.884 0 8.858 3.973 8.858 8.858 0 4.884-3.974 8.858-8.858 8.858-4.885 0-8.858-3.974-8.858-8.858 0-4.885 3.973-8.858 8.858-8.858Z"/><path fill="#000D44" d="M10.784 22.023c-1.05.146-2.136.581-3.142 1.259a.732.732 0 1 0 .82 1.215c.82-.554 1.694-.908 2.523-1.023.536-.074 1.526-.108 2.135.5.608.61.575 1.6.5 2.135-.174 1.255-.891 2.593-1.967 3.669-1.748 1.71-4.279 2.679-5.804 1.467-.608-.61-.574-1.6-.5-2.135.107-.769.422-1.583.91-2.354a.732.732 0 1 0-1.236-.785c-.6.947-.99 1.963-1.125 2.938-.112.805-.141 2.314.916 3.371 2.488 2.043 5.668.605 7.875-1.467 1.296-1.296 2.165-2.938 2.382-4.503.112-.805.142-2.314-.916-3.371-1.057-1.057-2.566-1.028-3.371-.916ZM18.682 31.175c-1.31 1.734-2.033 4.028-2.033 6.46 0 2.431.723 4.725 2.033 6.459 1.358 1.794 3.181 2.783 5.135 2.783 1.954 0 3.778-.989 5.135-2.784 1.311-1.733 2.033-4.027 2.033-6.459 0-2.431-.722-4.725-2.033-6.459-1.357-1.795-3.18-2.783-5.135-2.783-1.954 0-3.777.988-5.135 2.783Zm5.135-1.318c3.145 0 5.703 3.489 5.703 7.777 0 4.289-2.558 7.778-5.703 7.778-3.144 0-5.703-3.49-5.703-7.778 0-4.288 2.559-7.777 5.703-7.777Z"/><path fill="#000D44" d="M20.785 42.503c.491.649 1.537 1.737 3.032 1.737s2.541-1.088 3.032-1.737c.953-1.26 1.5-3.035 1.5-4.869 0-1.834-.547-3.608-1.5-4.868-.49-.65-1.537-1.737-3.032-1.737s-2.54 1.088-3.031 1.737c-.953 1.26-1.5 3.034-1.5 4.868 0 1.834.547 3.61 1.5 4.87Zm1.169-8.854c.326-.431 1.002-1.156 1.863-1.156.86 0 1.537.725 1.863 1.156.765 1.011 1.203 2.464 1.203 3.985 0 1.522-.438 2.975-1.203 3.986-.326.431-1.002 1.155-1.863 1.155-.86 0-1.537-.724-1.863-1.155-.765-1.011-1.203-2.464-1.203-3.986 0-1.521.438-2.974 1.203-3.985ZM23.283 24.81c.903-.126 1.792-.587 2.505-1.3.712-.712 1.174-1.602 1.299-2.505.136-.978-.131-1.858-.751-2.479-1.223-1.222-3.459-.976-4.984.549-1.525 1.524-1.77 3.76-.548 4.983.515.515 1.208.786 1.988.786.16 0 .324-.012.491-.035Zm-1.443-1.788c-.64-.64-.39-1.974.548-2.912.586-.585 1.325-.903 1.955-.903.378 0 .716.115.957.355.288.288.407.73.336 1.242-.08.58-.403 1.189-.884 1.67-.481.482-1.09.804-1.67.884-.514.072-.954-.048-1.242-.336Z"/></g><defs><clipPath id="a"><path fill="#fff" d="M0 0h50v50H0z"/></clipPath></defs></svg>