<svg xmlns="http://www.w3.org/2000/svg" width="50" height="50" fill="none"><path fill="#04CE78" fill-rule="evenodd" d="m23.812 21.033 5.729 1.59 11.608 3.219 3.138-11.264c1.612-5.786-1.815-11.837-7.613-13.446C30.873-.476 24.811 2.94 23.196 8.728l-1.859 6.68c0 4.08 1.082 5.24 2.475 5.625Z" clip-rule="evenodd"/><path fill="#1F5FFF" fill-rule="evenodd" d="m39.36 13.21-3.138 11.264 4.927 1.368 3.138-11.264c1.612-5.786-1.815-11.838-7.613-13.446-.849-.235-1.7-.363-2.547-.393 4.311 2.397 6.609 7.53 5.233 12.471Z" clip-rule="evenodd"/><path fill="#DDDAEC" fill-rule="evenodd" d="m41.149 25.842-4.927-1.368-3.138 11.264c-.84 3.02-2.894 5.396-5.49 6.746a10.795 10.795 0 0 1-1.466 2.536c5.28.645 10.418-2.657 11.883-7.914l3.138-11.264Z" clip-rule="evenodd"/><path fill="#1F5FFF" fill-rule="evenodd" d="M14.573 12.48c-5.116 0-9.261 4.138-9.261 9.242a9.24 9.24 0 0 0 5.074 8.247c3.449 1.534 7.685 1.495 10.907-1.885a9.2 9.2 0 0 0 2.519-7.05 9.192 9.192 0 0 0-2.475-5.626 9.244 9.244 0 0 0-6.764-2.929Z" clip-rule="evenodd"/><path fill="#B1E4F9" fill-rule="evenodd" d="m17.453 38.332 10.756 2.129a10.938 10.938 0 0 0-6.916-12.377 10.938 10.938 0 0 0-3.3-.681 10.992 10.992 0 0 0-7.607 2.566 10.73 10.73 0 0 0-2.208 2.533l9.275 5.83ZM26.728 44.165l-9.286-4.632L6.699 36.21a10.938 10.938 0 0 0 6.7 12.282c1.326.526 2.697.778 4.043.778h.019a10.997 10.997 0 0 0 9.267-5.104Z" clip-rule="evenodd"/><path fill="#04CE78" fill-rule="evenodd" d="M16.856 12.764c2.123 2.265 4.847 10.523-.458 14.678a10.944 10.944 0 0 1 4.894.642 9.2 9.2 0 0 0 2.52-7.05 9.192 9.192 0 0 0-2.475-5.626 9.259 9.259 0 0 0-4.48-2.644ZM26.728 44.165l-5.175-2.057c-.105.352-.219.692-.347 1.03-.94 2.513-2.463 4.64-4.358 6.115.197.01.397.016.594.016h.02a10.997 10.997 0 0 0 9.266-5.104Z" clip-rule="evenodd"/><path fill="#04CE78" fill-rule="evenodd" d="m22.239 38.089 5.97 2.372a10.938 10.938 0 0 0-6.7-12.294l-.216-.083a10.778 10.778 0 0 0-2.128-.56c.369.488.71 1.006 1.02 1.554 1.31 2.306 2.076 5.107 2.076 8.127 0 .297-.006.59-.022.884Z" clip-rule="evenodd"/><path fill="#04CE78" fill-rule="evenodd" d="m28.21 40.46-11.55-4.589-8.482-3.369a10.945 10.945 0 0 0-1.479 3.707L19.012 41.1l7.715 3.065a11.11 11.11 0 0 0 1.482-3.704Z" clip-rule="evenodd"/><path fill="#04CE78" fill-rule="evenodd" d="m21.553 42.108 5.175 2.057a11.117 11.117 0 0 0 1.482-3.704l-5.972-2.373a16.87 16.87 0 0 1-.685 4.02Z" clip-rule="evenodd"/><path fill="#000D44" d="M43.902 5.937a11.588 11.588 0 0 0-7.03-5.51h-.002c-6.202-1.72-12.653 1.916-14.38 8.105l-1.535 5.518a9.963 9.963 0 0 0-6.382-2.303 10.01 10.01 0 0 0-6.514 2.41.733.733 0 0 0 .954 1.112 8.544 8.544 0 0 1 5.56-2.057c4.704 0 8.531 3.818 8.531 8.51a8.454 8.454 0 0 1-2.031 5.51c-3.773-1.228-7.785-.425-10.763 1.862a8.473 8.473 0 0 1-4.266-7.372c0-1.378.32-2.696.953-3.915a.732.732 0 1 0-1.3-.674 9.874 9.874 0 0 0-1.118 4.59c0 3.428 1.73 6.555 4.577 8.384a11.6 11.6 0 0 0-2.566 3.904 11.579 11.579 0 0 0 .121 8.927 11.603 11.603 0 0 0 6.418 6.234c1.414.562 2.874.828 4.31.828 3.46 0 6.782-1.542 9.008-4.211a11.753 11.753 0 0 0 7.456-1.901 11.635 11.635 0 0 0 4.814-6.586l1.187-4.266a.732.732 0 0 0-1.41-.392l-1.188 4.265c-1.23 4.415-5.335 7.447-9.844 7.456.327-.54.615-1.112.856-1.717a11.57 11.57 0 0 0-.117-8.922 11.596 11.596 0 0 0-5.702-5.925 9.905 9.905 0 0 0 2.066-5.799l15.682 4.35-.83 2.978a.732.732 0 1 0 1.411.393l4.165-14.949a11.55 11.55 0 0 0-1.09-8.837ZM26.957 42.105c-.159.398-.34.781-.542 1.147L7.553 35.76a10.376 10.376 0 0 1 .937-2.346l18.863 7.495c-.107.403-.239.802-.396 1.196ZM13.67 47.811a10.149 10.149 0 0 1-5.614-5.453 10.131 10.131 0 0 1-.775-5.13l18.318 7.277c-2.71 3.557-7.569 5.038-11.93 3.306Zm13.185-13.506c.708 1.644.965 3.404.772 5.136l-18.324-7.28a10.283 10.283 0 0 1 8.163-4.038 10.2 10.2 0 0 1 3.772.725 10.156 10.156 0 0 1 5.617 5.457ZM43.581 14.38l-2.941 10.56-16.15-4.48a9.928 9.928 0 0 0-2.341-5.239L23.9 8.925c1.51-5.412 7.154-8.59 12.577-7.087a10.134 10.134 0 0 1 6.149 4.82 10.093 10.093 0 0 1 .954 7.723Z"/><path fill="#000D44" d="M16.937 21.552a.732.732 0 1 0 0-1.464h-.02a.732.732 0 0 0 0 1.464h.02ZM14.864 25.536h.02a.732.732 0 1 0 0-1.465h-.02a.732.732 0 1 0 0 1.465ZM10.952 22.613a.733.733 0 0 0 0-1.465h-.022a.732.732 0 0 0 0 1.465h.022ZM13.635 16.39h-.02a.732.732 0 1 0 0 1.464h.02a.732.732 0 0 0 0-1.465Z"/></svg>