<svg xmlns="http://www.w3.org/2000/svg" width="50" height="50" fill="none"><g clip-path="url(#a)"><path fill="#04CE78" d="M49.167 20v10a10.883 10.883 0 0 0-8.5 5A20 20 0 0 1 7.1 36.667C3.333 35 .833 31.442.833 25s2.5-10 6.25-11.667A20 20 0 0 1 40.667 15a10.884 10.884 0 0 0 8.5 5Z"/><path fill="#1F5FFF" d="M40.667 15A20 20 0 0 0 23.333 5H22.05a20 20 0 0 1 16.117 10 10.883 10.883 0 0 0 8.5 5v10a10.884 10.884 0 0 0-8.5 5A20 20 0 0 1 22.05 45h1.283a20 20 0 0 0 17.334-10 10.884 10.884 0 0 1 8.5-5V20a10.883 10.883 0 0 1-8.5-5Z"/><path fill="#04CE78" d="M15.833 25c0 4.6-2.05 8.333-4.583 8.333a2.149 2.149 0 0 1-.417 0c-1.666-.258-3.025-2.075-3.708-4.633.22.296.558.479.925.5C9.167 29.167 10 27.3 10 25c0-2.3-.833-4.167-1.933-4.167a1.242 1.242 0 0 0-.925.5c.683-2.558 2.066-4.375 3.691-4.666.133-.013.267-.013.4 0 2.55 0 4.6 3.733 4.6 8.333Z"/><path fill="#1F5FFF" d="M11.25 16.667a2.165 2.165 0 0 0-.417 0 2.893 2.893 0 0 0-.833.291c1.925 1 3.333 4.167 3.333 8.009 0 3.841-1.4 7.008-3.333 8.008.257.163.538.283.833.358.133.013.267.013.4 0 2.5 0 4.584-3.733 4.584-8.333s-2.034-8.333-4.567-8.333ZM10 25c0 2.3-.833 4.167-1.933 4.167a1.242 1.242 0 0 1-.925-.5 14.391 14.391 0 0 1 0-7.334c.219-.295.558-.478.925-.5C9.167 20.833 10 22.7 10 25ZM49.167 23.333v3.334h-4.759a8.267 8.267 0 0 0-7.5 4.716 13.814 13.814 0 0 1-.975 1.75c-1.025-1.141-1.766-4.316-1.766-8.05 0-3.733.766-7.025 1.825-8.125.343.535.649 1.091.916 1.667a8.267 8.267 0 0 0 7.5 4.717l4.759-.009Z"/><path fill="#04CE78" d="M46.667 23.333h2.5v3.334h-2.5v-3.334Z"/><path fill="#fff" d="M34.167 25.084c0 3.733.741 6.908 1.766 8.05a15 15 0 0 1-25.1.2c.133.012.267.012.4 0 2.5 0 4.584-3.734 4.584-8.334s-2.05-8.333-4.584-8.333a2.155 2.155 0 0 0-.4 0 15 15 0 0 1 25.142.258c-1.042 1.133-1.808 4.358-1.808 8.159Z"/><path fill="#1F5FFF" d="M35 25.175v-.058A.422.422 0 0 0 35 25a.833.833 0 0 0-.658-.975c-1.609-.333-3.509-1.133-3.509-3.192a10.191 10.191 0 0 0-.366-2.883.569.569 0 0 0 0-.058c-.8-2.55-2.825-3.725-6.3-3.725a.833.833 0 1 0 0 1.666c2.091 0 3.416.425 4.166 1.459a4.834 4.834 0 0 0-3.65 1.741c-.082.098-.171.19-.266.275a2.017 2.017 0 0 1-3.017 0 .833.833 0 1 0-1.15 1.2 3.741 3.741 0 0 0 2.625 1.159 4 4 0 0 0 2.7-1.159c.108-.1.217-.216.333-.341a3.408 3.408 0 0 1 3.1-1.217c.115.621.168 1.252.159 1.883 0 2.042 1.233 3.592 3.416 4.392A8.843 8.843 0 0 0 30 27.183c-1.667-1.016-3.983-.275-4.942.117l-2.125-1.342a.835.835 0 1 0-.883 1.417l1.667 1.033-.975 1.017a.833.833 0 0 0 0 1.183c.16.15.372.231.591.225.23.002.45-.092.609-.258l1.55-1.667c.758-.35 2.5-.908 3.558-.35a6.96 6.96 0 0 0-.717 2.142 5.083 5.083 0 0 1-2.183 3.517 3.767 3.767 0 0 1-3.333 0 .834.834 0 1 0-.617 1.55 6.426 6.426 0 0 0 2.417.5 4.8 4.8 0 0 0 2.366-.609A6.725 6.725 0 0 0 30 30.967c.458-2.767 2.683-4.1 4.458-4.734A.833.833 0 0 0 35 25.175Z"/><path fill="#000D44" d="M49.167 19.167a10.108 10.108 0 0 1-7.775-4.559 20.833 20.833 0 0 0-34.825-1.95C2.208 14.675 0 18.825 0 25c0 6.175 2.208 10.325 6.567 12.342a20.833 20.833 0 0 0 34.825-1.95 10.108 10.108 0 0 1 7.775-4.559c.46 0 .833-.373.833-.833V20a.833.833 0 0 0-.833-.833Zm-9.225 15.391a19.167 19.167 0 0 1-32.167 1.667.834.834 0 0 0-.4-.3C3.583 34.167 1.667 30.517 1.667 25s1.908-9.167 5.675-10.833a.833.833 0 0 0 .433-.317 19.167 19.167 0 0 1 32.167 1.667 11.825 11.825 0 0 0 8.391 5.316V22.5h-3.925a7.45 7.45 0 0 1-6.741-4.233 15.925 15.925 0 0 0-14.334-9.1 15.758 15.758 0 0 0-12.983 6.8c-2.592.7-4.517 4.416-4.517 9.033 0 4.617 1.925 8.333 4.517 9.033a15.833 15.833 0 0 0 27.317-2.3 7.45 7.45 0 0 1 6.741-4.233h3.925v1.667a11.825 11.825 0 0 0-8.391 5.391Zm8.391-8.725h-3.925a9.167 9.167 0 0 0-8.25 5.192c-.066.142-.15.283-.216.417-.68-2.05-.998-4.2-.942-6.359a18.475 18.475 0 0 1 .975-6.466c.058.116.125.233.183.358a9.167 9.167 0 0 0 8.25 5.192h3.925v1.666ZM8.067 21.667c.266 0 1.1 1.15 1.1 3.333 0 2.183-.834 3.333-1.1 3.333a.475.475 0 0 1-.2-.116 14.291 14.291 0 0 1 0-6.434.475.475 0 0 1 .2-.116ZM10.833 25c0-2.65-.975-4.633-2.375-4.95.709-1.608 1.784-2.55 2.792-2.55 1.808 0 3.75 3.017 3.75 7.5 0 4.483-1.942 7.5-3.75 7.5-1.008 0-2.058-.942-2.792-2.55 1.4-.317 2.375-2.3 2.375-4.95Zm5.834 0c0-4.483-1.809-8.108-4.284-8.967a14.167 14.167 0 0 1 22.617.9c-1.008 1.567-1.667 4.634-1.667 8.15 0 3.517.609 6.475 1.584 8.059a14.258 14.258 0 0 1-11.584 6.025 14.108 14.108 0 0 1-10.95-5.2c2.475-.859 4.284-4.492 4.284-8.967Z"/></g><defs><clipPath id="a"><path fill="#fff" d="M0 0h50v50H0z"/></clipPath></defs></svg>