<svg xmlns="http://www.w3.org/2000/svg" width="50" height="50" fill="none"><g clip-path="url(#a)"><path fill="#04CE78" d="m35.876 30.25-2.335-3.716a1.113 1.113 0 0 1-.01-1.168l.873-1.444c1.248-2.063 1.635-4.548 1.011-6.877C33.532 10.01 27.111 4.83 19.482 4.83h-5.507C6.67 4.83.747 10.743.732 18.044c-.006 3.05 1.073 6.003 2.974 8.389l2.417 3.033c.623.78.862 1.8.654 2.776L4.143 44.58a.488.488 0 0 0 .478.59h13.826a.488.488 0 0 0 .48-.4l1.088-5.87 8.188 1.575a2.364 2.364 0 0 0 2.84-1.706l1.095-4.226c.087-.337.312-.622.62-.784l2.534-1.334a1.536 1.536 0 0 0 .584-2.177Z"/><path fill="#1F5FFF" d="m20.012 38.92-2.332-.448a.418.418 0 0 0-.49.334l-1.18 6.365h2.437a.488.488 0 0 0 .48-.4l1.085-5.85ZM35.876 30.25l-2.335-3.716a1.113 1.113 0 0 1-.01-1.168l.873-1.444a8.922 8.922 0 0 0 .986-6.969c-1.776-6.482-7.41-11.37-14.279-12.044a16.525 16.525 0 0 1 11.532 11.54 8.92 8.92 0 0 1-.988 6.965l-.873 1.444c-.218.36-.214.812.01 1.168l2.335 3.715c.476.758.207 1.76-.584 2.177l-2.534 1.334a1.236 1.236 0 0 0-.62.784l-1.095 4.226a2.364 2.364 0 0 1-2.408 1.768l2.317.446a2.364 2.364 0 0 0 2.84-1.706l1.095-4.226c.087-.337.312-.622.62-.784l2.534-1.334a1.536 1.536 0 0 0 .584-2.177Z"/><path fill="#F9DBEB" d="M13.713 21.442v4.263a3.725 3.725 0 0 1-1.168 2.71l-.468.44a3.965 3.965 0 0 0-1.243 2.884v4.06h2.88V33.43c0-1.522.924-2.897 2.346-3.487L18.336 29a3.782 3.782 0 0 0 2.347-3.487v-6.688l-6.97 2.618Z"/><path fill="#fff" d="M19.304 21.037h7.114c3.317 0 5.364-3.685 2.995-5.58.368-3.37-2.766-5.529-4.542-5.266-1.145-2.106-5.357-2.738-7.042-1.737-2.106-1.685-7.266-.369-8.53 2.211-2.21.527-4.738 3.37-3.843 5.792-2.685 2.264.527 9.688 5.266 8.634 2.843 1.159 8.476 1.106 8.582-4.054Z"/><path fill="#1F5FFF" d="M12.823 25.627c2.88.371 6.398-.522 6.48-4.59h-1.619a.73.73 0 0 0-.724.645c-.308 2.551-2.124 3.661-4.137 3.945ZM29.413 15.456c.368-3.37-2.766-5.528-4.542-5.265-1.038-1.91-4.599-2.607-6.51-1.974 2.029.317 4.299 1.367 4.699 2.755 1.776-.263 4.91 1.896 4.542 5.266 2.369 1.895.16 4.8-3.483 4.8h2.3c3.316 0 5.363-3.686 2.994-5.582Z"/><path fill="#04CE78" d="M49.279 21.344a1.606 1.606 0 1 0-3.197-.318 1.606 1.606 0 0 0 3.197.318ZM41.046 24.96a1.606 1.606 0 1 0-3.197-.317 1.606 1.606 0 0 0 3.197.318ZM44.261 16.713a1.606 1.606 0 1 0-3.196-.318 1.606 1.606 0 0 0 3.196.318Z"/><path fill="#000D44" d="m23.668 38.857-3.514-.676a.733.733 0 0 0-.859.586l-1.162 6.27a.732.732 0 0 0 1.44.267l1.028-5.545 2.79.537a.733.733 0 0 0 .277-1.439ZM21.415 25.513V21.77h5.003c2.041 0 3.909-1.26 4.541-3.065.461-1.313.165-2.615-.789-3.554.068-1.594-.537-3.082-1.725-4.226-.943-.908-2.145-1.458-3.189-1.486-.626-.844-1.69-1.502-3.05-1.877-1.57-.432-3.199-.405-4.315.048-1.12-.661-2.773-.824-4.535-.429-2.041.457-3.747 1.538-4.55 2.862-1.447.46-2.89 1.685-3.668 3.138-.557 1.042-.73 2.091-.507 3.064-.721.833-1.015 2.044-.831 3.47a.733.733 0 0 0 1.453-.187c-.102-.786-.008-1.473.258-1.979 1.386 1.166 3.4 1.608 5.249.869a.732.732 0 0 0-.544-1.36c-1.59.636-3.273-.011-4.108-.964-.262-.84.025-1.667.322-2.222.626-1.17 1.838-2.176 2.968-2.475h.298a2.41 2.41 0 0 1 2.407 2.408v.29a2.642 2.642 0 0 0 2.639 2.638h.97a.732.732 0 1 0 0-1.465h-.97a1.175 1.175 0 0 1-1.174-1.174v-.29a3.878 3.878 0 0 0-2.884-3.743c.716-.65 1.786-1.18 2.992-1.45 1.36-.305 2.63-.213 3.421.232v1.844a3.07 3.07 0 0 0 3.066 3.066h1.823a.732.732 0 1 0 0-1.465h-1.823a1.603 1.603 0 0 1-1.601-1.6V8.922c.805-.28 2.089-.269 3.255.052 1.165.32 2.044.892 2.41 1.566.147.27.447.42.751.375.562-.083 1.568.214 2.451 1.065.528.508 1.373 1.585 1.272 3.195l-.494.63a2.77 2.77 0 0 1-2.192 1.067h-.623a.732.732 0 1 0 0 1.465h.623a4.226 4.226 0 0 0 3.344-1.627l.097-.123c.371.617.253 1.255.121 1.632-.352 1.004-1.49 2.085-3.159 2.085h-7.114a.733.733 0 0 0-.733.717c-.03 1.45-.552 2.52-1.553 3.178-1.488.978-3.865.926-5.564.378v-1.993a2.292 2.292 0 0 1 2.29-2.29h1.61a.732.732 0 1 0 0-1.464h-1.61a3.759 3.759 0 0 0-3.755 3.754v1.87c-1.852.101-3.107-1.362-3.588-2.046a.732.732 0 1 0-1.198.843c1.403 1.992 3.426 2.95 5.451 2.6a9.595 9.595 0 0 0 2.25.52 3.006 3.006 0 0 1-.862 1.51l-.468.44a4.715 4.715 0 0 0-1.473 3.417v4.06a.732.732 0 1 0 1.465 0v-4.06c0-.886.37-1.743 1.014-2.35l.467-.442a4.479 4.479 0 0 0 1.339-2.52c2.89-.12 5.105-1.569 5.564-4.413v3.499c0 1.23-.744 2.332-1.895 2.81l-2.275.944a4.504 4.504 0 0 0-2.799 4.164v2.368a.732.732 0 1 0 1.465 0V33.43c0-1.23.744-2.334 1.895-2.811l2.275-.944a4.503 4.503 0 0 0 2.799-4.163Z"/><path fill="#000D44" d="M47.661 18.83a2.342 2.342 0 0 0-2.22 1.606h-.33l-.918-2.144a2.333 2.333 0 0 0 .791-1.752c0-1.29-1.049-2.338-2.339-2.338a2.341 2.341 0 0 0-2.338 2.338c0 .724.33 1.372.848 1.801l-1.607 4.108a2.336 2.336 0 0 0-.737.081l-1.163-1.764a.733.733 0 0 0-.612-.33h-.67a9.426 9.426 0 0 0-.243-3.58C34.11 9.344 27.268 4.096 19.48 4.096h-5.507C6.268 4.097 0 10.367 0 18.07c0 3.152 1.082 6.244 3.046 8.709l2.504 3.143c.488.612.674 1.401.51 2.167L3.3 45.018a.732.732 0 1 0 1.434.305l2.76-12.929a4.054 4.054 0 0 0-.798-3.385l-2.505-3.143a12.555 12.555 0 0 1-2.726-7.796c0-6.897 5.611-12.508 12.508-12.508h5.508c7.125 0 13.386 4.8 15.227 11.673.562 2.1.223 4.4-.93 6.308l-.874 1.444c-.363.6-.357 1.343.017 1.937l2.335 3.715c.12.192.155.418.096.636a.796.796 0 0 1-.402.503l-2.533 1.334c-.49.258-.85.713-.988 1.248l-1.095 4.226a1.64 1.64 0 0 1-1.992 1.17l-1.314-.252a.732.732 0 1 0-.277 1.439l1.299.25a3.112 3.112 0 0 0 3.702-2.24l1.095-4.226a.504.504 0 0 1 .252-.319l2.534-1.334c.557-.294.97-.81 1.134-1.419a2.275 2.275 0 0 0-.27-1.795l-2.336-3.716a.379.379 0 0 1-.003-.4l.873-1.443a9.775 9.775 0 0 0 1.04-2.4h.57l.952 1.443a2.326 2.326 0 0 0-.5 1.44c0 1.29 1.05 2.34 2.34 2.34 1.29 0 2.338-1.05 2.338-2.34 0-.727-.334-1.378-.856-1.807l1.604-4.101c.109.005.206.005.328-.006l1.108 2.587c.115.27.38.444.673.444h.812a2.342 2.342 0 0 0 2.221 1.607c1.29 0 2.339-1.05 2.339-2.34 0-1.289-1.05-2.338-2.339-2.338Zm-8.228 6.829a.875.875 0 0 1 0-1.748.875.875 0 0 1 0 1.748Zm3.212-9.992a.875.875 0 0 1 0 1.748.875.875 0 0 1 0-1.748Zm5.016 6.376a.875.875 0 0 1 0-1.748.875.875 0 0 1 0 1.748Z"/></g><defs><clipPath id="a"><path fill="#fff" d="M0 0h50v50H0z"/></clipPath></defs></svg>