<svg xmlns="http://www.w3.org/2000/svg" width="70" height="70" fill="none"><g clip-path="url(#a)"><path fill="#C6A875" d="M3.566 47.111v19.675c0 1.005.814 1.82 1.819 1.82H7.81a1.82 1.82 0 0 0 1.82-1.82V47.111H3.565Z"/><path fill="#B5915D" d="M8.112 68.578h.001a1.818 1.818 0 0 1-1.515-1.792V47.111H3.566v19.675c0 1.005.814 1.82 1.819 1.82 2.537 0 2.492.012 2.727-.028Z"/><path fill="#AA9A79" d="M11.449 25.07v20.668c0 1.005-.814 1.82-1.82 1.82H3.567a1.819 1.819 0 0 1-1.82-1.82V22.393c0-1.005.815-1.82 1.82-1.82H9.63c1.004 0 1.819.815 1.819 1.82v2.678Z"/><path fill="#A08D70" d="M6.598 45.738V22.393c0-1.005.814-1.82 1.819-1.82H3.566c-1.005 0-1.82.815-1.82 1.82v23.345c0 1.005.815 1.82 1.82 1.82h4.85a1.819 1.819 0 0 1-1.818-1.82Z"/><path fill="#C6A875" d="M11.448 25.072H1.747v17.99h9.701v-17.99Z"/><path fill="#B5915D" d="M6.598 25.072H1.747v17.99h4.85v-17.99Z"/><path fill="#B0DCF7" d="M64.098 14.346c-1.953-2.043-4.038-3.185-5.041-3.5v.003c-5.198-2.201-10.92-1.197-15.623 1.924-2.016-1.338-4.2-2.276-6.438-2.75-.742-.122-1.232.337-1.344.992-.84 2.86-4.072 4.255-6.723 2.92-1.211-.614-1.456.504-1.653.694a7.547 7.547 0 0 1-6.003 3.359v.003s-1.17-.029-1.573.903c-4.384 9.403-.713 21.938 8.092 28.043-1.992 15.38 7.359 28.662 7.943 17.566.098-1.819-.44-10.616 5.402-12.304h.002c1.502-.453 2.982-.485 4.59 0h.002c1.686.486 3.455 1.988 4.4 4.507.056.156.119.353.119.353 1.418 4.457.407 7.249 1.28 10 1.892 5.949 9.344-6.232 7.545-20.122 10.659-7.389 13.38-23.712 5.023-32.591Z"/><path fill="#7AC1DD" d="M30.671 47.107c.091-1.708-.975-2.53-.975-2.53l.001-.002c-7.762-6.202-11.07-17.713-7.142-26.747a7.562 7.562 0 0 1-1.282.16v.003s-1.17-.029-1.573.903c-4.4 9.44-.684 21.958 8.092 28.043-1.857 14.339 6.157 26.9 7.718 19.451-2.3-2.13-5.438-9.331-4.839-19.28Z"/><path fill="#BBE6FC" d="M64.098 14.346c-1.953-2.043-4.038-3.185-5.041-3.5v.003C54.107 8.752 48.564 9.533 43.84 12.51c-5.33 15.807.965 33.291 15.362 42.036.224-2.4.216-4.974-.125-7.61 10.658-7.389 13.379-23.712 5.022-32.591Z"/><path fill="#DBDADF" d="M14.54 3.396V6.12a2.043 2.043 0 0 1-2.043 2.044H7.586A2.043 2.043 0 0 1 5.542 6.12V3.396c0-1.128.915-2.043 2.044-2.043h4.91c1.129 0 2.044.915 2.044 2.043Z"/><path fill="#B8BFC1" d="M12.497 4.974H7.586a2.043 2.043 0 0 1-2.03-1.81c-.019.172-.013-.012-.013 2.956 0 1.129.915 2.043 2.043 2.043h4.911A2.043 2.043 0 0 0 14.54 6.12c0-2.966.006-2.785-.014-2.956a2.043 2.043 0 0 1-2.03 1.81Z"/><path fill="#231F20" d="m68.454 19.505.003.006c-.832-2.141-2.238-4.41-4.05-6.201a1.025 1.025 0 0 0-1.508 1.387c.124.136.632.607 1.268 1.415 6.704 8.464 4.103 23.164-5.755 30a1.024 1.024 0 0 0-.432.973c1.465 11.312-3.393 20.502-5.066 20.504-.137 0-.401-.479-.563-1.113-.607-2.345.136-6.174-1.334-10.112-2.584-7.4-12.734-7.42-15.319.016-1.434 4.089-.743 7.785-1.328 10.098-.283 1.08-.563 1.111-.563 1.111-1.636-.002-6.543-9.107-5.066-20.504.049-.38-.118-.755-.433-.974-7.281-5.048-11.008-14.839-8.93-23.36.336-1.368.672-2.184.992-2.968.207-.468.248-.716.822-.74.066.002.132-.001.196-.01a8.6 8.6 0 0 0 6.92-4.2c3.894 1.792 7.458-.51 8.263-3.525.024-.082.044-.19.089-.25.136-.013 3.025.534 6.134 2.598.343.228.79.228 1.133 0 5.538-3.676 11.737-3.779 16.346-.976 1.098.664 2.382-.996.866-1.869-5.189-3.02-11.845-2.907-17.779.773-2.21-1.37-4.69-2.273-6.268-2.542-1.3-.215-2.229.64-2.45 1.543-.564 2.286-3.111 3.563-5.332 2.457-1.163-.595-2.265-.151-2.678.593-.044.08-.09.157-.137.234a1.029 1.029 0 0 0-.06.116c-.12.136-1.725 2.873-5.266 3.005-1.09.047-2.042.541-2.468 1.508a20.376 20.376 0 0 0-1.323 3.806c-2.175 8.881 1.454 19.393 9.256 25.13-1.214 10.904 3.2 22.2 7.171 22.204 3.354 0 2.78-6.223 3.022-8.685.305-3.253 1.385-6.842 4.522-7.755 3.826-1.094 6.726.777 7.849 4.184 1.335 4.176.339 7.048 1.28 9.996.624 1.966 1.793 2.26 2.436 2.26 3.942 0 8.396-11.22 7.172-22.204 8.847-6.504 12.153-19.09 8.368-27.93Z"/><path fill="#231F20" d="M19.413 5.815a1.025 1.025 0 1 0 0-2.05h-3.911V3.43A3.07 3.07 0 0 0 12.435.36h-4.91A3.07 3.07 0 0 0 4.458 3.43v.336H2.742C1.366 3.765.007 4.801.007 6.86c0 5.846-.06 5.62.17 5.97l4.456 6.745H3.507a2.847 2.847 0 0 0-2.843 2.843v23.337c0 1.206.756 2.237 1.818 2.65v18.39a2.847 2.847 0 0 0 2.844 2.844H7.75a2.847 2.847 0 0 0 2.844-2.843V56.145a1.025 1.025 0 1 0-2.05 0v10.65a.795.795 0 0 1-.794.794H5.326a.795.795 0 0 1-.794-.793V48.598h4.012v4.267a1.025 1.025 0 1 0 2.05 0v-4.461a2.846 2.846 0 0 0 1.818-2.65V31.278a1.025 1.025 0 1 0-2.05 0v10.776H2.714V26.12h7.648v1.695a1.025 1.025 0 1 0 2.05 0v-5.397a2.847 2.847 0 0 0-2.843-2.843h-2.48l-5.032-7.618V6.86c0-.873.356-1.023.712-1.045h1.69v.337a3.07 3.07 0 0 0 3.067 3.067h4.909a3.07 3.07 0 0 0 3.067-3.067v-.337h3.91Zm-9.05 38.288v1.652a.795.795 0 0 1-.794.794H3.507a.795.795 0 0 1-.794-.794v-1.652h7.65Zm0-21.685v1.652h-7.65v-1.652c0-.438.357-.794.794-.794H9.57c.437 0 .793.356.793.794Zm3.09-16.266c0 .56-.457 1.017-1.018 1.017h-4.91a1.019 1.019 0 0 1-1.017-1.017V3.429c0-.562.456-1.018 1.017-1.018h4.91c.56 0 1.017.456 1.017 1.018v2.723Z"/></g><defs><clipPath id="a"><path fill="#fff" d="M0 0h70v70H0z"/></clipPath></defs></svg>