<svg xmlns="http://www.w3.org/2000/svg" width="70" height="70" fill="none"><path fill="#99A2A7" d="M35 8.75 3.281 6.562v8.75L35 13.126h2.188V8.75H35Z"/><path fill="#E8EDF1" d="M29.538 53.594H9.85c-3.202-4.307-5.616-8.345-5.469-12.032a8.39 8.39 0 0 1 1.017-3.577 6.553 6.553 0 0 1 8.982-2.656l2.127 1.182a6.563 6.563 0 0 0 6.374 0l2.126-1.182a6.55 6.55 0 0 1 8.983 2.656 8.388 8.388 0 0 1 1.016 3.578c.148 3.686-2.266 7.724-5.468 12.03Z"/><path fill="#E8EDF1" d="M60.156 53.594H40.47c-3.202-4.307-5.617-8.345-5.469-12.032a8.39 8.39 0 0 1 1.017-3.577 6.553 6.553 0 0 1 8.982-2.656l2.126 1.182a6.563 6.563 0 0 0 6.374 0l2.127-1.182a6.55 6.55 0 0 1 8.982 2.656 8.39 8.39 0 0 1 1.017 3.578c.148 3.686-2.267 7.724-5.469 12.03Z"/><path fill="#04CE78" d="M7.656 53.594h54.688a4.375 4.375 0 0 1 4.375 4.375v8.75H3.28v-8.75a4.375 4.375 0 0 1 4.375-4.375Z"/><path fill="#A4D4F4" d="M65.625 31.719a8.688 8.688 0 0 0-4.375 7.656 8.687 8.687 0 0 0-4.375-7.656 8.689 8.689 0 0 0 4.375-7.657 8.687 8.687 0 0 0 4.375 7.657ZM13.125 50.313a8.688 8.688 0 0 0-4.375 7.656 8.688 8.688 0 0 0-4.375-7.657 8.688 8.688 0 0 0 4.375-7.656 8.688 8.688 0 0 0 4.375 7.657Z"/><path fill="#B5B8B9" d="M41.563 3.281a6.562 6.562 0 0 1 6.562 6.563v6.562H35V9.844a6.563 6.563 0 0 1 6.563-6.563Z"/><path fill="#99A2A7" d="M39.375 16.406h4.375v4.375h-4.375v-4.375Z"/><path fill="#E8EDF1" d="M39.375 20.781h4.375a2.187 2.187 0 0 1 2.188 2.188v6.562h-8.75V22.97a2.188 2.188 0 0 1 2.187-2.188Z"/><path fill="#D9DBDD" d="M37.188 25.156h8.75v4.375h-8.75v-4.375Z"/><path fill="#B5B8B9" d="M17.5 7.543v6.79l-14.219.98v-8.75l14.219.98Z"/><path fill="#000D44" d="M2.535 5.763a1.094 1.094 0 0 0-.348.8v8.75a1.094 1.094 0 0 0 1.17 1.09l30.55-2.106v2.11A1.094 1.094 0 0 0 35 17.5h3.281v2.376a3.287 3.287 0 0 0-2.187 3.093v6.562a1.094 1.094 0 0 0 1.093 1.094h8.75a1.094 1.094 0 0 0 1.094-1.094V22.97a3.286 3.286 0 0 0-2.187-3.093V17.5h3.281a1.094 1.094 0 0 0 1.094-1.094V9.844a7.656 7.656 0 0 0-14.977-2.242L3.356 5.472a1.089 1.089 0 0 0-.821.29Zm36.84 16.112h4.375a1.094 1.094 0 0 1 1.094 1.094v1.094H38.28v-1.094a1.095 1.095 0 0 1 1.094-1.094Zm-1.094 6.563V26.25h6.563v2.188H38.28Zm4.375-8.75H40.47V17.5h2.187v2.188Zm-6.562-9.844a5.469 5.469 0 1 1 10.937 0v5.469H36.094v-5.47Zm-2.188 0v2.26L18.594 13.16V8.715L33.908 9.77l-.002.073ZM4.375 7.734l12.031.83v4.747l-12.031.83V7.734Z"/><path fill="#000D44" d="M62.344 52.5h-.046c2.516-3.589 4.566-7.338 4.42-10.981a9.497 9.497 0 0 0-1.141-4.042 7.579 7.579 0 0 0-1.984-2.403 7.39 7.39 0 0 1 2.525-2.379 1.095 1.095 0 0 0 0-1.952c-.153-.08-3.774-1.989-3.774-6.68a1.094 1.094 0 0 0-2.188 0c0 4.691-3.62 6.6-3.77 6.678a1.097 1.097 0 0 0-.005 1.954c.415.228.803.503 1.156.818a7.662 7.662 0 0 0-2.442.86l-2.127 1.182a5.437 5.437 0 0 1-5.311 0l-2.127-1.182a7.644 7.644 0 0 0-10.482 3.104l-.045.09-.045-.09a7.646 7.646 0 0 0-10.482-3.104l-2.126 1.182a5.437 5.437 0 0 1-5.312 0l-2.127-1.182A7.644 7.644 0 0 0 4.43 37.477a9.497 9.497 0 0 0-1.141 4.042c-.082 2.049.536 4.307 1.882 6.882a6.51 6.51 0 0 1-1.285.934 1.096 1.096 0 0 0-.005 1.954 7.086 7.086 0 0 1 1.889 1.547 5.478 5.478 0 0 0-3.582 5.133v8.75a1.094 1.094 0 0 0 1.093 1.094H66.72a1.093 1.093 0 0 0 1.094-1.094v-8.75a5.474 5.474 0 0 0-5.47-5.469ZM61.25 28.697a9.884 9.884 0 0 0 2.45 3.022 9.883 9.883 0 0 0-2.45 3.021 9.883 9.883 0 0 0-2.45-3.021 9.884 9.884 0 0 0 2.45-3.022Zm-25.157 12.91a7.338 7.338 0 0 1 .892-3.113 5.377 5.377 0 0 1 3.25-2.67 5.445 5.445 0 0 1 4.233.461l2.126 1.182a7.61 7.61 0 0 0 7.437 0l2.126-1.182a5.43 5.43 0 0 1 3.072-.675 7.735 7.735 0 0 1 .927 3.765 1.094 1.094 0 0 0 2.188 0 8.14 8.14 0 0 1 .299-2.22c.4.392.736.843.998 1.339.525.958.83 2.021.892 3.112.078 1.957-.458 4.783-4.93 10.894H41.022c-2.568-3.498-5.065-7.47-4.928-10.894ZM38.327 52.5H31.68c1.319-1.881 2.51-3.807 3.323-5.739.813 1.932 2.004 3.858 3.324 5.739ZM5.474 41.606a7.335 7.335 0 0 1 .892-3.112 5.377 5.377 0 0 1 3.25-2.67 5.447 5.447 0 0 1 4.234.461l2.126 1.182a7.61 7.61 0 0 0 7.436 0l2.127-1.182a5.439 5.439 0 0 1 4.233-.461 5.377 5.377 0 0 1 3.25 2.67c.526.958.83 2.021.892 3.112.078 1.957-.458 4.783-4.93 10.894H12.043a6.842 6.842 0 0 1 1.575-1.211 1.095 1.095 0 0 0 0-1.952c-.153-.08-3.774-1.989-3.774-6.68a1.094 1.094 0 0 0-2.188 0 7.723 7.723 0 0 1-.979 3.86c-.864-1.855-1.26-3.473-1.203-4.91Zm3.276 5.685a9.884 9.884 0 0 0 2.45 3.022 9.884 9.884 0 0 0-2.45 3.021 9.883 9.883 0 0 0-2.45-3.022 9.883 9.883 0 0 0 2.45-3.021Zm56.875 18.334H4.375v-7.656A3.287 3.287 0 0 1 7 54.754a7.856 7.856 0 0 1 .656 3.215 1.094 1.094 0 0 0 2.188 0c-.011-1.13.223-2.25.685-3.282h51.815a3.285 3.285 0 0 1 3.281 3.282v7.656Z"/><path fill="#000D44" d="M41.563 47.031a1.095 1.095 0 0 0 .875-1.75c-.958-1.275-1.363-2.42-1.208-3.4a2.552 2.552 0 0 1 .95-1.603l-.003.002a1.094 1.094 0 0 0-1.221-1.815l-.002.001-.007.005c-.99.721-1.66 1.8-1.868 3.008-.275 1.604.266 3.325 1.609 5.115a1.09 1.09 0 0 0 .875.437Z"/></svg>