<svg xmlns="http://www.w3.org/2000/svg" width="44" height="44" fill="none"><g fill="#1F5FFF" clip-path="url(#a)"><path d="M40.92 24.659 39.78 20.1a.689.689 0 0 0 .546-.674v-.735a2.897 2.897 0 0 0-2.894-2.893h-5.19v-1.516c0-.785-.638-1.423-1.424-1.423h-9.65l5.864-2.346a.689.689 0 0 0-.511-1.28l-4.802 1.921c1.463-.939 2.91-1.972 3.462-2.695a3.212 3.212 0 0 0-.605-4.496 3.212 3.212 0 0 0-4.498.605c-.783 1.028-1.818 3.916-2.487 5.952-.67-2.035-1.704-4.924-2.488-5.952a3.212 3.212 0 0 0-4.497-.605 3.212 3.212 0 0 0-.605 4.496c.55.723 1.998 1.756 3.462 2.695L8.66 9.235a.689.689 0 1 0-.512 1.279l5.865 2.346h-9.65c-.786 0-1.425.638-1.425 1.423v12.493a.689.689 0 0 0 1.378 0V14.283c0-.025.02-.046.046-.046h26.455c.026 0 .046.021.046.046v12.493a.689.689 0 1 0 1.378 0v-.78H40.373c1 0 1.85.657 2.14 1.56h-2.142a.689.689 0 0 0-.688.69v1.47c0 1.19.968 2.158 2.158 2.158h.781v3.032h-1.801a4.37 4.37 0 0 0-4.124-2.94 4.37 4.37 0 0 0-4.123 2.94h-.332v-5.19a.69.69 0 0 0-1.378 0v5.19H16.57a4.37 4.37 0 0 0-4.123-2.94 4.37 4.37 0 0 0-4.124 2.94h-3.96a.046.046 0 0 1-.046-.047v-1.515h2.986a.689.689 0 1 0 0-1.378H.689a.689.689 0 0 0 0 1.378h2.25v1.515c0 .786.64 1.424 1.424 1.424h3.722l-.001.046a4.368 4.368 0 0 0 4.363 4.363 4.368 4.368 0 0 0 4.363-4.363l-.001-.046h15.526l-.001.046a4.368 4.368 0 0 0 4.363 4.363 4.368 4.368 0 0 0 4.363-4.363v-.046h2.25a.689.689 0 0 0 .69-.689v-7.348a3.634 3.634 0 0 0-3.08-3.587ZM14.859 10.404c-2.718-1.69-3.524-2.466-3.763-2.78a1.833 1.833 0 0 1 1.454-2.94 1.83 1.83 0 0 1 1.458.72c.666.875 1.71 3.816 2.399 5.935a76.161 76.161 0 0 1-1.548-.936Zm3.916.935c.69-2.12 1.733-5.06 2.4-5.934a1.833 1.833 0 0 1 2.565-.346c.803.612.957 1.763.345 2.566-.238.313-1.044 1.09-3.762 2.778-.512.318-1.028.63-1.548.936Zm13.467 5.838h5.19c.836 0 1.516.68 1.516 1.515v.046h-6.706v-1.561Zm0 7.44v-4.5h6.122l1.125 4.5h-7.247ZM12.447 39.315a2.989 2.989 0 0 1-2.986-2.986 2.989 2.989 0 0 1 2.986-2.985 2.989 2.989 0 0 1 2.985 2.985 2.989 2.989 0 0 1-2.985 2.986Zm24.25 0a2.989 2.989 0 0 1-2.985-2.986 2.989 2.989 0 0 1 2.985-2.985 2.989 2.989 0 0 1 2.986 2.985 2.989 2.989 0 0 1-2.986 2.986Zm5.925-8.819h-.78c-.431 0-.782-.35-.782-.78v-.781h1.562v1.561Z"/><path d="M12.447 34.905c-.785 0-1.424.64-1.424 1.424 0 .785.639 1.424 1.424 1.424.785 0 1.424-.639 1.424-1.424 0-.785-.64-1.424-1.424-1.424Zm24.25 0c-.785 0-1.424.64-1.424 1.424 0 .785.64 1.424 1.424 1.424.785 0 1.424-.639 1.424-1.424 0-.785-.639-1.424-1.424-1.424Zm-8.083-2.94H18.326a.69.69 0 0 0 0 1.379h10.288a.689.689 0 1 0 0-1.378Zm-17.637-2.939H2.16a.689.689 0 0 0 0 1.378h8.818a.689.689 0 1 0 0-1.378Zm0-10.288h-2.94a.689.689 0 0 0-.688.69v5.878a.69.69 0 0 0 1.378 0v-2.25h1.515a.69.69 0 0 0 0-1.378H8.727v-1.562h2.25a.689.689 0 0 0 0-1.378Zm5.422 4.64a2.525 2.525 0 0 0-1.38-4.64h-1.837a.689.689 0 0 0-.69.69v5.878a.69.69 0 0 0 1.379 0v-1.515h1.146l1.266 1.897a.688.688 0 1 0 1.146-.764l-1.03-1.545Zm-1.38-.965H13.87v-2.297h1.148a1.15 1.15 0 0 1 0 2.297ZM22 24.617h-2.25v-1.564l.045.003h1.47a.69.69 0 0 0 0-1.378h-1.47l-.046.002v-1.564H22a.69.69 0 0 0 0-1.378h-2.94a.689.689 0 0 0-.688.69v5.878a.69.69 0 0 0 .689.69H22a.69.69 0 0 0 0-1.379Zm5.144 0h-2.25v-1.561h.78a.689.689 0 0 0 0-1.378h-.78v-1.562h2.25a.689.689 0 0 0 0-1.378h-2.94a.69.69 0 0 0-.688.69v5.878a.69.69 0 0 0 .689.69h2.94a.69.69 0 0 0 0-1.379Z"/></g><defs><clipPath id="a"><path fill="#fff" d="M0 0h44v44H0z"/></clipPath></defs></svg>