<svg width="44" height="44" fill="none" xmlns="http://www.w3.org/2000/svg"><g clip-path="url(#a)" fill="#1F5FFF"><path d="M40.91 19.183a18.784 18.784 0 0 0-5.524-12.7A18.806 18.806 0 0 0 22 .936C11.791.936 3.45 9.06 3.09 19.183a4.45 4.45 0 0 0-2.648 4.064v4.993a4.452 4.452 0 0 0 4.447 4.447 2.88 2.88 0 0 0 2.877-2.878v-8.132a2.872 2.872 0 0 0-2.595-2.85C5.707 10.01 13.048 2.999 22 2.999a16.76 16.76 0 0 1 11.928 4.944c2.928 2.927 4.64 6.743 4.899 10.886a2.871 2.871 0 0 0-2.592 2.849v8.132a2.87 2.87 0 0 0 2.63 2.851v2.055a4.202 4.202 0 0 1-4.197 4.197H31.56a3.092 3.092 0 0 0-2.933-2.089h-3.205a3.126 3.126 0 0 0-3.12 3.12c0 .835.325 1.618.914 2.205.59.59 1.373.916 2.206.916h3.204a3.133 3.133 0 0 0 2.936-2.09h3.106a6.266 6.266 0 0 0 6.26-6.259v-2.422a4.45 4.45 0 0 0 2.63-4.055v-4.992a4.45 4.45 0 0 0-2.648-4.063ZM5.703 21.677v8.132a.816.816 0 0 1-.815.814 2.387 2.387 0 0 1-2.384-2.384v-4.993a2.387 2.387 0 0 1 2.384-2.384c.45 0 .815.366.815.815ZM29.66 40.164a1.063 1.063 0 0 1-1.036.838h-3.203a1.05 1.05 0 0 1-.749-.312c-.2-.198-.31-.464-.31-.746a1.06 1.06 0 0 1 1.059-1.057h3.203c.282 0 .547.11.748.312a1.047 1.047 0 0 1 .288.965ZM41.495 28.24a2.387 2.387 0 0 1-2.384 2.384.816.816 0 0 1-.814-.814v-8.132c0-.45.364-.815.814-.815a2.387 2.387 0 0 1 2.384 2.384v4.993Z"/><path d="M28.678 28.595c2.41 0 4.37-1.961 4.37-4.37V15.32a4.34 4.34 0 0 0-1.282-3.088 4.34 4.34 0 0 0-3.088-1.282H15.322c-2.41 0-4.37 1.96-4.37 4.37v8.904c0 2.41 1.96 4.37 4.37 4.37h.082v2.307a2.137 2.137 0 0 0 2.14 2.148c.561 0 1.108-.223 1.51-.638l3.838-3.817h5.786Zm-6.938-1.763-4.154 4.13c-.018.02-.032.035-.071.017-.048-.019-.048-.05-.048-.077v-3.339c0-.569-.461-1.031-1.031-1.031h-1.113a2.31 2.31 0 0 1-2.307-2.307V15.32a2.31 2.31 0 0 1 2.307-2.307h13.355c.615 0 1.193.24 1.63.677a2.29 2.29 0 0 1 .678 1.63v8.904a2.31 2.31 0 0 1-2.308 2.307h-6.21c-.273 0-.535.108-.728.3Z"/><path d="M16.99 18.416c-.839 0-1.521.683-1.521 1.521 0 .838.683 1.522 1.521 1.522.84 0 1.523-.683 1.523-1.521 0-.839-.683-1.522-1.523-1.522ZM22 18.416c-.84 0-1.522.683-1.522 1.521 0 .838.683 1.522 1.521 1.522.84 0 1.523-.683 1.523-1.521 0-.839-.683-1.522-1.523-1.522ZM27.008 18.416c-.838 0-1.521.683-1.521 1.521 0 .838.683 1.522 1.521 1.522.84 0 1.523-.683 1.523-1.521 0-.839-.683-1.522-1.523-1.522Z"/></g><defs><clipPath id="a"><path fill="#fff" d="M0 0h44v44H0z"/></clipPath></defs></svg>