<svg xmlns="http://www.w3.org/2000/svg" width="44" height="44" fill="none"><path fill="#1F5FFF" d="M41.938 37.813h-2.75V15.942a4.124 4.124 0 0 0 2.062-3.567V8.937a.818.818 0 0 0-.098-.354l-4.125-6.875a.688.688 0 0 0-.59-.333H10.314a.688.688 0 0 0-.59.333L5.598 8.583a.818.818 0 0 0-.098.354v3.438a4.125 4.125 0 0 0 2.063 3.567v2.62a.687.687 0 0 0 1.375 0v-2.124a4.081 4.081 0 0 0 4.124-1.787 4.12 4.12 0 0 0 6.876 0 4.12 4.12 0 0 0 6.875 0 4.12 4.12 0 0 0 6.875 0 4.081 4.081 0 0 0 4.124 1.787v21.375h-13.75V19.25a.687.687 0 0 0-.687-.688H13.75a.687.687 0 0 0-.688.688v1.21a.687.687 0 1 0 1.376 0v-.523h8.25v17.875h-8.25V36.17a.687.687 0 1 0-1.376 0v1.644H9.825c1.828-2.076 5.301-6.519 5.301-10.313a6.875 6.875 0 1 0-13.75 0c0 3.794 3.473 8.237 5.3 10.313H4.814a.687.687 0 0 0-.688.687v3.438a.687.687 0 0 0 .688.687h37.124a.687.687 0 0 0 .688-.688V38.5a.687.687 0 0 0-.688-.688ZM39.347 8.25h-5.195l-2.2-5.5h4.095l3.3 5.5Zm-18.874-5.5-1.1 5.5H14.08l2.2-5.5h4.194Zm1.402 0h2.998l1.1 5.5h-5.198l1.1-5.5Zm5.5 5.5-1.1-5.5h4.194l2.2 5.5h-5.294Zm-16.674-5.5h4.095l-2.2 5.5H7.402l3.3-5.5ZM9.625 15.125a2.75 2.75 0 0 1-2.75-2.75v-2.75h5.5v2.75a2.75 2.75 0 0 1-2.75 2.75Zm6.875 0a2.75 2.75 0 0 1-2.75-2.75v-2.75h5.5v2.75a2.75 2.75 0 0 1-2.75 2.75Zm6.875 0a2.75 2.75 0 0 1-2.75-2.75v-2.75h5.5v2.75a2.75 2.75 0 0 1-2.75 2.75Zm6.875 0a2.75 2.75 0 0 1-2.75-2.75v-2.75H33v2.75a2.75 2.75 0 0 1-2.75 2.75Zm4.125-2.75v-2.75h5.5v2.75a2.75 2.75 0 1 1-5.5 0ZM8.25 22a5.506 5.506 0 0 1 5.5 5.5c0 3.706-4.073 8.452-5.5 10.001-1.427-1.549-5.5-6.295-5.5-10.001a5.506 5.506 0 0 1 5.5-5.5Zm33 19.25H5.5v-2.063h35.75v2.063Z"/><path fill="#1F5FFF" d="M11.688 27.5a3.438 3.438 0 1 0-6.876 0 3.438 3.438 0 0 0 6.875 0Zm-5.5 0a2.063 2.063 0 1 1 4.125 0 2.063 2.063 0 0 1-4.126 0ZM35.75 26.813a.687.687 0 0 0 .688-.688V19.25a.687.687 0 0 0-.688-.688h-9.625a.687.687 0 0 0-.688.688v6.875a.687.687 0 0 0 .688.688h9.625Zm-8.938-3.438h3.438v2.063h-3.438v-2.063Zm4.813 2.063v-2.063h3.438v2.063h-3.438ZM35.063 22h-3.438v-2.063h3.438V22Zm-4.813-2.063V22h-3.438v-2.063h3.438ZM22 27.5v-.688a.687.687 0 1 0-1.375 0v.688a.687.687 0 1 0 1.375 0Z"/></svg>