<svg xmlns="http://www.w3.org/2000/svg" width="44" height="44" fill="none"><path fill="#1F5FFF" d="M41.987 28.713a.687.687 0 0 0-.9.092c-2.763 2.96-6.314 5.3-10.27 6.765-6.412 2.375-13.88 2.169-19.65-.514l.557-1.787a.687.687 0 0 0-.656-.892c-3.503 0-6.54-.549-8.328-1.508a.689.689 0 0 0-1.012.579c-.164 4.19 3.434 9.139 6.04 11.314a.688.688 0 0 0 1.097-.323l.398-1.276a25.502 25.502 0 0 0 10.272 2.15 25.46 25.46 0 0 0 8.88-1.602 25.562 25.562 0 0 0 13.783-12.118.687.687 0 0 0-.211-.88Zm-14.05 11.708c-6.174 2.288-12.852 1.993-18.804-.828a.686.686 0 0 0-.95.416l-.31.99c-1.991-1.968-4.34-5.382-4.722-8.434 2.244.872 5.026 1.12 6.986 1.174l-.46 1.474a.688.688 0 0 0 .35.82c3.091 1.547 6.71 2.431 10.467 2.558a28.598 28.598 0 0 0 10.8-1.732 28.849 28.849 0 0 0 6.833-3.633 24.197 24.197 0 0 1-10.19 7.195ZM8.017 26.038 21.65 34.06a.686.686 0 0 0 .697 0l13.634-8.023a.688.688 0 0 0 .34-.593V9.398a.688.688 0 0 0-.34-.592L22.348.782a.687.687 0 0 0-.697 0L8.016 8.806a.688.688 0 0 0-.338.592v16.047a.687.687 0 0 0 .338.593ZM9.052 10.6l12.259 7.215v14.451l-12.26-7.214V10.601Zm17.786 3.176L14.562 6.55l2.598-1.53 12.279 7.226-2.598 1.53Zm3.267-.327v4.724l-2.579 1.517v-4.723l2.579-1.518Zm-4.622 1.124-3.485 2.051L9.721 9.398l3.484-2.05 12.279 7.225Zm-2.797 17.694V17.815l3.465-2.04v5.117a.687.687 0 0 0 1.036.593l3.954-2.327a.687.687 0 0 0 .339-.592V12.64l3.465-2.04v14.452l-12.26 7.215Zm-.688-30.095 12.28 7.226-3.486 2.051-12.278-7.226 3.484-2.05Z"/></svg>