<svg width="22" height="22" fill="none" xmlns="http://www.w3.org/2000/svg"><path d="m18.205 10.645-1.625.097M19.603 11.936c.771 0 1.397-.621 1.397-1.387 0-.767-.625-1.388-1.397-1.388s-1.398.621-1.398 1.388c0 .766.626 1.387 1.398 1.387ZM17.263 14.742l-1.073-1.065M18.991 16.913a1.38 1.38 0 0 0 .464-1.906 1.403 1.403 0 0 0-1.92-.46 1.38 1.38 0 0 0-.464 1.905c.402.654 1.262.86 1.92.46ZM17.198 6.58 16.125 7.84M19.212 6.393a1.38 1.38 0 0 0-.248-1.946 1.404 1.404 0 0 0-1.96.245 1.38 1.38 0 0 0 .247 1.946c.61.47 1.487.36 1.96-.245ZM5.466 10.935l-1.625-.032M2.486 12.264a1.393 1.393 0 0 0 1.353-1.432A1.393 1.393 0 0 0 2.397 9.49a1.393 1.393 0 0 0-1.353 1.431c.025.767.67 1.368 1.442 1.343ZM5.954 13.839l-1.04 1.129M5.258 16.532a1.383 1.383 0 0 0-.738-1.82c-.71-.3-1.53.028-1.833.733-.303.705.028 1.52.738 1.82.71.3 1.53-.028 1.833-.733ZM5.856 8.032 4.719 6.806M4.675 6.86a1.38 1.38 0 0 0 .184-1.954 1.405 1.405 0 0 0-1.967-.183 1.38 1.38 0 0 0-.185 1.953c.493.59 1.374.672 1.968.183ZM12.908 2.903c0 .549-.227 1.29-.585 1.903-.325.549-.78.936-1.3.936-.487 0-.942-.42-1.3-.936-.357-.58-.585-1.354-.585-1.87C9.138 1.838 9.983 1 11.023 1s1.885.839 1.885 1.903ZM8.683 13.71v-2.645M8.683 13.71h-.585a.857.857 0 0 1-.845-.839l.033-3.613a2.566 2.566 0 0 1 2.177-2.484c.098 0 .195-.032.293-.032.325.548.78.935 1.3.935.487 0 .942-.419 1.3-.935.097 0 .195.032.292.032a2.592 2.592 0 0 1 2.177 2.484l.033 3.516a.974.974 0 0 1-.975.968h-.487M11.023 20.097V16" stroke="#fff" stroke-miterlimit="10" stroke-linecap="round" stroke-linejoin="round"/><path d="M13.363 10.839v9a1.16 1.16 0 0 1-1.17 1.16 1.16 1.16 0 0 1-1.17-1.16m0 0v-3.84m0 3.84a1.16 1.16 0 0 1-1.17 1.16 1.16 1.16 0 0 1-1.17-1.16v-9" stroke="#fff" stroke-miterlimit="10" stroke-linecap="round" stroke-linejoin="round"/></svg>