<svg xmlns="http://www.w3.org/2000/svg" xmlns:xlink="http://www.w3.org/1999/xlink" width="30" height="31" fill="none" xmlns:v="https://vecta.io/nano"><g fill="#1f5fff"><path d="M9.021 7.989v3.354h1.149V9.128a17.15 17.15 0 0 1-1.149-1.14zm10.742.925v2.429h1.216V7.739l-1.216 1.175zm0 11.921v4.377h-.005c-.09 2.539-2.19 4.579-4.758 4.579a4.76 4.76 0 0 1-4.758-4.579h-.005v-4.377H9.021v4.207C9.021 28.327 11.704 31 15 31a5.98 5.98 0 0 0 5.98-5.958v-4.207h-1.216z"/><path d="M10.237 20.835H6.926v-.032H5.98c-2.626 0-4.763-2.13-4.763-4.746s2.137-4.746 4.763-4.746h4.19v-1.212H5.98c-3.297 0-5.98 2.673-5.98 5.958s2.683 5.958 5.979 5.958h4.257v-1.18zm13.784-10.736h-4.257v1.212h4.258c2.625 0 4.763 2.13 4.763 4.746s-2.137 4.746-4.763 4.746h-1.554v.032h-2.703v1.177h4.258c3.296 0 5.979-2.673 5.979-5.958s-2.683-5.955-5.979-5.955z"/></g><g fill="#04ce78"><use xlink:href="#B"/><path d="M11.336 23.817c1.056-1.052 1.056-2.757 0-3.809a2.71 2.71 0 0 0-3.823 0c-1.056 1.052-1.056 2.757 0 3.809a2.71 2.71 0 0 0 3.823 0z"/></g><use xlink:href="#B" fill="#1f5fff"/><path d="M15.185 10.737v6.746c0 2.072 1.469 3.756 3.549 3.756l5.083.067M13.874 1.168l-.728-.047c-3.104-.207-4.873 3.586-2.623 5.724l.19.17 4.187 3.791m1.712-9.75l.728-.047c3.104-.207 4.873 3.586 2.623 5.724l-.19.17-4.187 3.791" stroke="#1f5fff" stroke-width="1.3" stroke-miterlimit="10" stroke-linecap="round" stroke-linejoin="round"/><defs ><path id="B" d="M9.494 25.548c-2.012 0-3.649-1.631-3.649-3.636s1.637-3.636 3.649-3.636 3.649 1.631 3.649 3.636-1.637 3.636-3.649 3.636zm0-6.06c-1.342 0-2.433 1.087-2.433 2.424s1.091 2.424 2.433 2.424 2.433-1.087 2.433-2.424-1.091-2.424-2.433-2.424z"/></defs></svg>