<svg xmlns="http://www.w3.org/2000/svg" width="51" height="51" fill="none"><path fill="#04CE78" fill-rule="evenodd" d="M32.914 32.988h9.71a7.71 7.71 0 0 0 7.709-7.706 7.703 7.703 0 0 0-7.71-7.705h-9.709V7.872A7.703 7.703 0 0 0 25.205.167a7.705 7.705 0 0 0-7.12 4.757 7.695 7.695 0 0 0-.584 2.948l-.005 9.705H7.793a7.71 7.71 0 0 0-7.709 7.705 7.704 7.704 0 0 0 7.71 7.706H17.5v9.704a7.703 7.703 0 0 0 7.707 7.9 7.713 7.713 0 0 0 7.176-4.892c.376-.957.556-1.98.53-3.008v-9.704Z" clip-rule="evenodd"/></svg>