<svg xmlns="http://www.w3.org/2000/svg" width="105" height="106" fill="none"><path fill="#1F5FFF" fill-rule="evenodd" d="M52.357 13.175c3.25 0 6.368 1.292 8.667 3.59a12.25 12.25 0 0 1 3.59 8.663V40.86h15.441c3.251 0 6.368 1.292 8.667 3.59a12.25 12.25 0 0 1-8.667 20.915H64.613V80.8c0 3.25-1.29 6.366-3.59 8.664a12.261 12.261 0 0 1-20.927-8.664V65.364H24.654a12.262 12.262 0 0 1-8.619-3.616 12.25 12.25 0 0 1 8.619-20.89h15.442V25.425c0-3.25 1.292-6.366 3.592-8.664a12.264 12.264 0 0 1 8.669-3.588m0-12.244a24.548 24.548 0 0 0-17.323 7.183 24.524 24.524 0 0 0-7.19 17.313v3.19h-3.19a24.515 24.515 0 0 0-17.26 7.213 24.492 24.492 0 0 0 0 34.567 24.515 24.515 0 0 0 17.26 7.214h3.19v3.188a24.49 24.49 0 0 0 7.18 17.323 24.512 24.512 0 0 0 26.71 5.311 24.513 24.513 0 0 0 13.265-13.258 24.49 24.49 0 0 0 1.866-9.376v-3.189h3.19a24.515 24.515 0 0 0 17.26-7.214 24.49 24.49 0 0 0 0-34.567 24.515 24.515 0 0 0-17.26-7.213h-3.19v-3.189a24.52 24.52 0 0 0-7.187-17.312A24.544 24.544 0 0 0 52.357.929Z" clip-rule="evenodd"/></svg>