<svg xmlns="http://www.w3.org/2000/svg" width="78" height="77" fill="none"><path fill="#04CE78" fill-rule="evenodd" d="M39.138 9.208a8.997 8.997 0 0 1 8.308 5.55c.452 1.09.684 2.259.684 3.439v11.322h11.33a8.998 8.998 0 0 1 8.307 5.55 8.983 8.983 0 0 1-1.949 9.795 8.994 8.994 0 0 1-6.358 2.633H48.13V58.82a8.982 8.982 0 0 1-2.633 6.356 8.992 8.992 0 0 1-15.35-6.356V47.498h-11.33a8.996 8.996 0 0 1-6.36-2.633 8.987 8.987 0 0 1 6.36-15.346h11.33V18.197a8.986 8.986 0 0 1 5.55-8.305 8.997 8.997 0 0 1 3.441-.684Zm0-8.983a18.005 18.005 0 0 0-12.707 5.27 17.987 17.987 0 0 0-5.272 12.702v2.34h-2.342a17.985 17.985 0 0 0-12.654 5.298 17.968 17.968 0 0 0 0 25.35 17.985 17.985 0 0 0 12.654 5.297h2.342v2.34c0 4.767 1.894 9.338 5.266 12.708a17.984 17.984 0 0 0 25.427 0 17.967 17.967 0 0 0 5.266-12.707v-2.341h2.341c4.77 0 9.343-1.894 12.715-5.264a17.968 17.968 0 0 0 0-25.417 17.985 17.985 0 0 0-12.715-5.264h-2.341v-2.34a17.988 17.988 0 0 0-5.272-12.703A18.004 18.004 0 0 0 39.138.224Z" clip-rule="evenodd"/></svg>