<svg xmlns="http://www.w3.org/2000/svg" width="52" height="51" fill="none"><path fill="#1F5FFF" fill-rule="evenodd" d="M33.73 32.816h9.71a7.713 7.713 0 0 0 7.122-4.757 7.702 7.702 0 0 0-4.172-10.067 7.711 7.711 0 0 0-2.95-.587h-9.71V7.701a7.703 7.703 0 0 0-7.708-7.706 7.706 7.706 0 0 0-7.12 4.757 7.694 7.694 0 0 0-.585 2.949l-.005 9.704H8.608A7.71 7.71 0 0 0 .9 25.111a7.703 7.703 0 0 0 7.71 7.705h9.708v9.705a7.7 7.7 0 0 0 4.712 7.294A7.711 7.711 0 0 0 33.2 45.528c.376-.957.556-1.98.53-3.007v-9.705Z" clip-rule="evenodd"/></svg>