<svg xmlns="http://www.w3.org/2000/svg" width="78" height="78" fill="none"><path fill="#04CE78" fill-rule="evenodd" d="M39.192 9.554a8.996 8.996 0 0 1 8.308 5.549c.452 1.09.684 2.26.684 3.44v11.322h11.33a8.997 8.997 0 0 1 8.307 5.55 8.985 8.985 0 0 1-1.949 9.795 8.994 8.994 0 0 1-6.359 2.633H48.184v11.323a8.985 8.985 0 0 1-5.55 8.305 8.997 8.997 0 0 1-9.8-1.949 8.988 8.988 0 0 1-2.634-6.356V47.844H18.87a8.987 8.987 0 1 1 0-17.979H30.2V18.543a8.986 8.986 0 0 1 5.55-8.305 8.996 8.996 0 0 1 3.442-.684Zm0-8.983a18.005 18.005 0 0 0-12.708 5.27 17.988 17.988 0 0 0-5.271 12.702v2.34H18.87a17.985 17.985 0 0 0-12.654 5.298 17.968 17.968 0 0 0 0 25.35 17.985 17.985 0 0 0 12.654 5.297h2.342v2.34c0 4.767 1.894 9.338 5.266 12.708a17.984 17.984 0 0 0 25.426 0 17.967 17.967 0 0 0 5.266-12.707v-2.341h2.342c4.77 0 9.343-1.894 12.715-5.264a17.968 17.968 0 0 0 0-25.417 17.985 17.985 0 0 0-12.715-5.264h-2.342v-2.34A17.987 17.987 0 0 0 51.9 5.84 18.004 18.004 0 0 0 39.192.57Z" clip-rule="evenodd"/></svg>