<svg xmlns="http://www.w3.org/2000/svg" width="80" height="78" fill="none"><path fill="#000D44" d="M6.297 58.945v4.237H3.095v-4.237H0v11.712h3.095v-4.89h3.202v4.89h3.095V58.945H6.297Zm10.991 11.952c3.416 0 5.892-2.76 5.892-6.107 0-3.368-2.476-6.107-5.892-6.107-3.436 0-5.911 2.737-5.911 6.107 0 3.347 2.475 6.107 5.911 6.107Zm0-2.911c-1.175 0-2.39-.696-2.39-3.217 0-2.52 1.217-3.173 2.39-3.173 1.13 0 2.37.653 2.37 3.173s-1.237 3.217-2.37 3.217Zm14.259-5.91.383-2.718c-.769-.283-2.05-.65-3.35-.65-1.75 0-4.1.65-4.1 3.433 0 2.15 1.388 2.89 3.927 3.998.79.347 1.388.61 1.388 1.194 0 .566-.576.717-1.195.717-.832 0-1.985-.26-3.671-.89l-.491 2.847c1.857.803 3.33.87 4.012.87 3.032 0 4.483-1.284 4.483-3.564 0-2.064-1.196-3.064-3.651-3.998-1.133-.434-1.942-.63-1.942-1.174 0-.5.684-.74 1.473-.74.942 0 1.944.348 2.734.674Zm7.279-3.131h-4.312v11.712h3.117V67.05c3.415 0 5.956-.696 5.956-4.324 0-2.715-1.624-3.781-4.761-3.781Zm-1.195 5.671v-3.434h.982c.704 0 1.922 0 1.922 1.651 0 1.763-.706 1.783-2.904 1.783Zm11.058-5.671h-3.117v11.712h3.117V58.945Zm10.542 0h-9.199v2.587h3.052v9.127h3.095v-9.127h3.052v-2.587Zm7.964 11.714h3.756l-3.95-11.712h-3.735l-3.8 11.712h3.757l.597-2.63h2.754l.62 2.63Zm-2.82-5.216.685-3.087h.17l.747 3.087h-1.601Zm10.951-6.498H72.21v11.712H80v-2.586h-4.674v-9.126Z"/><path fill="#04CE78" d="M45.016 76.178c0-.153-.023-.283-.086-.37a.961.961 0 0 0-.235-.283c-.085-.066-.193-.11-.298-.153-.108-.043-.236-.11-.406-.153a2.87 2.87 0 0 0-.364-.13 1.096 1.096 0 0 1-.278-.153.826.826 0 0 1-.192-.196.609.609 0 0 1-.063-.283c0-.108.02-.197.063-.283.065-.065.128-.13.193-.174a.685.685 0 0 1 .255-.11 1.259 1.259 0 0 1 .556-.023c.085.024.15.044.236.088a.394.394 0 0 1 .15.173.735.735 0 0 1 .085.26h.32a1.05 1.05 0 0 0-.127-.413 1.005 1.005 0 0 0-.278-.26c-.108-.044-.213-.087-.341-.11-.108-.043-.236-.043-.363-.043-.128 0-.256.02-.384.066a1.137 1.137 0 0 0-.363.174c-.085.086-.17.173-.236.303a.748.748 0 0 0-.085.39c0 .154.02.284.108.391.063.13.15.217.278.304.105.066.213.13.34.174.129.066.279.11.47.173a.98.98 0 0 1 .192.066c.15.044.278.13.384.217a.517.517 0 0 1 .128.37c0 .11-.023.217-.063.304a.553.553 0 0 1-.193.196.683.683 0 0 1-.256.13c-.107.02-.193.044-.298.044-.108 0-.236-.023-.32-.044a.623.623 0 0 1-.279-.11.52.52 0 0 1-.17-.196c-.043-.11-.085-.216-.085-.326h-.321c0 .13.022.26.085.37.043.13.128.24.213.326.108.087.213.153.32.197.129.043.257.066.384.066.193 0 .364-.023.512-.044.15-.043.298-.087.406-.173a.68.68 0 0 0 .298-.304c.067-.101.108-.275.108-.448Zm.94-2.542h-.3v3.455h.3v-3.455Zm2.475 2.259c0 .107-.022.24-.043.347-.042.11-.085.217-.15.326a.962.962 0 0 1-.255.24.606.606 0 0 1-.341.086.64.64 0 0 1-.364-.086.905.905 0 0 1-.255-.24 1.039 1.039 0 0 1-.128-.326 1.01 1.01 0 0 1 0-.717 1.09 1.09 0 0 1 .128-.327.965.965 0 0 1 .255-.24.89.89 0 0 1 .364-.086c.127 0 .235.043.34.087a.876.876 0 0 1 .256.24c.065.109.108.216.15.326.023.132.043.24.043.37Zm-.79-1.281c-.192 0-.34.043-.49.11a1.066 1.066 0 0 0-.342.282 1.5 1.5 0 0 0-.212.413 1.73 1.73 0 0 0 0 .936c.042.151.127.304.212.413a.87.87 0 0 0 .342.284c.15.086.298.11.49.11.171 0 .342-.024.47-.11a.737.737 0 0 0 .34-.284c.108-.109.17-.26.213-.413a1.689 1.689 0 0 0 0-.936 1.098 1.098 0 0 0-.213-.413.902.902 0 0 0-.34-.283 1.055 1.055 0 0 0-.47-.11Zm3.288 1.216c0 .13 0 .24-.042.37a.793.793 0 0 1-.128.304c-.043.11-.128.174-.236.24a.737.737 0 0 1-.34.066.606.606 0 0 1-.321-.087.729.729 0 0 1-.234-.217c-.042-.11-.107-.196-.127-.326-.02-.11-.043-.217-.043-.327 0-.13.022-.24.043-.347a.76.76 0 0 1 .127-.304.625.625 0 0 1 .554-.326.7.7 0 0 1 .321.087c.108.043.193.13.256.217a.746.746 0 0 1 .128.303c.042.13.042.238.042.347Zm0-.782v.02a1.306 1.306 0 0 0-.34-.347.877.877 0 0 0-.427-.11c-.17 0-.32.044-.448.11a.97.97 0 0 0-.321.26c-.085.13-.15.26-.193.414-.02.153-.043.303-.043.477 0 .173.023.326.064.477.022.13.085.26.17.37.085.11.193.196.32.26a.964.964 0 0 0 .449.087c.17 0 .319-.023.449-.11a.781.781 0 0 0 .32-.326v.434c0 .196-.065.37-.213.477a.67.67 0 0 1-.491.197.99.99 0 0 1-.449-.087.359.359 0 0 1-.213-.304h-.32c0 .13.042.24.085.304a.734.734 0 0 0 .235.217c.086.043.193.086.299.11.107.022.213.022.32.022.128 0 .213 0 .299-.023.065-.02.15-.043.235-.087a.71.71 0 0 0 .428-.479.892.892 0 0 0 .065-.326c0-.11.02-.26.02-.414v-1.456c0-.087 0-.24.023-.457v-.087h-.298l-.025.376Zm1.088 1.37a.47.47 0 0 1 .107-.304.52.52 0 0 1 .256-.153.845.845 0 0 1 .32-.064c.108 0 .236-.023.407-.023h.15v.13c0 .13 0 .24-.02.347a.715.715 0 0 1-.128.283.483.483 0 0 1-.213.197.799.799 0 0 1-.341.063.584.584 0 0 1-.384-.13.431.431 0 0 1-.154-.347Zm1.238-.804h-.278c-.193 0-.341 0-.449.022-.127.021-.233.044-.34.087a.738.738 0 0 0-.342.283.679.679 0 0 0-.127.413c0 .217.064.414.213.544.15.13.34.196.576.196.15 0 .298-.043.448-.11.128-.086.236-.173.279-.283l.02-.022.02.347h.278v-.087c0-.196-.02-.347-.02-.457v-1.13c0-.283-.065-.477-.213-.607-.15-.13-.341-.196-.62-.196-.235 0-.425.066-.596.173a.695.695 0 0 0-.278.5h.298c.023-.153.086-.26.17-.303a.758.758 0 0 1 .407-.108c.17 0 .298.043.406.13.085.066.15.197.15.39v.218h-.002Zm1.303.086c0-.217.065-.413.17-.586.108-.153.278-.24.514-.24.192 0 .34.066.448.174.108.13.17.282.17.5v1.543h.279v-1.5c0-.11-.023-.196-.023-.304a.912.912 0 0 0-.128-.303.502.502 0 0 0-.255-.26.82.82 0 0 0-.426-.11.956.956 0 0 0-.429.11.78.78 0 0 0-.32.326l-.02-.37h-.279v.086c0 .217.023.37.023.457v1.87h.278V75.7h-.002Zm5.059-.37v.284h.854v1.11c-.15.042-.278.086-.406.109a1.93 1.93 0 0 1-.34.043c-.236 0-.427-.043-.577-.11a.98.98 0 0 1-.406-.303 1.964 1.964 0 0 1-.235-.477 2.86 2.86 0 0 1-.065-.63c0-.174.022-.37.065-.544.043-.174.107-.326.193-.477a.926.926 0 0 1 .363-.347.872.872 0 0 1 .491-.13.99.99 0 0 1 .576.152c.15.11.256.283.278.48h.341a.609.609 0 0 0-.128-.39.831.831 0 0 0-.255-.284.992.992 0 0 0-.384-.173 1.355 1.355 0 0 0-.426-.067c-.235 0-.426.044-.619.153a1.15 1.15 0 0 0-.448.39c-.128.174-.213.37-.278.588a2.248 2.248 0 0 0-.086.653c0 .282.02.522.086.74.065.216.17.412.278.563.128.174.278.283.468.37.17.087.386.13.6.13.234 0 .447-.023.638-.043.193-.044.384-.087.577-.174v-1.61h-1.155v-.005Zm3.691.565c0 .107-.022.24-.042.347-.043.11-.085.217-.15.326a.964.964 0 0 1-.256.24.61.61 0 0 1-.341.086.64.64 0 0 1-.363-.086.904.904 0 0 1-.256-.24 1.04 1.04 0 0 1-.128-.326 1.01 1.01 0 0 1 0-.717.994.994 0 0 1 .128-.327.963.963 0 0 1 .256-.24.89.89 0 0 1 .363-.086c.128 0 .235.043.34.087a.877.877 0 0 1 .257.24c.065.109.105.216.15.326.022.132.042.24.042.37Zm-.789-1.281c-.193 0-.341.043-.491.11a.87.87 0 0 0-.341.282c-.085.13-.17.26-.213.413a1.731 1.731 0 0 0-.063.48c0 .15.02.303.063.456.042.151.128.304.213.413.085.13.193.218.34.284.151.086.3.11.492.11.17 0 .34-.024.469-.11a.738.738 0 0 0 .34-.284c.108-.109.171-.26.214-.413a1.689 1.689 0 0 0 0-.936 1.07 1.07 0 0 0-.213-.413.903.903 0 0 0-.341-.283 1.048 1.048 0 0 0-.469-.11Zm3.65 1.347c0-.197-.022-.37-.042-.544a1.226 1.226 0 0 0-.193-.413.748.748 0 0 0-.34-.283 1.08 1.08 0 0 0-.492-.11c-.17 0-.32.044-.448.11a.851.851 0 0 0-.341.283c-.085.11-.15.26-.193.413a1.73 1.73 0 0 0-.065.48c0 .15.022.326.065.477.043.153.108.283.193.39.085.13.193.217.32.283.128.087.279.11.449.11.576 0 .917-.283 1.068-.826h-.299a.687.687 0 0 1-.235.413.66.66 0 0 1-.449.153c-.255 0-.47-.087-.598-.26a1.098 1.098 0 0 1-.213-.674h1.814v-.002Zm-1.813-.26c.02-.24.105-.434.235-.587a.642.642 0 0 1 .511-.24.77.77 0 0 1 .556.217c.128.153.193.347.213.607h-1.515v.002Zm2.368-.414c0 .11.022.196.065.26.042.087.085.13.15.197.085.043.15.087.235.11.065.022.17.043.299.086.022 0 .042 0 .085.02.107.021.193.044.256.065.085 0 .15.043.213.066a.348.348 0 0 1 .127.13c.043.066.063.13.063.196 0 .153-.063.283-.192.347a.67.67 0 0 1-.427.13.907.907 0 0 1-.448-.109c-.128-.064-.193-.194-.213-.347h-.298c0 .13.042.24.085.326a.518.518 0 0 0 .213.217c.085.066.17.11.278.13.105.044.213.044.32.044.128 0 .236-.023.364-.043a1.08 1.08 0 0 0 .32-.153c.086-.067.17-.13.214-.24a.638.638 0 0 0 .085-.347c0-.13-.043-.24-.108-.347a.631.631 0 0 0-.298-.217c-.108-.044-.278-.087-.513-.153a1.755 1.755 0 0 1-.449-.153c-.085-.043-.128-.13-.128-.24 0-.13.065-.217.15-.283a.741.741 0 0 1 .384-.107c.17 0 .298.043.406.107.105.066.17.153.17.304h.32c-.022-.24-.107-.413-.255-.52a1.307 1.307 0 0 0-.619-.154 1.28 1.28 0 0 0-.298.044.855.855 0 0 0-.278.11c-.085.066-.15.13-.213.216a.733.733 0 0 0-.065.308Zm4.12 1.804V75.44H72.7v1.65H73v-3.454H72.7v1.521h-1.856v-1.52h-.299v3.454h.299Zm4.996-1.13c0-.197-.023-.37-.065-.544a1.224 1.224 0 0 0-.193-.413.813.813 0 0 0-.32-.283c-.15-.066-.321-.11-.512-.11-.17 0-.32.044-.448.11a.797.797 0 0 0-.321.283.942.942 0 0 0-.213.413 1.73 1.73 0 0 0-.065.48c0 .15.02.326.065.477.042.153.105.283.193.39.085.13.192.217.32.283.128.087.298.11.449.11.576 0 .94-.283 1.067-.826h-.278a.843.843 0 0 1-.256.413.642.642 0 0 1-.426.153c-.278 0-.49-.087-.619-.26-.128-.174-.193-.391-.213-.674h1.835v-.002Zm-1.815-.26c.023-.24.086-.434.214-.587a.655.655 0 0 1 .533-.24c.236 0 .406.087.534.217a.91.91 0 0 1 .213.607h-1.494v.002Zm2.71-.067c0-.217.065-.413.17-.543.128-.153.278-.217.491-.217.02 0 .043 0 .106.023h.065v-.283h-.298a.51.51 0 0 0-.321.13.739.739 0 0 0-.193.303h-.022l-.023-.37h-.278v.108c.023.174.023.327.023.434v1.87h.278v-1.455h.002Zm3.265.327c0-.197-.02-.37-.043-.544a1.226 1.226 0 0 0-.192-.413.748.748 0 0 0-.341-.283 1.08 1.08 0 0 0-.492-.11c-.17 0-.32.044-.448.11a.726.726 0 0 0-.34.283c-.086.11-.151.26-.194.413a1.836 1.836 0 0 0 0 .957c.043.153.108.283.193.39.085.13.193.217.32.283.129.087.279.11.45.11.576 0 .916-.283 1.067-.826h-.299c-.042.152-.105.303-.235.413a.66.66 0 0 1-.448.153c-.279 0-.471-.087-.6-.26-.15-.174-.212-.391-.212-.674H80v-.002Zm-1.812-.26c.022-.24.107-.434.235-.587a.643.643 0 0 1 .514-.24c.235 0 .426.087.554.217.127.153.192.347.213.607h-1.516v.002Z"/><path fill="#1F5FFF" d="m33.96 25.698-18.912 4.954c-6.874-7.02-6.874-18.385 0-25.404a17.454 17.454 0 0 1 24.953 0l-6.041 20.45Z"/><path fill="#04CE78" d="M40.001 5.248 27.537 17.961l-7.706 7.824c-1.987 2.043-4.931 2.52-7.385 1.477a17.86 17.86 0 0 0 2.604 3.39l12.359 12.583.128.11 4.696 4.78a10.852 10.852 0 0 0 15.539 0l4.696-4.78.127-.11 12.36-12.583c6.873-7.02 6.873-18.385 0-25.404a17.454 17.454 0 0 0-24.954 0Z"/><path fill="#FEFEFE" d="M40.876 29.912v6.02c0 1.087.875 2 1.964 2h3.95c1.067 0 1.964-.913 1.964-2v-6.02h5.913c1.088 0 1.963-.913 1.963-2.02v-3.998c0-1.107-.875-2-1.963-2h-5.913v-6.018c0-1.11-.897-2.021-1.965-2.021H42.84c-1.09 0-1.964.913-1.964 2.02v6.019h-5.912c-1.087 0-1.962.89-1.962 2v3.998c0 1.107.874 2.02 1.962 2.02h5.912Z"/></svg>