<svg xmlns="http://www.w3.org/2000/svg" width="80" height="78" fill="none"><path fill="#fff" d="M6.295 59.413v4.155H3.116v-4.155H0v11.424h3.116v-4.77h3.18v4.77H9.41V59.413H6.295Zm10.99 11.657c3.414 0 5.89-2.692 5.89-5.956 0-3.285-2.476-5.957-5.89-5.957-3.435 0-5.912 2.67-5.912 5.957 0 3.264 2.477 5.956 5.912 5.956Zm0-2.84c-1.175 0-2.39-.678-2.39-3.137 0-2.458 1.217-3.095 2.39-3.095 1.132 0 2.368.635 2.368 3.095 0 2.459-1.238 3.138-2.368 3.138Zm14.276-5.764.363-2.65c-.746-.276-2.026-.637-3.349-.637-1.75 0-4.096.637-4.096 3.35 0 2.097 1.408 2.818 3.926 3.92.789.319 1.387.573 1.387 1.167 0 .55-.576.68-1.195.68-.831 0-1.963-.255-3.65-.87l-.49 2.778c1.856.784 3.329.848 4.01.848 3.01 0 4.46-1.251 4.46-3.476 0-2.013-1.173-2.966-3.65-3.88-1.132-.444-1.942-.636-1.942-1.164 0-.488.704-.721 1.473-.721.94-.002 1.942.336 2.753.655Zm7.276-3.053h-4.312v11.424h3.094v-3.519c3.415 0 5.975-.677 5.975-4.218.002-2.648-1.641-3.687-4.758-3.687Zm-1.216 5.531v-3.349h.982c.727 0 1.921 0 1.921 1.61-.002 1.72-.706 1.74-2.903 1.74Zm11.053-5.531h-3.116v11.424h3.116V59.413Zm10.541 0H50.02v2.523h3.051v8.902h3.116v-8.902h3.031v-2.523h-.002Zm7.96 11.424h3.754l-3.948-11.424h-3.734l-3.798 11.424h3.755l.596-2.566h2.753l.621 2.566Zm-2.796-5.065.683-3.03h.17l.727 3.03h-1.58Zm10.926-6.36h-3.093v11.425H80v-2.523h-4.695v-8.901Z"/><path fill="#04CE78" d="M45.004 76.221c0-.15-.02-.276-.085-.36a.622.622 0 0 0-.213-.255 1.173 1.173 0 0 0-.32-.169c-.108-.042-.236-.107-.407-.149a2.283 2.283 0 0 1-.363-.127.705.705 0 0 1-.255-.15.42.42 0 0 1-.193-.19c-.043-.085-.085-.17-.085-.277 0-.106.042-.191.085-.276a.497.497 0 0 1 .193-.169.733.733 0 0 1 .255-.107 1.085 1.085 0 0 1 .534-.02c.085.022.17.042.235.085a.646.646 0 0 1 .17.169c.043.062.065.15.065.254h.32a1.004 1.004 0 0 0-.127-.403.662.662 0 0 0-.256-.234 1.084 1.084 0 0 0-.34-.127c-.128-.042-.256-.042-.364-.042-.15 0-.277.022-.405.064a1.019 1.019 0 0 0-.341.17.842.842 0 0 0-.256.296.716.716 0 0 0-.085.38c0 .148.043.277.108.404.063.106.17.191.278.276.107.084.235.127.34.191.128.043.278.085.47.15.084.02.15.042.192.064.17.042.298.127.383.211.108.085.15.212.15.381a.473.473 0 0 1-.085.276.512.512 0 0 1-.17.192.66.66 0 0 1-.278.127 1.22 1.22 0 0 1-.298.042c-.108 0-.214 0-.321-.022a.494.494 0 0 1-.256-.127.42.42 0 0 1-.192-.191.706.706 0 0 1-.065-.319h-.341c0 .127.043.254.085.36a.889.889 0 0 0 .236.32.805.805 0 0 0 .32.189c.107.042.235.064.383.064.17 0 .341 0 .491-.042a1.48 1.48 0 0 0 .426-.17.758.758 0 0 0 .278-.296c.084-.105.104-.252.104-.443Zm.94-2.48h-.279v3.369h.278v-3.37Zm2.474 2.204c0 .107-.022.234-.042.338a1.44 1.44 0 0 1-.15.319c-.065.107-.15.17-.236.234a.7.7 0 0 1-.363.084.72.72 0 0 1-.363-.084.81.81 0 0 1-.236-.234c-.064-.105-.127-.192-.15-.319-.042-.106-.042-.233-.042-.338 0-.127 0-.234.042-.339a.739.739 0 0 1 .15-.318.62.62 0 0 1 .236-.234.719.719 0 0 1 .363-.107.72.72 0 0 1 .363.107c.085.043.17.127.235.234.063.085.108.191.15.318.02.107.043.212.043.339Zm-.789-1.25c-.193 0-.34.043-.49.107-.129.065-.257.17-.342.276-.085.127-.15.254-.192.403a1.634 1.634 0 0 0-.086.466c0 .147.043.318.086.445.042.15.107.297.192.403a.866.866 0 0 0 .341.276c.15.085.298.107.491.107.17 0 .34-.02.469-.107a.897.897 0 0 0 .363-.276c.085-.106.15-.254.193-.403a1.634 1.634 0 0 0 0-.91 1.395 1.395 0 0 0-.193-.404c-.108-.104-.213-.211-.363-.276a1.076 1.076 0 0 0-.469-.107Zm3.307 1.187c0 .127-.02.234-.043.361-.022.107-.085.212-.127.296-.065.107-.15.17-.236.234a.892.892 0 0 1-.34.063.75.75 0 0 1-.321-.063c-.108-.064-.17-.149-.236-.234-.065-.084-.107-.191-.15-.296-.02-.127-.042-.234-.042-.338 0-.105.02-.234.042-.339.043-.107.086-.212.15-.296.043-.107.128-.17.213-.234.108-.042.214-.085.321-.085.128 0 .235.043.34.085.086.064.171.127.236.212.065.084.108.191.15.296.023.127.043.232.043.338Zm0-.763-.02.022a.77.77 0 0 0-.32-.319.794.794 0 0 0-.45-.127c-.17 0-.32.043-.448.107a.808.808 0 0 0-.32.276 1.057 1.057 0 0 0-.17.381c-.043.15-.066.296-.066.466 0 .169.023.318.065.465.043.127.108.254.17.36a.922.922 0 0 0 .321.255c.128.062.278.105.469.105.15 0 .298-.043.448-.127a.845.845 0 0 0 .299-.319h.02v.446a.637.637 0 0 1-.213.465.869.869 0 0 1-.511.17c-.17 0-.32-.02-.449-.085-.128-.065-.193-.15-.213-.276h-.298c0 .105.022.211.085.296.043.064.128.127.213.191.085.043.193.085.298.107.108.022.214.022.341.022.108 0 .213 0 .278-.022.085 0 .15-.042.256-.084a.808.808 0 0 0 .278-.192c.065-.084.107-.17.15-.276a1.33 1.33 0 0 0 .043-.318c.022-.105.022-.234.022-.403v-1.421c0-.085 0-.234.02-.423v-.085h-.298v.343Zm1.09 1.336a.44.44 0 0 1 .085-.296c.085-.065.17-.107.278-.15a.867.867 0 0 1 .32-.064c.108 0 .235 0 .383-.022h.15v.064a.155.155 0 0 1 .023.085c0 .107-.022.211-.043.318a1.089 1.089 0 0 1-.107.276.524.524 0 0 1-.236.192.752.752 0 0 1-.34.064.606.606 0 0 1-.364-.107c-.107-.086-.15-.213-.15-.36Zm1.215-.784h-.278c-.17 0-.32.022-.449.022-.107.022-.235.042-.32.085a.796.796 0 0 0-.363.276.651.651 0 0 0-.128.403c0 .234.085.403.235.53a.84.84 0 0 0 .554.191c.15 0 .298-.02.448-.107a.738.738 0 0 0 .299-.276v-.02h.022v.339h.298v-.085c-.022-.191-.022-.318-.022-.445V75.48c0-.276-.085-.465-.236-.594-.127-.127-.34-.192-.596-.192-.256 0-.448.065-.596.17-.17.107-.256.276-.299.508h.299c.02-.17.085-.254.192-.319a.679.679 0 0 1 .384-.107c.192 0 .32.043.405.127.086.065.15.192.15.381v.216Zm1.302.084c0-.211.065-.403.17-.572a.647.647 0 0 1 .512-.234c.192 0 .34.065.448.17.108.127.17.276.17.487v1.506h.278v-1.463c0-.085 0-.192-.022-.297a2.707 2.707 0 0 0-.107-.296.732.732 0 0 0-.256-.254.942.942 0 0 0-.874 0 .845.845 0 0 0-.299.319h-.02v-.339h-.298v.085c.022.191.022.338.022.423v1.822h.278v-1.356h-.002Zm5.078-.36v.276h.832v1.102c-.15.042-.278.063-.406.085-.107.042-.235.042-.34.042a1.62 1.62 0 0 1-.577-.107.978.978 0 0 1-.406-.296 1.559 1.559 0 0 1-.213-.466c-.042-.19-.085-.38-.085-.594 0-.191.02-.36.065-.55a1.33 1.33 0 0 1 .213-.466.885.885 0 0 1 .34-.338c.151-.085.321-.127.512-.127a.97.97 0 0 1 .556.17.57.57 0 0 1 .278.445h.363a1.339 1.339 0 0 0-.128-.381 1.125 1.125 0 0 0-.278-.276.79.79 0 0 0-.383-.17 1.351 1.351 0 0 0-.406-.064 1.29 1.29 0 0 0-.64.149 1.34 1.34 0 0 0-.45.403c-.127.15-.212.339-.277.55a2.184 2.184 0 0 0-.085.657c0 .254.02.488.085.7.065.21.17.402.298.552.108.169.278.276.448.36.193.085.384.127.62.127.212 0 .425 0 .618-.042s.383-.085.598-.17V75.4h-1.152v-.004Zm3.67.55c0 .107-.02.234-.042.338a1.436 1.436 0 0 1-.15.319.693.693 0 0 1-.256.234c-.086.064-.213.084-.341.084a.72.72 0 0 1-.363-.084.81.81 0 0 1-.236-.234c-.064-.105-.127-.192-.15-.319-.042-.106-.042-.233-.042-.338 0-.127 0-.234.042-.339a.739.739 0 0 1 .15-.318.619.619 0 0 1 .236-.234.714.714 0 0 1 .363-.107c.128 0 .255.043.34.107a.53.53 0 0 1 .256.234c.065.085.108.191.15.318.023.107.043.212.043.339Zm-.79-1.25c-.192 0-.34.043-.49.107-.128.065-.256.17-.34.276-.086.127-.151.254-.194.403a1.111 1.111 0 0 0-.085.466c0 .147.02.318.085.445.043.15.108.297.193.403a.866.866 0 0 0 .34.276c.151.085.3.107.492.107.17 0 .34-.02.468-.107a.898.898 0 0 0 .364-.276c.085-.106.15-.254.192-.403a1.634 1.634 0 0 0 0-.91 1.394 1.394 0 0 0-.192-.404c-.108-.104-.213-.211-.364-.276a1.076 1.076 0 0 0-.468-.107Zm3.67 1.314c0-.191-.02-.36-.062-.53a1.183 1.183 0 0 0-.193-.403.808.808 0 0 0-.32-.276 1.32 1.32 0 0 0-.511-.106c-.17 0-.321.042-.449.106a.808.808 0 0 0-.32.276.912.912 0 0 0-.213.403 1.672 1.672 0 0 0 0 .931c.042.15.107.276.192.403.085.107.193.192.32.276.129.065.3.085.45.085.575 0 .939-.276 1.066-.806h-.278a.82.82 0 0 1-.255.403.663.663 0 0 1-.426.15c-.278 0-.491-.085-.62-.255-.127-.169-.192-.38-.212-.657h1.832Zm-1.813-.254c.022-.233.085-.423.213-.572a.661.661 0 0 1 .534-.234c.235 0 .405.085.533.234.128.127.213.319.213.572h-1.493Zm2.347-.403c0 .107.023.192.065.254.043.085.108.15.17.192.066.042.129.084.214.105.085.022.17.042.298.084.022 0 .043 0 .085.022.108.022.193.043.278.063l.193.062c.065.043.107.085.15.127.02.063.043.127.043.192 0 .149-.065.276-.17.36a.987.987 0 0 1-.45.107c-.17 0-.32-.022-.448-.107-.127-.062-.192-.169-.192-.338h-.32c.02.127.042.234.085.318.064.085.127.17.212.234.086.042.17.085.278.107a.834.834 0 0 0 .321.042c.128 0 .256 0 .363-.042a.748.748 0 0 0 .32-.15.608.608 0 0 0 .236-.233.8.8 0 0 0 .065-.339.485.485 0 0 0-.108-.338.578.578 0 0 0-.278-.212c-.127-.042-.298-.084-.51-.147-.214-.042-.364-.085-.45-.149-.084-.042-.127-.127-.127-.234 0-.127.043-.211.15-.276a.659.659 0 0 1 .363-.107.76.76 0 0 1 .406.107c.106.065.17.15.193.296h.298c-.02-.233-.108-.403-.256-.507a1.245 1.245 0 0 0-.596-.15c-.108 0-.213.023-.32.043-.108.02-.193.062-.279.105a.613.613 0 0 0-.192.211.463.463 0 0 0-.09.298Zm4.14 1.76v-1.61h1.835v1.61H73v-3.37h-.32v1.483h-1.836v-1.483h-.32v3.37h.32Zm4.972-1.103c0-.191-.02-.36-.063-.53-.043-.149-.086-.296-.17-.403a.865.865 0 0 0-.341-.276 1.212 1.212 0 0 0-.492-.106c-.17 0-.32.042-.468.106a.808.808 0 0 0-.32.276c-.086.107-.15.254-.193.403a1.113 1.113 0 0 0-.086.466c0 .147.023.318.065.465.043.15.106.276.193.403.085.107.193.192.34.276a.984.984 0 0 0 .45.085c.553 0 .916-.276 1.066-.806H75.5a.953.953 0 0 1-.235.403.68.68 0 0 1-.449.15c-.278 0-.468-.085-.618-.255-.128-.169-.193-.38-.193-.657h1.812Zm-1.814-.254c.022-.233.107-.423.235-.572a.648.648 0 0 1 .511-.234c.236 0 .406.085.534.234.15.127.213.319.235.572h-1.515Zm2.71-.042c.023-.234.086-.423.193-.552a.581.581 0 0 1 .469-.212c.02 0 .065.023.107.023h.063v-.276h-.278a.437.437 0 0 0-.32.127.587.587 0 0 0-.213.296h-.023v-.339h-.298v.085c.02.17.02.318.02.423v1.822h.278v-1.397h.002ZM80 76.01c0-.191-.022-.36-.065-.53a1.183 1.183 0 0 0-.193-.403.745.745 0 0 0-.34-.276 1.132 1.132 0 0 0-.492-.106c-.17 0-.32.042-.448.106-.128.065-.235.15-.34.276-.086.107-.15.254-.194.403a1.675 1.675 0 0 0 0 .931c.043.15.108.276.193.403.086.107.193.192.32.276a.985.985 0 0 0 .45.085c.575 0 .938-.276 1.066-.806h-.298a.647.647 0 0 1-.235.403.662.662 0 0 1-.426.15c-.278 0-.491-.085-.62-.255-.127-.169-.192-.38-.212-.657H80Zm-1.814-.254c.02-.233.085-.423.213-.572a.648.648 0 0 1 .511-.234c.236 0 .427.085.554.234.128.127.213.319.213.572h-1.49ZM33.651 28.976V44.66c0 .657.278 1.252.704 1.675.448.423 1.045.7 1.686.7h7.896a2.398 2.398 0 0 0 2.39-2.375V32.897c0-.848.704-1.548 1.558-1.548h11.844a2.398 2.398 0 0 0 2.39-2.373v-7.843c0-.637-.278-1.23-.704-1.675a2.397 2.397 0 0 0-1.686-.7h-9.262v-3.094h9.262c1.515 0 2.9.614 3.883 1.612a5.416 5.416 0 0 1 1.62 3.857v7.843a5.373 5.373 0 0 1-1.62 3.857 5.45 5.45 0 0 1-3.883 1.61H49.443v10.216a5.412 5.412 0 0 1-1.621 3.857 5.453 5.453 0 0 1-3.883 1.61h-7.896a5.485 5.485 0 0 1-3.883-1.61 5.416 5.416 0 0 1-1.621-3.857V28.974c0-3.668 1.515-6.995 3.948-9.389a13.334 13.334 0 0 1 9.454-3.921h1.365v3.095h-1.365c-2.816 0-5.399 1.167-7.255 3.01-1.86 1.844-3.035 4.41-3.035 7.207Z"/><path fill="#fff" d="M46.327 21.133V5.469c0-.657-.278-1.251-.704-1.674a2.308 2.308 0 0 0-1.686-.7H36.04a2.38 2.38 0 0 0-1.686.7 2.366 2.366 0 0 0-.704 1.674v11.742c0 .869-.684 1.548-1.558 1.548H20.27c-.661 0-1.26.276-1.686.7a2.348 2.348 0 0 0-.704 1.674v7.843c0 .657.256 1.251.704 1.674.426.423 1.025.7 1.686.7h9.24v3.095h-9.24a5.542 5.542 0 0 1-3.905-1.61 5.443 5.443 0 0 1-1.6-3.857v-7.845c0-1.505.618-2.862 1.6-3.857a5.54 5.54 0 0 1 3.905-1.612h10.264V5.469c0-1.525.619-2.882 1.62-3.88A5.553 5.553 0 0 1 36.04.001h7.896c1.515 0 2.9.615 3.883 1.59a5.428 5.428 0 0 1 1.62 3.88v15.663c0 3.667-1.492 6.994-3.925 9.41a13.398 13.398 0 0 1-9.474 3.9h-1.345V31.35h1.345c2.838 0 5.398-1.145 7.277-3.01a10.122 10.122 0 0 0 3.01-7.207Z"/></svg>