<svg xmlns="http://www.w3.org/2000/svg" width="80" height="78" fill="none"><path fill="#fff" d="M6.297 59.41v4.155H3.095V59.41H0v11.424h3.095v-4.768h3.202v4.768h3.095V59.41H6.297ZM17.29 71.068c3.415 0 5.891-2.692 5.891-5.957 0-3.285-2.476-5.957-5.891-5.957-3.436 0-5.914 2.67-5.914 5.957.002 3.265 2.478 5.957 5.914 5.957Zm0-2.84c-1.175 0-2.39-.679-2.39-3.137 0-2.459 1.215-3.095 2.39-3.095 1.13 0 2.37.636 2.37 3.095 0 2.458-1.238 3.138-2.37 3.138Zm14.258-5.765.383-2.65c-.769-.276-2.05-.635-3.35-.635-1.751 0-4.1.635-4.1 3.35 0 2.097 1.389 2.819 3.927 3.921.79.319 1.389.572 1.389 1.167 0 .55-.577.679-1.196.679-.832 0-1.984-.254-3.67-.868l-.492 2.776c1.857.784 3.33.849 4.012.849 3.032 0 4.483-1.252 4.483-3.476 0-2.014-1.195-2.967-3.649-3.88-1.132-.445-1.942-.636-1.942-1.166 0-.488.684-.722 1.473-.722.94-.002 1.943.337 2.732.655Zm7.279-3.053h-4.312v11.424h3.117v-3.518c3.415 0 5.956-.678 5.956-4.218 0-2.648-1.624-3.688-4.761-3.688Zm-1.195 5.532v-3.35h.982c.704 0 1.922 0 1.922 1.61 0 1.72-.706 1.74-2.904 1.74ZM48.69 59.41h-3.117v11.424h3.117V59.41Zm10.542 0h-9.199v2.523h3.052v8.901h3.095v-8.9h3.052V59.41Zm7.963 11.424h3.756L67.002 59.41h-3.736l-3.799 11.424h3.757l.596-2.563h2.754l.621 2.563Zm-2.819-5.064.684-3.03h.17l.747 3.03h-1.6Zm10.95-6.36H72.21v11.424H80v-2.52h-4.674V59.41Z"/><path fill="#04CE78" d="M45.016 76.218c0-.15-.022-.276-.085-.36a.676.676 0 0 0-.235-.255c-.086-.084-.193-.126-.299-.169-.105-.042-.235-.107-.405-.149a2.278 2.278 0 0 1-.364-.127 1.146 1.146 0 0 1-.278-.149.824.824 0 0 1-.193-.192.584.584 0 0 1-.064-.276c0-.106.02-.191.064-.276a1.22 1.22 0 0 1 .193-.169c.085-.042.17-.085.256-.107a1.205 1.205 0 0 1 .556-.02c.085.022.15.042.235.085a.549.549 0 0 1 .15.169c.043.064.065.15.086.254h.32a1.006 1.006 0 0 0-.128-.403.7.7 0 0 0-.278-.234.917.917 0 0 0-.34-.127c-.108-.042-.236-.042-.364-.042s-.255.022-.383.064a1.15 1.15 0 0 0-.364.17c-.085.084-.17.169-.235.296a.716.716 0 0 0-.085.38c0 .15.02.277.107.404.063.107.15.191.278.276.106.085.214.127.341.191.128.043.278.085.47.15.084.022.15.042.192.064a1.1 1.1 0 0 1 .383.212c.086.084.128.211.128.38a.65.65 0 0 1-.063.276.42.42 0 0 1-.192.192.69.69 0 0 1-.256.127c-.108.022-.193.042-.298.042-.106 0-.236 0-.321-.022a.687.687 0 0 1-.278-.127.498.498 0 0 1-.17-.191.701.701 0 0 1-.086-.319h-.32c0 .127.022.254.085.36a.84.84 0 0 0 .213.32c.108.084.213.146.32.19.129.043.256.065.384.065.193 0 .363 0 .512-.042.15-.043.298-.085.405-.17a.67.67 0 0 0 .299-.296.848.848 0 0 0 .107-.445Zm.94-2.48h-.299v3.369h.299v-3.37Zm2.476 2.204c0 .107-.02.234-.043.339a1.438 1.438 0 0 1-.15.318.692.692 0 0 1-.256.234.618.618 0 0 1-.34.084.668.668 0 0 1-.364-.084.647.647 0 0 1-.256-.234.799.799 0 0 1-.128-.319.962.962 0 0 1-.065-.338c0-.127.02-.234.065-.339a.719.719 0 0 1 .128-.318.546.546 0 0 1 .256-.234.659.659 0 0 1 .363-.106c.128 0 .236.042.341.106a.529.529 0 0 1 .256.234c.063.085.107.192.15.318.022.107.043.212.043.339Zm-.79-1.25c-.193 0-.34.043-.49.107-.129.065-.257.17-.342.276-.085.127-.17.254-.213.403a1.645 1.645 0 0 0 0 .911c.043.147.128.297.213.403a.865.865 0 0 0 .341.276c.15.085.298.107.491.107.17 0 .341-.022.469-.107a.71.71 0 0 0 .34-.276.911.911 0 0 0 .214-.403c.043-.127.065-.296.065-.445 0-.17-.02-.318-.065-.466a1.063 1.063 0 0 0-.213-.403.897.897 0 0 0-.341-.276 1.077 1.077 0 0 0-.469-.106Zm3.288 1.188c0 .126 0 .233-.043.36a.761.761 0 0 1-.128.296c-.042.107-.128.17-.235.234a.757.757 0 0 1-.341.063.906.906 0 0 1-.32-.063 1.287 1.287 0 0 1-.236-.234c-.043-.084-.108-.191-.128-.296-.02-.127-.043-.234-.043-.338 0-.107.023-.234.043-.339a.761.761 0 0 1 .128-.296.622.622 0 0 1 .235-.234.714.714 0 0 1 .32-.085c.129 0 .236.043.322.085a.816.816 0 0 1 .255.212.718.718 0 0 1 .128.296.981.981 0 0 1 .043.338Zm0-.764v.022a.968.968 0 0 0-.341-.319.728.728 0 0 0-.426-.126c-.17 0-.321.042-.449.106a.809.809 0 0 0-.32.276c-.086.107-.15.234-.193.381-.02.15-.043.296-.043.466 0 .17.022.318.063.467a.8.8 0 0 0 .17.361.922.922 0 0 0 .321.254c.128.062.278.105.449.105.17 0 .32-.043.448-.127a.77.77 0 0 0 .32-.319v.446a.57.57 0 0 1-.212.465.758.758 0 0 1-.491.17c-.17 0-.321-.023-.449-.085-.128-.065-.193-.15-.213-.276h-.32c0 .107.042.211.085.296.063.064.127.127.235.191.085.043.193.085.298.107.108.022.213.022.32.022.129 0 .214 0 .3-.022.064 0 .15-.042.235-.084a.55.55 0 0 0 .278-.192.695.695 0 0 0 .15-.276.707.707 0 0 0 .065-.318c0-.105.02-.234.02-.403v-1.421c0-.085 0-.234.022-.423v-.085h-.298l-.024.34Zm1.087 1.336c0-.127.043-.212.108-.296a.725.725 0 0 1 .256-.15.864.864 0 0 1 .32-.062c.108 0 .236 0 .406-.022h.15V76.07c0 .107 0 .212-.02.318a.678.678 0 0 1-.128.276.467.467 0 0 1-.213.192.816.816 0 0 1-.34.064.725.725 0 0 1-.384-.107.508.508 0 0 1-.155-.362Zm1.238-.784h-.278c-.192 0-.34.022-.448.022a1.65 1.65 0 0 0-.341.085.733.733 0 0 0-.341.276.65.65 0 0 0-.128.403c0 .234.065.403.213.53a.86.86 0 0 0 .576.191c.15 0 .299-.022.449-.107.128-.084.235-.169.278-.276l.02-.022.02.339h.279v-.085c0-.191-.02-.318-.02-.445v-1.102c0-.277-.066-.466-.214-.593-.15-.127-.34-.191-.619-.191-.235 0-.426.064-.596.169a.679.679 0 0 0-.278.508h.298c.022-.17.085-.254.17-.319a.754.754 0 0 1 .406-.106c.17 0 .299.042.406.126.085.065.15.192.15.381v.216h-.002Zm1.303.084c0-.211.065-.402.17-.572.108-.149.279-.234.514-.234a.62.62 0 0 1 .449.17c.107.127.17.276.17.487v1.506h.278v-1.463c0-.085-.02-.192-.02-.296a1.183 1.183 0 0 0-.128-.297.489.489 0 0 0-.256-.254.836.836 0 0 0-.426-.106.96.96 0 0 0-.426.106 1.144 1.144 0 0 0-.32.319l-.021-.339h-.278v.085c0 .191.022.338.022.423v1.822h.278v-1.356h-.006Zm5.06-.36v.276h.854v1.102c-.15.043-.278.063-.406.085-.106.042-.234.042-.341.042-.236 0-.426-.042-.577-.107a.977.977 0 0 1-.405-.296c-.108-.127-.17-.296-.236-.465a2.672 2.672 0 0 1 0-1.145 1.82 1.82 0 0 1 .193-.468.93.93 0 0 1 .363-.338.888.888 0 0 1 .491-.127c.236 0 .406.065.577.17.15.106.255.253.278.445h.34a.68.68 0 0 0-.127-.381.838.838 0 0 0-.256-.276 1.002 1.002 0 0 0-.383-.17 1.388 1.388 0 0 0-.427-.064c-.235 0-.426.042-.619.15-.192.084-.34.233-.448.402a1.51 1.51 0 0 0-.278.552 2.189 2.189 0 0 0-.085.657c0 .254.02.488.085.7.065.211.17.402.278.552.128.169.278.276.469.36.17.085.383.127.598.127.236 0 .449 0 .642-.042.192-.042.383-.085.576-.17v-1.567h-1.157v-.004Zm3.69.55c0 .107-.022.234-.042.339a1.442 1.442 0 0 1-.15.318.693.693 0 0 1-.256.234.622.622 0 0 1-.34.084.669.669 0 0 1-.364-.084.662.662 0 0 1-.256-.234.83.83 0 0 1-.128-.319.96.96 0 0 1 0-.677.719.719 0 0 1 .128-.318.547.547 0 0 1 .256-.234.66.66 0 0 1 .363-.106c.128 0 .236.042.341.106a.529.529 0 0 1 .256.234c.065.085.107.192.15.318.022.107.043.212.043.339Zm-.789-1.25c-.193 0-.34.043-.49.107a.882.882 0 0 0-.342.276 1.45 1.45 0 0 0-.213.403c-.042.15-.063.297-.063.466 0 .15.02.318.063.445.043.147.128.297.213.403a.744.744 0 0 0 .341.276c.15.085.298.107.491.107.17 0 .341-.022.469-.107a.71.71 0 0 0 .34-.276.912.912 0 0 0 .214-.403 1.634 1.634 0 0 0 0-.91 1.036 1.036 0 0 0-.213-.404.897.897 0 0 0-.341-.276 1.077 1.077 0 0 0-.469-.106Zm3.65 1.314c0-.191-.021-.36-.042-.53a1.18 1.18 0 0 0-.192-.403.743.743 0 0 0-.341-.276 1.104 1.104 0 0 0-.491-.106c-.17 0-.321.042-.449.106a.865.865 0 0 0-.34.276c-.086.107-.151.254-.194.404-.042.149-.065.296-.065.465 0 .15.023.318.065.465.043.15.108.276.193.404.085.106.193.19.32.275a.985.985 0 0 0 .45.085c.576 0 .916-.276 1.067-.806h-.299a.666.666 0 0 1-.683.552c-.256 0-.47-.084-.6-.254a1.054 1.054 0 0 1-.212-.657h1.814Zm-1.813-.254a.98.98 0 0 1 .235-.572.648.648 0 0 1 .512-.234c.235 0 .426.085.556.234.127.127.192.319.213.572h-1.516Zm2.368-.402c0 .106.022.19.063.253.042.085.085.15.15.192.085.042.15.084.235.107.063.02.17.042.299.084.02 0 .042 0 .085.02.108.023.193.043.256.065.085.022.15.042.213.064a.343.343 0 0 1 .128.127.336.336 0 0 1 .063.192.414.414 0 0 1-.193.36.836.836 0 0 1-.426.107c-.17 0-.341-.022-.449-.107-.128-.062-.193-.169-.213-.338h-.298c0 .127.042.234.085.318.043.085.128.17.213.234.085.042.17.085.278.107.106.042.213.042.32.042.129 0 .236 0 .364-.042.107-.022.213-.085.32-.15.086-.062.171-.126.214-.233.063-.085.085-.212.085-.338a.626.626 0 0 0-.108-.34.64.64 0 0 0-.298-.21c-.108-.043-.278-.085-.511-.148-.214-.042-.364-.084-.449-.149-.085-.042-.128-.127-.128-.234 0-.127.063-.211.15-.276a.736.736 0 0 1 .384-.106c.17 0 .298.042.406.106.105.063.17.15.17.296h.32c-.021-.233-.107-.402-.255-.507a1.334 1.334 0 0 0-.619-.15c-.107 0-.213.023-.298.043a.824.824 0 0 0-.278.107.961.961 0 0 0-.213.211.64.64 0 0 0-.065.293Zm4.12 1.759v-1.61H72.7v1.61H73v-3.37H72.7v1.483h-1.856V73.74h-.299v3.37h.299Zm4.996-1.103c0-.191-.023-.36-.065-.53a1.18 1.18 0 0 0-.193-.403.807.807 0 0 0-.32-.276 1.285 1.285 0 0 0-.512-.106c-.17 0-.32.042-.449.106a.808.808 0 0 0-.32.276.912.912 0 0 0-.213.404c-.043.149-.065.296-.065.465 0 .15.02.318.065.465.042.15.105.276.192.404.086.106.193.19.321.275.128.065.298.085.449.085.576 0 .94-.276 1.067-.806h-.278a.82.82 0 0 1-.256.403.652.652 0 0 1-.426.15c-.278 0-.49-.085-.619-.255-.128-.169-.193-.38-.213-.657h1.835Zm-1.817-.254c.02-.233.086-.423.214-.572a.662.662 0 0 1 .533-.234c.236 0 .406.085.534.234.128.127.213.319.213.572h-1.494Zm2.712-.042c0-.233.064-.423.17-.552a.661.661 0 0 1 .491-.212c.02 0 .043.023.106.023h.065v-.276h-.299a.516.516 0 0 0-.32.127.72.72 0 0 0-.193.296h-.02l-.023-.339h-.278v.085c.023.17.023.318.023.423v1.822h.278V75.71Zm3.265.296c0-.191-.02-.36-.043-.53a1.184 1.184 0 0 0-.193-.403.744.744 0 0 0-.34-.276 1.105 1.105 0 0 0-.492-.106c-.17 0-.32.042-.448.106a.734.734 0 0 0-.341.276c-.085.107-.15.254-.193.404a1.738 1.738 0 0 0 0 .93c.043.15.108.276.193.404.085.106.193.19.32.275a.985.985 0 0 0 .45.085c.575 0 .916-.276 1.067-.806h-.299c-.042.15-.105.296-.235.403a.67.67 0 0 1-.449.15c-.278 0-.469-.085-.598-.255-.15-.169-.213-.38-.213-.657H80Zm-1.812-.254a.992.992 0 0 1 .235-.572.648.648 0 0 1 .511-.234c.236 0 .427.085.554.234.128.127.193.319.213.572h-1.513Z"/><path fill="#fff" d="M48.412 16.701v16.702H23.16c-4.631 0-8.41-3.73-8.41-8.35 0-4.601 3.779-8.352 8.41-8.352h8.432v-8.35C31.593 3.73 35.349 0 40.003 0c4.652 0 8.409 3.73 8.409 8.35v8.351Z"/><path fill="#04CE78" d="M48.412 16.702h8.41c4.652 0 8.43 3.752 8.43 8.35 0 4.621-3.778 8.351-8.43 8.351h-8.41v8.373c0 4.599-3.757 8.35-8.41 8.35-4.653 0-8.41-3.751-8.41-8.35v-8.373c0-9.177 7.576-16.701 16.82-16.701Z"/></svg>