<svg xmlns="http://www.w3.org/2000/svg" width="82" height="78" fill="none"><path fill="#000D44" d="M6.454 58.809v4.285H3.172V58.81H0V70.59h3.172v-4.897h3.282v4.897h3.172V58.809H6.454Zm11.266 12.02c3.5 0 6.038-2.776 6.038-6.143 0-3.388-2.537-6.12-6.038-6.12-3.522 0-6.061 2.732-6.061 6.12.002 3.37 2.54 6.144 6.06 6.144Zm0-2.905c-1.204 0-2.45-.7-2.45-3.236 0-2.558 1.245-3.213 2.45-3.213 1.16 0 2.43.657 2.43 3.213 0 2.536-1.27 3.236-2.43 3.236Zm14.614-5.946.393-2.733c-.788-.305-2.1-.677-3.434-.677-1.793 0-4.201.677-4.201 3.474 0 2.143 1.422 2.908 4.024 4.022.81.329 1.423.59 1.423 1.204 0 .567-.59.72-1.225.72-.853 0-2.034-.261-3.763-.895l-.503 2.841c1.903.831 3.413.896 4.114.896 3.106 0 4.595-1.312 4.595-3.608 0-2.076-1.225-3.06-3.74-4.001-1.16-.439-1.99-.655-1.99-1.18 0-.503.7-.765 1.51-.765.96.002 1.988.374 2.797.702Zm7.461-3.17h-4.42v11.783h3.195v-3.629c3.5 0 6.105-.678 6.105-4.35 0-2.712-1.664-3.803-4.88-3.803Zm-1.225 5.706V61.06h1.007c.722 0 1.97 0 1.97 1.683 0 1.77-.724 1.77-2.977 1.77Zm11.334-5.705H46.71V70.59h3.195V58.809Zm10.806 0h-9.429v2.602h3.129v9.182h3.172V61.41h3.128v-2.602Zm8.162 11.782h3.85l-4.047-11.782h-3.83L60.951 70.59h3.85l.612-2.623h2.823l.636 2.623Zm-2.89-5.225.702-3.126h.175l.765 3.126h-1.641Zm11.225-6.557h-3.195V70.59h7.985v-2.602h-4.792v-9.18h.002Z"/><path fill="#04CE78" d="M46.14 76.165a.752.752 0 0 0-.088-.393.682.682 0 0 0-.241-.262 1.462 1.462 0 0 0-.306-.175c-.11-.043-.242-.087-.416-.153a2.324 2.324 0 0 1-.372-.131 3.437 3.437 0 0 1-.285-.131c-.067-.067-.132-.131-.198-.219a.544.544 0 0 1-.067-.284c0-.11.021-.198.067-.262a.843.843 0 0 1 .197-.198c.088-.043.175-.087.263-.11.087-.02.197-.043.285-.043.087 0 .197.022.285.043.087 0 .153.044.24.088.067.022.111.087.155.153a.715.715 0 0 1 .087.262h.329a1.066 1.066 0 0 0-.131-.392 1.023 1.023 0 0 0-.285-.262 1.014 1.014 0 0 0-.35-.131 2.01 2.01 0 0 0-.372-.044 1.3 1.3 0 0 0-.393.064 1.917 1.917 0 0 0-.372.175 1.738 1.738 0 0 0-.242.305.745.745 0 0 0-.087.395c0 .152.02.306.11.416.065.11.154.218.285.285.11.087.218.154.35.197.13.044.285.11.48.154a.514.514 0 0 0 .198.067c.154.064.285.13.393.218.087.11.13.24.13.393a.587.587 0 0 1-.263.503c-.088.043-.175.087-.263.11-.11.043-.197.043-.305.043-.108 0-.241 0-.329-.023a1.052 1.052 0 0 1-.285-.108c-.064-.066-.13-.13-.175-.218a.727.727 0 0 1-.087-.328h-.329a.992.992 0 0 0 .306.7c.11.088.219.154.329.198a.871.871 0 0 0 .393.087c.197 0 .372-.023.524-.064.154-.023.306-.088.416-.154.131-.088.241-.175.306-.306.069-.137.112-.29.112-.465Zm.962-2.559h-.305v3.454h.305v-3.454Zm2.538 2.253c0 .131-.023.241-.044.35a1.12 1.12 0 0 1-.154.328.562.562 0 0 1-.262.24.65.65 0 0 1-.35.11.672.672 0 0 1-.371-.11.543.543 0 0 1-.263-.24.719.719 0 0 1-.13-.329.98.98 0 0 1 0-.698.769.769 0 0 1 .13-.328.696.696 0 0 1 .263-.242.678.678 0 0 1 .372-.087c.13 0 .241.023.35.088.11.064.197.13.261.24.065.088.108.198.154.329.023.108.044.239.044.35Zm-.81-1.268c-.197 0-.349.021-.503.088-.13.087-.262.174-.349.305a1.143 1.143 0 0 0-.218.393 1.829 1.829 0 0 0-.067.48c0 .175.02.329.067.48.043.154.13.285.218.416.087.108.218.218.35.285.153.064.305.11.503.11.174 0 .35-.044.48-.11a.906.906 0 0 0 .35-.285c.11-.131.174-.262.218-.416.044-.154.067-.305.067-.48 0-.154-.023-.328-.067-.48a.872.872 0 0 0-.218-.393.948.948 0 0 0-.35-.305c-.13-.067-.306-.088-.48-.088Zm3.37 1.225c0 .11 0 .24-.043.349-.023.11-.067.218-.131.328-.044.087-.131.154-.242.218-.087.065-.197.088-.349.088-.108 0-.218-.044-.329-.088-.087-.066-.174-.13-.24-.24-.045-.088-.111-.198-.132-.306a2.03 2.03 0 0 1-.044-.35c0-.108.023-.218.044-.349a.789.789 0 0 1 .131-.305c.067-.087.131-.175.241-.218a.537.537 0 0 1 .329-.088c.131 0 .241.023.329.067.11.066.197.13.262.24.066.088.11.198.13.306.044.106.044.217.044.347Zm0-.811v.023a1.015 1.015 0 0 0-.349-.329c-.131-.087-.262-.108-.437-.108s-.328.021-.46.088a1.035 1.035 0 0 0-.328.284c-.087.11-.154.242-.198.393-.02.154-.043.306-.043.48 0 .175.02.329.064.48a.825.825 0 0 0 .175.395.971.971 0 0 0 .328.262c.132.044.285.087.46.087a.811.811 0 0 0 .46-.13.606.606 0 0 0 .328-.329v.46c0 .195-.066.349-.218.48-.131.13-.306.174-.503.174-.175 0-.329-.023-.46-.087-.131-.044-.198-.154-.218-.285h-.33c0 .11.045.218.088.306a.54.54 0 0 0 .242.197c.087.044.197.087.305.11.11.021.219.044.329.044.131 0 .218-.023.306-.023.066-.02.154-.044.241-.087a.778.778 0 0 0 .285-.219.821.821 0 0 0 .154-.261.882.882 0 0 0 .066-.329c0-.13.021-.262.021-.436v-1.443c0-.11 0-.261.023-.459v-.087h-.306l-.025.349Zm1.115 1.4c0-.13.044-.24.11-.305.065-.087.155-.13.263-.174.11-.023.218-.044.328-.065h.57v.131c0 .11 0 .241-.023.328a.593.593 0 0 1-.13.285.48.48 0 0 1-.22.198.822.822 0 0 1-.349.087.606.606 0 0 1-.393-.13.488.488 0 0 1-.156-.354Zm1.27-.808h-.746c-.13.021-.239.044-.349.088a.753.753 0 0 0-.35.284.719.719 0 0 0-.13.416c0 .241.066.416.218.547.152.153.35.218.59.218a.921.921 0 0 0 .46-.131.679.679 0 0 0 .285-.262l.023-.044.021.35h.285v-.088c0-.174-.02-.328-.02-.46V75.38c0-.262-.067-.48-.22-.59-.153-.131-.349-.198-.634-.198-.24 0-.436.044-.613.154a.698.698 0 0 0-.285.524h.306a.486.486 0 0 1 .174-.329c.108-.064.24-.087.416-.087a.77.77 0 0 1 .416.11.542.542 0 0 1 .154.393v.241h-.002Zm1.335.088c0-.242.066-.437.174-.59.11-.175.285-.242.524-.242.198 0 .35.044.46.175.11.11.175.284.175.48v1.552h.285v-1.508c0-.088-.021-.198-.021-.285a1.086 1.086 0 0 0-.131-.329.503.503 0 0 0-.262-.261c-.11-.067-.262-.088-.437-.088a.765.765 0 0 0-.437.108.78.78 0 0 0-.328.329v-.023l-.021-.35h-.285v.088c0 .198.02.35.02.46v1.857h.286v-1.373h-.002Zm5.185-.395v.305h.876v1.116c-.154.044-.285.088-.416.108-.108.023-.241.023-.35.023-.241 0-.437-.023-.59-.11a.984.984 0 0 1-.416-.305c-.11-.131-.175-.285-.242-.48a2.624 2.624 0 0 1-.064-.612c0-.197.02-.372.064-.546.044-.198.11-.35.198-.503.087-.131.218-.262.372-.35a.907.907 0 0 1 .504-.13c.24 0 .416.066.59.174a.65.65 0 0 1 .285.48h.35a.615.615 0 0 0-.131-.394.91.91 0 0 0-.262-.306 2.963 2.963 0 0 0-.393-.175 1.415 1.415 0 0 0-.437-.064c-.242 0-.437.064-.635.152-.197.11-.35.24-.46.415a2.022 2.022 0 0 0-.284.568 2.37 2.37 0 0 0-.088.677c0 .262.021.503.088.722.066.24.174.415.285.59a1.399 1.399 0 0 0 1.094.503c.241 0 .46-.023.657-.065.198-.022.393-.087.59-.153v-1.64h-1.185Zm3.784.57c0 .13-.023.24-.044.348a1.122 1.122 0 0 1-.154.329.562.562 0 0 1-.262.24.655.655 0 0 1-.35.11.673.673 0 0 1-.372-.11.544.544 0 0 1-.262-.24.72.72 0 0 1-.13-.329.907.907 0 0 1-.065-.349c0-.11.023-.24.064-.349a.72.72 0 0 1 .131-.328.712.712 0 0 1 .262-.242.678.678 0 0 1 .372-.087c.132 0 .242.023.35.088.11.064.198.13.262.24.067.088.11.198.154.329a1.8 1.8 0 0 1 .044.35Zm-.81-1.269c-.197 0-.349.021-.503.088a.948.948 0 0 0-.35.305 1.143 1.143 0 0 0-.218.393 1.83 1.83 0 0 0 0 .96c.044.154.131.285.219.416a.94.94 0 0 0 .35.285c.153.064.305.11.502.11.175 0 .35-.044.481-.11a.905.905 0 0 0 .35-.285c.11-.131.174-.262.218-.416.044-.154.067-.305.067-.48 0-.154-.023-.328-.067-.48a.853.853 0 0 0-.219-.393.947.947 0 0 0-.349-.305c-.129-.067-.306-.088-.48-.088Zm3.743 1.333c0-.198-.023-.372-.044-.524a1.335 1.335 0 0 0-.198-.437.921.921 0 0 0-.35-.284c-.13-.067-.305-.088-.503-.088-.174 0-.328.021-.46.088a1.115 1.115 0 0 0-.349.284c-.087.131-.154.262-.197.416a1.825 1.825 0 0 0 0 .96c.043.154.11.285.197.416.088.108.198.218.329.285.131.064.285.11.46.11.59 0 .94-.285 1.094-.852h-.306a.636.636 0 0 1-.241.415.714.714 0 0 1-.46.175c-.262 0-.48-.087-.614-.285a1.09 1.09 0 0 1-.218-.677h1.86v-.002Zm-1.86-.262c.023-.219.108-.416.241-.59.131-.154.306-.219.524-.219.242 0 .437.067.57.218.131.154.198.35.219.59h-1.554Zm2.427-.416c0 .11.023.198.067.285.044.066.087.13.154.174.087.044.154.088.241.11.067.044.175.065.306.088.023 0 .044.023.087.023.11.02.198.043.262.066.088.021.154.044.219.087.066.023.11.067.13.131.044.044.065.11.065.198 0 .154-.064.262-.197.349a.695.695 0 0 1-.437.13.944.944 0 0 1-.46-.11.471.471 0 0 1-.218-.371h-.306c0 .13.044.24.087.328.044.11.131.175.219.241.087.067.174.11.285.131.108.023.218.044.328.044.131 0 .242-.023.373-.065.11-.022.218-.066.328-.13a.642.642 0 0 0 .219-.262.522.522 0 0 0 .087-.329.597.597 0 0 0-.11-.349.53.53 0 0 0-.306-.218 2.659 2.659 0 0 0-.524-.154 3.439 3.439 0 0 1-.46-.154c-.087-.064-.13-.13-.13-.24 0-.132.064-.242.153-.306a.759.759 0 0 1 .393-.088c.175 0 .306.023.416.088.11.064.175.174.175.305h.329c-.023-.241-.11-.393-.262-.503-.175-.11-.373-.154-.635-.154-.11 0-.218 0-.306.021a.604.604 0 0 0-.285.131.596.596 0 0 0-.218.198.674.674 0 0 0-.069.305Zm4.223 1.814V75.4h1.903v1.66h.306v-3.454h-.306v1.51h-1.903v-1.51h-.306v3.454h.306Zm5.12-1.136a1.9 1.9 0 0 0-.066-.524 1.335 1.335 0 0 0-.197-.437 1.036 1.036 0 0 0-.329-.284 1.309 1.309 0 0 0-.524-.088c-.175 0-.329.021-.46.088a1.035 1.035 0 0 0-.328.284c-.11.131-.175.262-.219.416a1.828 1.828 0 0 0-.066.48c0 .175.02.329.066.48.044.154.108.285.198.416.087.108.197.218.328.285.131.064.306.11.46.11.59 0 .963-.285 1.094-.852h-.285a.764.764 0 0 1-.262.415.703.703 0 0 1-.437.175c-.285 0-.503-.087-.634-.285-.131-.174-.198-.393-.218-.677h1.88v-.002Zm-1.86-.262c.022-.219.087-.416.218-.59.13-.154.305-.219.547-.219.241 0 .416.067.547.218a.89.89 0 0 1 .218.59h-1.53Zm2.778-.044c0-.241.067-.436.175-.567a.66.66 0 0 1 .503-.198h.108c.023 0 .044.023.067.023v-.285h-.306a.662.662 0 0 0-.328.109.929.929 0 0 0-.198.305h-.02l-.024-.35h-.285v.088c.023.198.023.329.023.46v1.857h.285v-1.442Zm3.35.306c0-.198-.022-.372-.045-.524a1.335 1.335 0 0 0-.197-.437.921.921 0 0 0-.35-.284c-.13-.067-.305-.088-.503-.088-.175 0-.329.021-.46.088a.906.906 0 0 0-.35.284c-.087.131-.153.262-.197.416a1.829 1.829 0 0 0 0 .96c.044.154.11.285.198.416.087.108.197.218.328.285.131.064.285.11.46.11.59 0 .94-.285 1.094-.852h-.305a.734.734 0 0 1-.242.415.714.714 0 0 1-.46.175c-.284 0-.48-.087-.613-.285-.154-.174-.219-.393-.219-.677H82v-.002Zm-1.86-.262c.022-.219.11-.416.24-.59.132-.154.307-.219.527-.219.241 0 .437.067.568.218.131.154.198.35.218.59H80.14Z"/><path fill="#1F5FFF" d="M54.607 5.73c3.611 0 6.542 2.93 6.542 6.536a6.542 6.542 0 0 1-6.542 6.536c-3.632 0-6.562-2.928-6.562-6.536-.002-3.606 2.93-6.537 6.562-6.537ZM27.39 32.904c3.632 0 6.562 2.928 6.562 6.536a6.55 6.55 0 0 1-6.562 6.558c-3.611 0-6.542-2.929-6.542-6.558a6.544 6.544 0 0 1 6.542-6.536Zm0-9.708c3.018 0 5.753-1.224 7.744-3.192a10.98 10.98 0 0 0 3.195-7.74c0-2.143.437-4.24 1.248-6.208A16.555 16.555 0 0 1 43.098.787a2.642 2.642 0 0 1 3.763 0 2.65 2.65 0 0 1 0 3.737 11.419 11.419 0 0 0-2.384 3.542 11.279 11.279 0 0 0-.832 4.196c0 3.018 1.225 5.748 3.216 7.74a10.92 10.92 0 0 0 7.744 3.192c1.467 0 2.887-.285 4.179-.831a10.592 10.592 0 0 0 3.544-2.361c1.05-1.03 2.736-1.03 3.763 0 1.03 1.05 1.03 2.733-.023 3.76a16.088 16.088 0 0 1-5.273 3.497 15.806 15.806 0 0 1-6.19 1.247 10.839 10.839 0 0 0-7.744 3.213 10.816 10.816 0 0 0-3.216 7.717c0 2.143-.416 4.263-1.225 6.208-.832 1.968-2.013 3.783-3.521 5.29-1.05 1.028-2.736 1.028-3.763 0-1.03-1.05-1.03-2.733 0-3.76a11.023 11.023 0 0 0 2.384-3.542c.524-1.311.809-2.733.809-4.196 0-3.016-1.225-5.748-3.195-7.717a10.919 10.919 0 0 0-7.744-3.213c-1.466 0-2.887.285-4.179.831a11.263 11.263 0 0 0-3.565 2.361c-1.03 1.05-2.712 1.027-3.742 0a2.632 2.632 0 0 1 .023-3.739 15.827 15.827 0 0 1 5.273-3.518 16.263 16.263 0 0 1 6.19-1.245Z"/><path fill="#04CE78" d="M27.39 5.73a6.539 6.539 0 0 1 6.542 6.536 6.539 6.539 0 0 1-6.542 6.536 6.539 6.539 0 0 1-6.542-6.536 6.54 6.54 0 0 1 6.542-6.537ZM54.607 32.904a6.539 6.539 0 0 1 6.542 6.536 6.539 6.539 0 0 1-6.542 6.537 6.539 6.539 0 0 1-6.541-6.537 6.539 6.539 0 0 1 6.541-6.536Z"/></svg>