<svg xmlns="http://www.w3.org/2000/svg" width="76" height="78" fill="none"><path fill="#04CE78" d="M53.978 19.487h-2.535c-.974 0-1.764-.79-1.764-1.764 0-.953.79-1.745 1.764-1.745h2.535a9.77 9.77 0 0 1 6.875 2.84 9.714 9.714 0 0 1 2.859 6.894 9.714 9.714 0 0 1-2.86 6.894 9.766 9.766 0 0 1-6.874 2.837H41.12a3.574 3.574 0 0 1-6.692-1.743 3.579 3.579 0 0 1 3.569-3.589 3.61 3.61 0 0 1 3.123 1.824h12.857a6.224 6.224 0 0 0 0-12.448Z"/><path fill="#fff" d="M31.775 9.753v2.514c0 .973-.79 1.764-1.764 1.764a1.76 1.76 0 0 1-1.745-1.764V9.753a9.714 9.714 0 0 1 2.86-6.894 9.714 9.714 0 0 1 13.769 0 9.698 9.698 0 0 1 2.839 6.894v12.835a3.589 3.589 0 0 1 1.824 3.123 3.574 3.574 0 0 1-3.569 3.569 3.574 3.574 0 0 1-3.568-3.569c0-1.337.73-2.494 1.804-3.123V9.753c0-1.724-.69-3.285-1.825-4.42A6.214 6.214 0 0 0 38 3.508c-1.723 0-3.264.71-4.4 1.823a6.214 6.214 0 0 0-1.825 4.42Z"/><path fill="#04CE78" d="M22.041 35.443a9.785 9.785 0 0 1-6.894-2.837 9.696 9.696 0 0 1-2.838-6.894 9.696 9.696 0 0 1 2.838-6.894 9.779 9.779 0 0 1 6.894-2.84h12.855a3.534 3.534 0 0 1 3.102-1.826 3.56 3.56 0 0 1 3.569 3.569c0 1.987-1.581 3.59-3.569 3.59a3.57 3.57 0 0 1-3.102-1.826H22.041a6.128 6.128 0 0 0-4.4 1.825 6.137 6.137 0 0 0-1.825 4.402c0 1.725.69 3.285 1.826 4.399a6.134 6.134 0 0 0 4.4 1.824h2.534c.953 0 1.745.79 1.745 1.764 0 .973-.79 1.742-1.745 1.742h-2.535v.002Z"/><path fill="#fff" d="M47.732 41.668a9.697 9.697 0 0 1-2.84 6.894 9.714 9.714 0 0 1-13.769 0 9.714 9.714 0 0 1-2.859-6.894V28.833a3.591 3.591 0 0 1-1.825-3.123 3.574 3.574 0 0 1 3.568-3.569c1.986 0 3.59 1.602 3.59 3.569 0 1.337-.73 2.494-1.826 3.123v12.835c0 1.724.688 3.285 1.826 4.42 1.135 1.117 2.676 1.826 4.4 1.826 1.723 0 3.284-.71 4.399-1.825a6.222 6.222 0 0 0 1.825-4.42v-2.515c0-.973.79-1.764 1.764-1.764s1.745.79 1.745 1.764v2.514h.002ZM5.982 60.221v3.954H2.94v-3.954H0v10.93h2.94v-4.562h3.042v4.561h2.94V60.221h-2.94Zm10.441 11.153c3.245 0 5.597-2.576 5.597-5.699 0-3.142-2.352-5.698-5.597-5.698-3.265 0-5.617 2.554-5.617 5.698.002 3.125 2.354 5.699 5.617 5.699Zm0-2.716c-1.116 0-2.27-.65-2.27-3.002s1.156-2.961 2.27-2.961c1.074 0 2.25.607 2.25 2.961.002 2.352-1.174 3.002-2.25 3.002Zm13.546-5.516.364-2.535c-.71-.264-1.947-.61-3.183-.61-1.662 0-3.892.61-3.892 3.205 0 2.007 1.318 2.697 3.73 3.73.75.324 1.317.569 1.317 1.114 0 .527-.548.67-1.136.67-.79 0-1.885-.243-3.468-.831l-.466 2.656c1.764.75 3.163.812 3.81.812 2.86 0 4.238-1.197 4.238-3.326 0-1.926-1.135-2.859-3.468-3.73-1.074-.407-1.845-.588-1.845-1.095 0-.467.67-.69 1.4-.69.896.002 1.849.325 2.598.63Zm6.936-2.92h-4.116V71.15h2.961v-3.366c3.245 0 5.657-.65 5.657-4.035 0-2.533-1.543-3.528-4.502-3.528Zm-1.157 5.293v-3.204h.933c.69 0 1.826 0 1.826 1.54 0 1.643-.67 1.664-2.759 1.664Zm10.503-5.294h-2.96v10.93h2.96V60.22Zm10.017 0H47.53v2.414h2.9v8.515h2.94v-8.515h2.9v-2.414Zm7.565 10.931h3.569L63.65 60.223h-3.549l-3.609 10.93h3.569l.566-2.453h2.616l.59 2.452Zm-2.656-4.868.65-2.88h.161l.69 2.88h-1.501Zm10.381-6.063h-2.94v10.93H76v-2.414h-4.44V60.22h-.002Z"/><path fill="#04CE78" d="M42.764 76.302c0-.143-.022-.265-.081-.346a.903.903 0 0 0-.224-.264c-.081-.061-.183-.102-.283-.142-.1-.04-.224-.103-.386-.143-.143-.06-.264-.1-.345-.121a.687.687 0 0 1-.243-.143.392.392 0 0 1-.183-.183.402.402 0 0 1-.081-.264c0-.103.021-.183.08-.264a.656.656 0 0 1 .405-.264c.103-.022.184-.041.265-.041.102 0 .183 0 .264.02.08.02.162.04.224.08.061.04.121.081.161.162.041.062.062.143.062.243h.305a.967.967 0 0 0-.122-.386.948.948 0 0 0-.264-.242c-.102-.041-.202-.081-.304-.103a1.12 1.12 0 0 0-.365-.04c-.121 0-.243.02-.364.061-.122.041-.243.082-.324.163a.804.804 0 0 0-.243.283.688.688 0 0 0-.08.364c0 .143.04.264.101.365.06.121.143.202.264.283.103.06.224.121.324.162.122.062.264.1.446.162.08.02.142.04.183.06.142.04.264.121.364.202a.49.49 0 0 1 .143.345c0 .102-.02.203-.081.283a.52.52 0 0 1-.183.184.455.455 0 0 1-.243.121c-.102.02-.183.04-.284.04-.102 0-.202-.02-.304-.04a.597.597 0 0 1-.264-.102.489.489 0 0 1-.162-.183.818.818 0 0 1-.062-.305h-.324c0 .122.04.243.081.345.062.122.122.224.203.305.102.08.202.142.323.183.1.04.224.062.346.062.183 0 .345-.021.487-.04.141-.041.284-.082.405-.163a.71.71 0 0 0 .264-.283.84.84 0 0 0 .099-.416Zm.892-2.372h-.264v3.224h.264V73.93Zm2.352 2.11c0 .101-.021.223-.04.323-.04.102-.081.203-.143.305a.882.882 0 0 1-.243.223c-.08.062-.202.081-.324.081a.662.662 0 0 1-.345-.08c-.102-.06-.162-.143-.223-.224-.06-.102-.122-.203-.143-.305-.04-.102-.04-.224-.04-.324 0-.121 0-.223.04-.345.021-.102.08-.202.143-.304.061-.081.121-.162.223-.224a.964.964 0 0 1 .345-.081c.122 0 .243.04.324.081.102.06.183.143.243.224.062.1.102.202.143.304.02.122.04.222.04.345Zm-.75-1.198c-.183 0-.324.04-.466.102-.122.06-.243.162-.324.264a1.337 1.337 0 0 0-.183.386c-.062.143-.081.283-.081.445 0 .143.019.284.08.426.041.141.103.284.184.386a.822.822 0 0 0 .324.264c.142.081.283.102.466.102.162 0 .324-.021.446-.102a.886.886 0 0 0 .345-.264c.08-.102.142-.243.183-.386a1.548 1.548 0 0 0 0-.871 1.34 1.34 0 0 0-.183-.386 1.12 1.12 0 0 0-.345-.264 1.017 1.017 0 0 0-.446-.102Zm3.143 1.136c0 .121-.02.223-.04.345-.041.102-.082.202-.122.283-.062.102-.143.162-.224.224a.842.842 0 0 1-.324.06.497.497 0 0 1-.304-.082.445.445 0 0 1-.224-.202 1.382 1.382 0 0 1-.143-.304c-.019-.103-.04-.203-.04-.305 0-.122.021-.224.04-.324.04-.1.081-.202.122-.283.06-.103.142-.162.221-.224a.751.751 0 0 1 .305-.081c.121 0 .224.04.324.081a.713.713 0 0 1 .345.486.935.935 0 0 1 .064.326Zm0-.731-.02.02a1.148 1.148 0 0 0-.304-.325.933.933 0 0 0-.852 0 .918.918 0 0 0-.305.243.907.907 0 0 0-.162.386c-.04.142-.06.283-.06.445 0 .162.02.305.06.445.04.122.081.243.162.346a.88.88 0 0 0 .305.242.93.93 0 0 0 .426.081.859.859 0 0 0 .447-.102.807.807 0 0 0 .283-.304h.02v.405c0 .183-.081.345-.203.445a.728.728 0 0 1-.486.181.93.93 0 0 1-.426-.08.335.335 0 0 1-.202-.284H46.8c0 .121.022.223.082.283.04.081.12.143.202.202.08.041.183.081.283.103.102.02.203.02.305.02.121 0 .202 0 .283-.02.062-.02.143-.04.243-.081a.732.732 0 0 0 .243-.183.49.49 0 0 0 .143-.264c.04-.1.061-.203.061-.305.02-.102.02-.243.02-.386v-1.359c0-.08 0-.223.021-.426v-.08h-.283v.352H48.4Zm1.035 1.278c0-.121.02-.202.08-.283a.495.495 0 0 1 .244-.143.843.843 0 0 1 .324-.062c.1 0 .223-.019.364-.019h.143v.062c.019.04.019.06.019.06 0 .121-.02.223-.04.323s-.06.184-.103.265a.5.5 0 0 1-.223.183.713.713 0 0 1-.324.06.477.477 0 0 1-.345-.122c-.099-.06-.14-.181-.14-.324Zm1.155-.75h-.264c-.162 0-.305 0-.426.021-.122.022-.222.04-.324.081a.823.823 0 0 0-.324.264.626.626 0 0 0-.122.386c0 .203.081.386.224.507a.763.763 0 0 0 .528.183c.143 0 .283-.04.426-.102.122-.08.224-.162.264-.264l.021-.02h.02v.325h.283c0-.041-.02-.081-.02-.081v-1.481c0-.264-.08-.447-.223-.569-.121-.121-.324-.183-.588-.183-.223 0-.405.062-.567.162-.142.102-.223.264-.264.467h.284c.021-.143.08-.243.183-.284.08-.06.224-.1.364-.1.162 0 .305.04.386.121.08.062.142.184.142.367v.2h-.003Zm1.237.081c0-.202.062-.385.162-.547a.614.614 0 0 1 .486-.224c.183 0 .324.06.426.162a.681.681 0 0 1 .162.466v1.44h.264v-1.399c0-.102 0-.183-.019-.283-.021-.103-.062-.184-.102-.284a.715.715 0 0 0-.243-.243.933.933 0 0 0-.426-.102.907.907 0 0 0-.405.102.586.586 0 0 0-.283.305h-.02l-.019-.345h-.264v.08c.021.203.021.346.021.427v1.745h.264v-1.3h-.004Zm4.806-.345v.264h.812v1.035c-.142.04-.264.081-.385.103-.103.019-.224.04-.324.04-.203 0-.407-.04-.548-.102a.928.928 0 0 1-.385-.284 1.238 1.238 0 0 1-.203-.445 1.772 1.772 0 0 1-.08-.588c0-.162.02-.345.06-.507a1.71 1.71 0 0 1 .184-.445c.102-.143.203-.243.345-.324a.967.967 0 0 1 .486-.121c.202 0 .386.04.526.142a.584.584 0 0 1 .264.446h.324a.685.685 0 0 0-.102-.365 1.075 1.075 0 0 0-.264-.264.742.742 0 0 0-.364-.162 1.278 1.278 0 0 0-.386-.062c-.224 0-.426.04-.61.143-.161.081-.304.224-.425.364a1.736 1.736 0 0 0-.264.548 2.07 2.07 0 0 0-.081.61c0 .263.019.487.08.69.062.202.163.385.284.526a.901.901 0 0 0 .426.345c.183.08.366.121.588.121.203 0 .405-.021.588-.04.183-.04.364-.081.569-.162v-1.5h-1.114v-.006Zm3.507.528c0 .102-.019.224-.04.324-.04.102-.081.203-.143.305a.909.909 0 0 1-.243.223c-.08.062-.202.081-.324.081a.615.615 0 0 1-.345-.08c-.102-.06-.162-.143-.243-.224a.96.96 0 0 1-.121-.305c-.04-.102-.04-.224-.04-.324 0-.121 0-.223.04-.345a.959.959 0 0 1 .121-.304c.081-.081.143-.162.243-.224.102-.04.203-.081.345-.081.122 0 .243.04.324.081.102.06.183.143.243.224.062.1.102.202.143.304.021.122.04.222.04.345Zm-.75-1.197c-.183 0-.324.04-.466.102-.122.06-.243.162-.324.264a2.203 2.203 0 0 0-.203.386c-.04.143-.06.283-.06.445 0 .143.02.284.06.426.062.141.122.284.203.386a.822.822 0 0 0 .324.264c.142.081.283.102.466.102.162 0 .324-.021.448-.102a.697.697 0 0 0 .324-.264.874.874 0 0 0 .202-.386 1.548 1.548 0 0 0 0-.871.991.991 0 0 0-.203-.386.854.854 0 0 0-.323-.264 1.026 1.026 0 0 0-.448-.102ZM62.88 76.1c0-.183-.02-.345-.06-.507a1.134 1.134 0 0 0-.183-.385.708.708 0 0 0-.324-.265 1.043 1.043 0 0 0-.466-.102.959.959 0 0 0-.75.366 1.134 1.134 0 0 0-.184.386 1.676 1.676 0 0 0 0 .89c.04.143.103.265.184.365.08.122.183.203.304.264.122.081.264.102.426.102.548 0 .893-.264 1.014-.77h-.283a.639.639 0 0 1-.224.385.617.617 0 0 1-.405.142c-.264 0-.466-.08-.588-.242-.121-.162-.183-.365-.202-.629h1.74Zm-1.724-.243c.021-.224.081-.407.203-.547a.614.614 0 0 1 .486-.224.74.74 0 0 1 .528.203.84.84 0 0 1 .202.568h-1.419Zm2.23-.385c0 .102.022.18.063.242a.47.47 0 0 0 .161.184c.062.04.122.08.203.102.08.021.162.04.283.08.022 0 .04 0 .081.02.102.02.183.04.243.06.081 0 .143.04.203.061.06.041.102.082.142.122.02.062.04.121.04.183 0 .143-.059.264-.182.324a.645.645 0 0 1-.405.121.933.933 0 0 1-.426-.102c-.122-.06-.183-.183-.183-.324h-.305c.021.122.04.224.08.305.063.08.122.162.203.202a.603.603 0 0 0 .264.122c.1.04.203.04.305.04.121 0 .243-.02.345-.04a.71.71 0 0 0 .305-.143c.08-.061.162-.121.223-.223a.842.842 0 0 0 .06-.324.476.476 0 0 0-.102-.324.662.662 0 0 0-.264-.203c-.122-.04-.283-.08-.507-.142a1.686 1.686 0 0 1-.426-.143c-.081-.04-.122-.121-.122-.224 0-.121.062-.202.162-.264.102-.06.203-.1.345-.1.162 0 .284.04.386.1a.362.362 0 0 1 .183.284h.284c-.022-.224-.103-.386-.243-.488a1.176 1.176 0 0 0-.872-.102c-.102.021-.183.062-.264.102a.587.587 0 0 0-.183.202.512.512 0 0 0-.08.29Zm3.914 1.683v-1.54h1.764v1.54h.284V73.93h-.284v1.42H67.3v-1.42h-.283v3.224h.283Zm4.747-1.055c0-.183-.021-.345-.062-.507a1.1 1.1 0 0 0-.183-.385.77.77 0 0 0-.305-.265 1.193 1.193 0 0 0-.466-.102c-.162 0-.305.04-.445.102a.753.753 0 0 0-.305.265 1.68 1.68 0 0 0-.203.385 1.676 1.676 0 0 0 0 .89c.04.143.1.265.184.365a.708.708 0 0 0 .324.264c.12.081.264.102.426.102.526 0 .871-.264 1.014-.77h-.284a.786.786 0 0 1-.243.385.581.581 0 0 1-.407.142c-.264 0-.445-.08-.587-.242-.122-.162-.184-.365-.184-.629h1.726Zm-1.724-.243a.96.96 0 0 1 .224-.547.614.614 0 0 1 .486-.224c.223 0 .385.081.507.203a.972.972 0 0 1 .223.568h-1.44Zm2.574-.061c.021-.203.062-.386.183-.508.102-.142.243-.202.447-.202.02 0 .04 0 .1.02h.062v-.265h-.264a.414.414 0 0 0-.304.122.562.562 0 0 0-.203.283h-.021V74.9h-.283v.102c.019.162.019.305.019.405v1.745h.264v-1.358Zm3.102.304c0-.183 0-.345-.04-.507a1.134 1.134 0 0 0-.184-.385.708.708 0 0 0-.324-.265 1.043 1.043 0 0 0-.466-.102.933.933 0 0 0-.426.102.806.806 0 0 0-.324.265c-.081.102-.143.242-.183.385a1.673 1.673 0 0 0 0 .89c.04.143.102.265.183.365a.769.769 0 0 0 .305.264c.121.081.264.102.426.102.547 0 .892-.264 1.014-.77h-.284a.626.626 0 0 1-.647.528c-.243 0-.448-.082-.57-.243a1.012 1.012 0 0 1-.202-.629h1.722Zm-1.702-.243c.019-.224.08-.407.202-.547a.615.615 0 0 1 .488-.224c.223 0 .405.081.526.203.121.142.183.323.203.568h-1.42Z"/></svg>