<svg xmlns="http://www.w3.org/2000/svg" width="82" height="78" fill="none"><path fill="#fff" d="M6.453 58.806v4.285H3.194v-4.285H0v11.78h3.194v-4.895h3.259v4.896h3.194V58.805H6.453Zm11.264 12.022c3.5 0 6.037-2.777 6.037-6.141 0-3.388-2.537-6.12-6.037-6.12-3.52 0-6.06 2.732-6.06 6.12 0 3.364 2.54 6.14 6.06 6.14Zm0-2.907c-1.202 0-2.45-.7-2.45-3.236 0-2.559 1.248-3.213 2.45-3.213 1.158 0 2.429.654 2.429 3.213-.002 2.535-1.27 3.236-2.429 3.236Zm14.633-5.946.373-2.733c-.766-.305-2.078-.677-3.434-.677-1.794 0-4.198.677-4.198 3.474 0 2.143 1.443 2.908 4.024 4.022.809.328 1.422.59 1.422 1.203 0 .567-.59.72-1.225.72-.852 0-2.013-.26-3.74-.895l-.504 2.841c1.903.831 3.412.896 4.111.896 3.084 0 4.57-1.311 4.57-3.606 0-2.076-1.201-3.061-3.74-4-1.16-.437-1.99-.657-1.99-1.18 0-.504.721-.766 1.51-.766.962 0 1.99.372 2.821.7Zm7.457-3.17h-4.419v11.782h3.172v-3.629c3.5 0 6.124-.677 6.124-4.35.002-2.71-1.682-3.802-4.877-3.802Zm-1.245 5.705v-3.454h1.006c.745 0 1.97 0 1.97 1.684-.002 1.77-.724 1.77-2.976 1.77Zm11.329-5.705h-3.194v11.782h3.194V58.805Zm10.805 0H51.27v2.602h3.127v9.18h3.194v-9.18h3.107v-2.601h-.002Zm8.157 11.782h3.85l-4.047-11.782h-3.828l-3.893 11.782h3.849l.611-2.623h2.822l.636 2.623Zm-2.863-5.225.699-3.125h.175l.744 3.125H65.99Zm11.198-6.556h-3.171v11.78H82v-2.601h-4.812v-9.18Z"/><path fill="#04CE78" d="M46.13 76.161a.738.738 0 0 0-.088-.393.63.63 0 0 0-.218-.262 2.283 2.283 0 0 0-.329-.174c-.11-.044-.241-.087-.416-.154a2.323 2.323 0 0 1-.372-.13 1.45 1.45 0 0 1-.262-.132.63.63 0 0 1-.198-.218.55.55 0 0 1-.087-.285c0-.108.044-.197.087-.262a.433.433 0 0 1 .198-.197.726.726 0 0 1 .262-.108c.087-.02.175-.044.262-.044.11 0 .197.023.285.044.087 0 .175.044.241.087.067.021.131.087.175.154a.47.47 0 0 1 .066.262h.329a.995.995 0 0 0-.131-.393 1.012 1.012 0 0 0-.262-.262 1.2 1.2 0 0 0-.35-.13c-.13-.021-.262-.044-.372-.044-.154 0-.285.023-.416.064a1.66 1.66 0 0 0-.349.175 1.162 1.162 0 0 0-.262.305.744.744 0 0 0-.087.395c0 .154.043.305.11.416.064.11.175.218.285.284.108.088.24.154.35.198.13.043.284.11.48.154a.513.513 0 0 0 .197.066c.175.067.306.131.393.218.11.108.154.241.154.393a.449.449 0 0 1-.087.285c-.044.087-.11.154-.175.218-.087.044-.175.087-.285.11-.087.044-.198.044-.306.044-.108 0-.218 0-.328-.023a.746.746 0 0 1-.262-.108.633.633 0 0 1-.198-.218.732.732 0 0 1-.066-.329h-.35c0 .131.044.262.088.395.066.108.13.218.24.306a.828.828 0 0 0 .33.197c.11.067.24.087.392.087.175 0 .35-.02.504-.064.154-.023.305-.087.436-.154.11-.087.219-.174.285-.305.085-.14.106-.293.106-.468Zm.962-2.556h-.285v3.454h.285v-3.454Zm2.537 2.25c0 .132-.023.242-.044.35-.043.13-.087.24-.154.328a.636.636 0 0 1-.24.241.734.734 0 0 1-.373.11.734.734 0 0 1-.372-.11.636.636 0 0 1-.241-.241.79.79 0 0 1-.154-.328c-.044-.11-.044-.218-.044-.35 0-.11 0-.24.044-.349a.741.741 0 0 1 .154-.328c.066-.108.154-.174.24-.241a.735.735 0 0 1 .373-.087c.131 0 .262.023.372.087.088.067.175.13.242.241.066.087.11.198.153.328.021.109.044.24.044.35Zm-.809-1.267c-.197 0-.35.02-.503.087-.131.087-.262.175-.35.306a1.109 1.109 0 0 0-.197.392 1.87 1.87 0 0 0-.087.48c0 .175.043.329.087.48.044.154.11.285.198.416.087.108.218.218.349.285.154.064.306.108.503.108.175 0 .35-.044.48-.108.154-.067.263-.175.373-.285.087-.13.154-.262.197-.415.044-.154.067-.306.067-.48 0-.154-.023-.329-.067-.48a1.109 1.109 0 0 0-.197-.393 1.27 1.27 0 0 0-.373-.306c-.13-.066-.305-.087-.48-.087Zm3.39 1.224c0 .11-.021.241-.044.35-.023.11-.087.217-.131.327a1.146 1.146 0 0 1-.241.219.652.652 0 0 1-.35.087.727.727 0 0 1-.328-.087.64.64 0 0 1-.241-.241c-.067-.088-.11-.198-.154-.306a2.03 2.03 0 0 1-.044-.35c0-.107.02-.217.044-.348a1.27 1.27 0 0 1 .154-.306.525.525 0 0 1 .218-.218.63.63 0 0 1 .329-.087.9.9 0 0 1 .349.066c.087.067.175.131.241.241.067.088.11.198.154.306.023.106.044.216.044.347Zm0-.808-.021.022a.792.792 0 0 0-.329-.328c-.13-.087-.285-.108-.46-.108-.174 0-.328.02-.459.087a1.036 1.036 0 0 0-.328.285c-.088.11-.131.241-.175.393a1.705 1.705 0 0 0-.067.48c0 .174.023.328.067.48.044.154.11.285.175.395a.97.97 0 0 0 .328.262c.131.043.285.087.48.087a.921.921 0 0 0 .46-.131.64.64 0 0 0 .306-.328h.02v.459c0 .197-.087.349-.218.482a.766.766 0 0 1-.524.175c-.175 0-.328-.023-.46-.088-.13-.043-.197-.153-.218-.284h-.305c0 .11.023.218.087.305a.48.48 0 0 0 .218.198c.088.043.198.087.306.11.11.02.218.043.35.043.11 0 .218-.023.284-.023.088-.02.154-.043.262-.087.11-.066.198-.13.285-.218.067-.087.11-.175.154-.262.02-.11.044-.218.044-.328.02-.131.02-.262.02-.437v-1.442c0-.11 0-.262.021-.46v-.087h-.305v.347h.002Zm1.116 1.398c0-.13.021-.24.088-.305a.765.765 0 0 1 .285-.175c.11-.023.218-.044.328-.064h.547v.064c.02.02.02.044.02.067 0 .11-.02.24-.043.328a.858.858 0 0 1-.11.285.54.54 0 0 1-.241.197.748.748 0 0 1-.35.087.515.515 0 0 1-.372-.13c-.108-.092-.152-.2-.152-.354Zm1.246-.808h-.745c-.11.023-.24.043-.328.087a.817.817 0 0 0-.372.285.72.72 0 0 0-.131.415c0 .241.087.416.24.547.155.154.35.218.57.218a.921.921 0 0 0 .46-.13.738.738 0 0 0 .306-.263v-.043h.02v.349h.306v-.087c-.022-.175-.022-.329-.022-.46v-1.136c0-.262-.088-.48-.242-.59-.13-.132-.349-.198-.613-.198-.262 0-.46.044-.611.154-.175.108-.262.284-.306.523h.306c.02-.153.087-.261.197-.328.087-.064.241-.087.393-.087.198 0 .329.043.416.11a.541.541 0 0 1 .154.393v.24h.002Zm1.335.087c0-.241.067-.436.175-.59.13-.175.305-.241.526-.241.197 0 .35.043.46.174.108.11.174.285.174.48v1.553h.285v-1.509c0-.087 0-.197-.02-.285-.022-.11-.067-.218-.111-.328a.771.771 0 0 0-.262-.262c-.131-.066-.262-.087-.46-.087a.765.765 0 0 0-.436.108.64.64 0 0 0-.306.328l-.02-.023v-.349h-.306v.087c.022.198.022.35.022.46v1.858h.285V75.68h-.006Zm5.205-.395v.306h.852v1.116c-.153.043-.284.087-.415.108a1.81 1.81 0 0 1-.35.023c-.218 0-.416-.023-.59-.11a1.002 1.002 0 0 1-.416-.306 1.405 1.405 0 0 1-.219-.48 2.577 2.577 0 0 1-.087-.611c0-.198.023-.372.065-.547.043-.197.11-.349.218-.503.087-.13.197-.261.35-.349.153-.087.328-.13.523-.13a.99.99 0 0 1 .57.174c.175.108.262.262.285.48h.372a1.018 1.018 0 0 0-.13-.395 1.257 1.257 0 0 0-.286-.305 1.637 1.637 0 0 0-.809-.24c-.24 0-.46.065-.657.154-.174.11-.328.241-.46.416a2.005 2.005 0 0 0-.284.57 2.37 2.37 0 0 0-.087.677c0 .262.02.503.087.721.064.241.175.416.306.59.11.154.284.285.46.372.197.088.392.131.633.131.219 0 .437-.02.635-.064.197-.023.393-.088.61-.154v-1.64h-1.176v-.004Zm3.762.57c0 .13-.021.24-.044.349-.044.13-.087.24-.154.328a.552.552 0 0 1-.262.241.597.597 0 0 1-.35.11.734.734 0 0 1-.371-.11.636.636 0 0 1-.242-.241.765.765 0 0 1-.154-.328c-.043-.11-.043-.218-.043-.35 0-.11 0-.24.043-.349a.741.741 0 0 1 .154-.328.886.886 0 0 1 .242-.241.735.735 0 0 1 .372-.087c.13 0 .262.023.35.087a.68.68 0 0 1 .261.241c.067.087.11.198.154.328a1.8 1.8 0 0 1 .044.35Zm-.81-1.268c-.197 0-.349.02-.502.087-.131.087-.262.175-.35.306a1.109 1.109 0 0 0-.197.392 1.232 1.232 0 0 0-.088.48c0 .175.021.329.088.48.043.154.11.285.197.416.087.108.218.218.35.285.153.064.305.108.503.108.175 0 .35-.044.48-.108.154-.067.262-.175.372-.285.088-.13.154-.262.198-.415.044-.154.067-.306.067-.48 0-.154-.021-.329-.067-.48a1.093 1.093 0 0 0-.198-.393 1.27 1.27 0 0 0-.372-.306c-.13-.066-.305-.087-.48-.087Zm3.763 1.332c0-.197-.021-.372-.065-.524a1.332 1.332 0 0 0-.198-.436 1.035 1.035 0 0 0-.328-.285 1.31 1.31 0 0 0-.524-.087c-.175 0-.329.02-.46.087a1.036 1.036 0 0 0-.328.285 1.07 1.07 0 0 0-.219.416 1.829 1.829 0 0 0-.066.48c0 .174.023.328.067.48.043.153.11.284.197.415.087.108.198.218.329.285.13.064.305.108.46.108.59 0 .962-.285 1.093-.852H67.5a.763.763 0 0 1-.262.416.702.702 0 0 1-.437.174c-.285 0-.503-.087-.634-.285-.13-.174-.197-.392-.218-.677h1.878Zm-1.86-.262c.023-.218.088-.415.219-.59.13-.154.305-.218.547-.218.241 0 .416.066.547.218.13.154.218.35.218.59h-1.53Zm2.407-.415c0 .11.022.197.066.284.044.065.11.131.175.175.066.043.13.087.218.108.087.043.175.064.306.087.023 0 .043.023.087.023.11.02.198.044.285.067.067.022.13.043.198.087.066.023.11.066.153.13.021.044.044.11.044.198a.425.425 0 0 1-.175.35.81.81 0 0 1-.46.13c-.174 0-.328-.044-.459-.11a.406.406 0 0 1-.197-.372h-.329c.02.131.044.241.088.328.066.11.13.175.218.242.087.066.174.11.285.13.11.023.218.044.328.044.131 0 .262-.02.373-.064a.768.768 0 0 0 .328-.131.713.713 0 0 0 .241-.262.733.733 0 0 0 .067-.328c0-.131-.023-.262-.11-.35a.478.478 0 0 0-.285-.218c-.131-.043-.306-.11-.524-.154-.219-.066-.373-.11-.46-.153-.087-.065-.13-.131-.13-.241 0-.131.043-.242.153-.306a.682.682 0 0 1 .372-.087c.175 0 .306.023.416.087.11.067.175.175.198.306h.305c-.02-.242-.11-.393-.262-.503-.154-.11-.372-.154-.611-.154-.11 0-.218 0-.329.02a.674.674 0 0 0-.285.132.424.424 0 0 0-.197.197.496.496 0 0 0-.091.308Zm4.242 1.814v-1.66h1.882v1.66h.328v-3.452h-.328v1.509h-1.882v-1.51h-.329v3.455h.329v-.002Zm5.096-1.137c0-.197-.02-.372-.066-.524a1.305 1.305 0 0 0-.175-.436 1.116 1.116 0 0 0-.35-.285 1.203 1.203 0 0 0-.502-.087c-.175 0-.329.02-.48.087a1.035 1.035 0 0 0-.33.285c-.087.13-.153.262-.197.416a1.27 1.27 0 0 0-.087.48c0 .174.02.328.066.48.044.153.11.284.198.415a.94.94 0 0 0 .35.285c.13.064.284.108.459.108.567 0 .94-.285 1.094-.852h-.306a.872.872 0 0 1-.241.416.713.713 0 0 1-.46.174c-.285 0-.48-.087-.634-.285-.131-.174-.198-.392-.198-.677h1.86Zm-1.859-.262c.023-.218.11-.415.242-.59.13-.154.305-.218.524-.218.24 0 .415.066.546.218.154.154.219.35.242.59h-1.554Zm2.779-.043c.022-.242.087-.437.197-.57.11-.13.262-.197.48-.197h.11c.021 0 .044.023.067.023v-.285H79.201a.546.546 0 0 0-.328.108.72.72 0 0 0-.219.305h-.022v-.349h-.306v.087c.02.198.02.329.02.46v1.858h.285v-1.44ZM82 75.92c0-.197-.023-.372-.066-.524a1.334 1.334 0 0 0-.198-.436.922.922 0 0 0-.35-.285c-.13-.066-.305-.087-.502-.087-.175 0-.329.02-.46.087a1.412 1.412 0 0 0-.35.285c-.087.13-.153.262-.197.416a1.828 1.828 0 0 0-.066.48c0 .174.02.328.066.48.044.153.11.284.198.415.087.108.197.218.328.285.131.064.285.108.46.108.59 0 .963-.285 1.094-.852h-.306a.635.635 0 0 1-.241.416.702.702 0 0 1-.437.174c-.285 0-.503-.087-.634-.285-.131-.174-.198-.392-.219-.677H82Zm-1.859-.262c.021-.218.087-.415.219-.59.13-.154.305-.218.524-.218.24 0 .436.066.567.218a.89.89 0 0 1 .219.59H80.14ZM62.763 1.734c8.732 5.104 9.488 20.042 1.693 33.365-7.796 13.324-21.197 19.989-29.928 14.885-8.732-5.105-9.489-20.043-1.693-33.366C40.633 3.295 54.031-3.37 62.763 1.734Z"/><path fill="#fff" d="M19.227 1.71c-8.728 5.114-9.47 20.043-1.685 33.377 7.809 13.334 21.217 20 29.943 14.907 8.727-5.093 9.47-20.044 1.684-33.378C41.361 3.285 27.954-3.382 19.227 1.71Z"/></svg>