<svg xmlns="http://www.w3.org/2000/svg" width="78" height="78" fill="none"><path fill="#fff" d="M6.138 59.413v4.155H3.017v-4.155H0v11.424h3.017v-4.77h3.12v4.77h3.017V59.413H6.138ZM16.853 71.07c3.329 0 5.742-2.692 5.742-5.956 0-3.285-2.413-5.957-5.742-5.957-3.349 0-5.764 2.67-5.764 5.957 0 3.264 2.415 5.956 5.764 5.956Zm0-2.84c-1.143 0-2.33-.678-2.33-3.137 0-2.458 1.187-3.095 2.33-3.095 1.102 0 2.308.635 2.308 3.095 0 2.459-1.206 3.138-2.308 3.138Zm13.898-5.764.373-2.65c-.727-.276-1.997-.637-3.265-.637-1.707 0-3.996.637-3.996 3.35 0 2.097 1.353 2.818 3.828 3.92.769.319 1.353.573 1.353 1.167 0 .55-.562.68-1.166.68-.81 0-1.934-.255-3.558-.87l-.479 2.778c1.81.784 3.246.848 3.91.848 2.934 0 4.349-1.251 4.349-3.476 0-2.013-1.165-2.966-3.557-3.88-1.104-.444-1.893-.636-1.893-1.164 0-.488.687-.721 1.436-.721.918-.002 1.895.336 2.665.655Zm7.115-3.053h-4.224v11.424h3.039v-3.519c3.329 0 5.805-.677 5.805-4.218-.002-2.648-1.582-3.687-4.62-3.687Zm-1.185 5.531v-3.349h.957c.708 0 1.871 0 1.871 1.61 0 1.72-.686 1.74-2.828 1.74Zm10.776-5.531H44.42v11.424h3.038V59.413Zm10.278 0h-8.966v2.523h2.974v8.902h3.017v-8.902h2.975v-2.523Zm7.76 11.424h3.661l-3.85-11.424h-3.64l-3.703 11.424h3.663l.583-2.566h2.684l.602 2.566Zm-2.724-5.065.665-3.03h.166l.708 3.03h-1.539Zm10.652-6.36h-3.017v11.425h7.574v-2.523h-4.555v-8.901h-.002Z"/><path fill="#04CE78" d="M43.879 76.22c0-.149-.022-.276-.083-.36a.67.67 0 0 0-.23-.254c-.083-.085-.188-.127-.29-.17-.105-.042-.23-.106-.396-.149a2.18 2.18 0 0 1-.354-.127.684.684 0 0 1-.25-.149.415.415 0 0 1-.187-.191.426.426 0 0 1-.083-.276c0-.107.02-.192.083-.276a.638.638 0 0 1 .166-.17c.083-.042.166-.084.25-.106.102-.022.187-.043.27-.043.105 0 .188 0 .271.023.083.022.166.042.23.084a.637.637 0 0 1 .166.17c.041.062.061.149.061.253h.313a.993.993 0 0 0-.125-.403.686.686 0 0 0-.271-.233.928.928 0 0 0-.313-.127c-.124-.043-.249-.043-.354-.043-.146 0-.27.022-.395.065-.125.042-.25.085-.334.17a.858.858 0 0 0-.25.295.73.73 0 0 0-.083.381c0 .147.042.276.105.403a.85.85 0 0 0 .271.276c.103.085.227.127.332.192.125.042.271.084.457.149.083.02.147.042.188.064.147.043.271.127.374.212a.53.53 0 0 1 .146.38.482.482 0 0 1-.083.277.416.416 0 0 1-.188.191.477.477 0 0 1-.249.127c-.105.022-.188.043-.29.043-.103 0-.208 0-.313-.023a.662.662 0 0 1-.271-.127.508.508 0 0 1-.166-.191.72.72 0 0 1-.063-.318h-.333c0 .127.042.254.083.36.063.127.125.234.208.319.105.084.208.147.332.19.103.041.23.064.354.064.188 0 .354 0 .5-.043.147-.042.291-.084.416-.169a.75.75 0 0 0 .271-.296.833.833 0 0 0 .107-.444Zm.916-2.48h-.271v3.37h.27v-3.37Zm2.413 2.204c0 .107-.022.234-.042.339a1.454 1.454 0 0 1-.146.318.683.683 0 0 1-.25.234c-.082.065-.207.085-.332.085a.688.688 0 0 1-.354-.085.601.601 0 0 1-.229-.234c-.061-.104-.125-.191-.146-.318-.042-.107-.042-.234-.042-.339 0-.127 0-.233.042-.338a.748.748 0 0 1 .146-.319c.063-.106.125-.191.23-.233a.689.689 0 0 1 .353-.107c.125 0 .25.042.333.107a.52.52 0 0 1 .249.233c.063.085.105.192.146.319.02.107.042.212.042.338Zm-.77-1.249c-.187 0-.332.042-.478.107-.125.064-.25.17-.333.276a1.412 1.412 0 0 0-.187.403 1.138 1.138 0 0 0-.084.465c0 .148.022.319.084.446.041.149.105.296.188.403a.849.849 0 0 0 .332.276c.146.085.29.107.478.107.167 0 .333-.02.457-.107a.876.876 0 0 0 .354-.276c.084-.107.147-.254.188-.403a1.53 1.53 0 0 0 .062-.446c0-.169-.02-.318-.062-.465a1.41 1.41 0 0 0-.188-.403c-.104-.105-.207-.212-.354-.276a1.027 1.027 0 0 0-.457-.107Zm3.225 1.187c0 .127-.022.234-.042.36a3.968 3.968 0 0 1-.125.297c-.063.107-.146.17-.229.234a.85.85 0 0 1-.332.062.715.715 0 0 1-.313-.062c-.105-.065-.166-.15-.23-.234-.063-.085-.104-.192-.146-.296-.02-.127-.041-.234-.041-.339 0-.105.02-.234.041-.338a3.97 3.97 0 0 1 .125-.297c.063-.107.146-.169.23-.233.104-.043.207-.085.312-.085.125 0 .23.042.332.085.083.064.166.126.228.211.063.085.105.192.146.296.024.127.044.232.044.339Zm0-.764-.022.022a.894.894 0 0 0-.313-.318.76.76 0 0 0-.437-.127.943.943 0 0 0-.437.107.794.794 0 0 0-.312.276.79.79 0 0 0-.167.38c-.041.15-.063.297-.063.466 0 .17.022.319.063.466a2 2 0 0 0 .167.36.97.97 0 0 0 .75.359.887.887 0 0 0 .458-.127.836.836 0 0 0 .29-.318h.023v.445a.644.644 0 0 1-.208.466.833.833 0 0 1-.498.169.94.94 0 0 1-.438-.085.35.35 0 0 1-.207-.276h-.291c0 .105.02.212.083.296.041.065.125.127.208.192.083.042.188.085.29.107.105.022.208.022.333.022.103 0 .188 0 .27-.022.064 0 .147-.043.25-.085a.56.56 0 0 0 .25-.191.745.745 0 0 0 .165-.276c.02-.085.042-.192.042-.319.02-.105.02-.234.02-.403v-1.42c0-.085 0-.234.021-.424v-.084h-.29v.342Zm1.06 1.336a.46.46 0 0 1 .083-.296.702.702 0 0 1 .25-.15.844.844 0 0 1 .332-.064c.102 0 .229 0 .373-.022h.147v.065c.02.042.02.064.02.084 0 .107-.02.212-.042.319a.97.97 0 0 1-.105.276.515.515 0 0 1-.23.191.72.72 0 0 1-.332.065.58.58 0 0 1-.354-.107c-.1-.087-.142-.214-.142-.36Zm1.187-.784h-.271c-.166 0-.313.022-.437.022-.105.023-.23.043-.333.085a.849.849 0 0 0-.332.276.662.662 0 0 0-.125.403.66.66 0 0 0 .23.53.772.772 0 0 0 .54.192c.146 0 .29-.02.437-.107.125-.085.23-.17.29-.276v-.02h.02v.338h.291c0-.042-.021-.084-.021-.084V75.48c0-.276-.084-.466-.23-.594-.125-.127-.332-.192-.603-.192-.23 0-.416.065-.582.17-.146.106-.23.275-.27.507h.29c.02-.17.083-.254.188-.318a.65.65 0 0 1 .374-.107c.166 0 .312.042.395.127.083.064.147.191.147.38v.216h.002Zm1.27.085c0-.212.063-.403.166-.572a.625.625 0 0 1 .498-.234c.188 0 .333.064.438.17a.72.72 0 0 1 .166.487v1.505h.27v-1.463c0-.084 0-.191-.021-.296a2.35 2.35 0 0 0-.103-.296.723.723 0 0 0-.25-.254.97.97 0 0 0-.436-.107.916.916 0 0 0-.416.107.838.838 0 0 0-.29.318h-.022l-.022-.338h-.271v.084c.02.192.02.339.02.424v1.821h.27v-1.356h.003Zm4.929-.36v.275h.833v1.103c-.147.042-.271.062-.396.084-.105.043-.23.043-.332.043-.208 0-.416-.043-.562-.107a.954.954 0 0 1-.396-.296 1.17 1.17 0 0 1-.207-.466 1.839 1.839 0 0 1-.083-.594c0-.192.021-.361.063-.55.041-.17.105-.319.188-.466a.98.98 0 0 1 .855-.466c.207 0 .395.065.541.17.166.106.25.254.271.445h.354a1.364 1.364 0 0 0-.124-.38 1.113 1.113 0 0 0-.271-.277.762.762 0 0 0-.374-.17 1.291 1.291 0 0 0-.396-.064c-.23 0-.437.043-.625.15a1.32 1.32 0 0 0-.437.403c-.125.149-.208.338-.27.55a2.243 2.243 0 0 0-.084.657c0 .254.02.487.083.699.063.211.166.403.29.552.106.17.272.276.438.36.188.085.374.128.603.128.208 0 .416 0 .604-.043.188-.042.373-.084.583-.169v-1.568h-1.15v-.004Zm3.6.55c0 .106-.022.233-.042.338a1.454 1.454 0 0 1-.146.318.683.683 0 0 1-.25.234c-.082.065-.207.085-.331.085a.639.639 0 0 1-.355-.085.601.601 0 0 1-.229-.234c-.063-.104-.125-.191-.146-.318-.042-.107-.042-.234-.042-.339 0-.127 0-.233.042-.338a.748.748 0 0 1 .146-.319c.063-.106.125-.191.23-.233a.626.626 0 0 1 .354-.107c.124 0 .249.042.332.107a.521.521 0 0 1 .25.233c.062.085.104.192.145.319.022.107.042.212.042.338Zm-.77-1.25c-.187 0-.332.042-.478.107-.125.064-.25.17-.332.276a1.41 1.41 0 0 0-.188.403 1.138 1.138 0 0 0-.084.465c0 .148.02.319.084.446.041.149.104.296.188.403a.848.848 0 0 0 .332.276c.146.085.29.107.479.107.166 0 .332-.02.457-.107a.876.876 0 0 0 .354-.276c.083-.107.146-.254.187-.403a1.53 1.53 0 0 0 .062-.446c0-.169-.02-.318-.062-.465a1.41 1.41 0 0 0-.188-.403c-.104-.105-.207-.212-.353-.276a1.028 1.028 0 0 0-.457-.107Zm3.579 1.314c0-.192-.022-.36-.061-.53a1.197 1.197 0 0 0-.188-.403.73.73 0 0 0-.333-.276 1.08 1.08 0 0 0-.478-.107.943.943 0 0 0-.438.107c-.124.064-.229.149-.332.276a1.195 1.195 0 0 0-.188.403 1.671 1.671 0 0 0-.063.465c0 .147.022.319.063.466.042.149.105.276.188.403.083.107.188.191.313.276a.94.94 0 0 0 .437.085c.561 0 .916-.276 1.04-.806h-.29a.677.677 0 0 1-.228.403.637.637 0 0 1-.417.149c-.271 0-.48-.085-.604-.254-.124-.17-.188-.381-.207-.657h1.786Zm-1.769-.254c.022-.234.084-.423.208-.572a.626.626 0 0 1 .5-.234c.23 0 .416.085.542.234.125.127.208.318.208.572H62.75Zm2.289-.403c0 .107.022.191.063.254.042.085.083.149.166.191.064.043.125.085.208.105.083.022.166.042.29.085.023 0 .043 0 .084.022.105.022.188.042.25.062.082.02.146.043.207.063a.876.876 0 0 1 .146.127c.02.062.042.127.042.191 0 .15-.063.276-.166.36a.943.943 0 0 1-.437.108c-.167 0-.313-.022-.438-.107-.124-.063-.188-.17-.188-.339h-.312c.022.127.041.234.083.319.063.084.125.17.208.233.083.043.166.085.27.107a.799.799 0 0 0 .313.043c.125 0 .25 0 .354-.043a.722.722 0 0 0 .313-.149.8.8 0 0 0 .23-.233.82.82 0 0 0 .06-.34.502.502 0 0 0-.102-.338.68.68 0 0 0-.271-.211c-.125-.042-.291-.085-.52-.147-.188-.043-.333-.085-.438-.15-.083-.042-.124-.126-.124-.233 0-.127.061-.212.166-.276a.631.631 0 0 1 .354-.107c.166 0 .29.042.396.107.105.064.166.149.188.296h.29c-.02-.234-.105-.403-.249-.508a1.19 1.19 0 0 0-.582-.149c-.124 0-.207.022-.312.042-.105.02-.188.063-.271.105a.608.608 0 0 0-.188.212.508.508 0 0 0-.083.298Zm4.035 1.76v-1.61h1.79v1.61h.291v-3.37h-.29v1.483h-1.79v-1.483h-.313v3.37h.312Zm4.848-1.103c0-.192-.02-.36-.06-.53a1.197 1.197 0 0 0-.189-.403c-.061-.127-.186-.212-.312-.276a1.24 1.24 0 0 0-.48-.107c-.165 0-.312.042-.458.107a.807.807 0 0 0-.313.276 1.771 1.771 0 0 0-.207.403 1.675 1.675 0 0 0-.064.465c0 .147.022.319.064.466.041.149.105.276.188.403.083.107.188.191.332.276a.94.94 0 0 0 .437.085c.54 0 .894-.276 1.04-.806h-.29a.824.824 0 0 1-.25.403.597.597 0 0 1-.415.149c-.27 0-.457-.085-.603-.254-.125-.17-.188-.381-.188-.657h1.768Zm-1.768-.254c.02-.234.105-.423.23-.572a.625.625 0 0 1 .498-.234c.23 0 .395.085.52.234.125.127.208.318.23.572h-1.478Zm2.643-.042c.021-.234.063-.423.188-.552a.562.562 0 0 1 .457-.212c.021 0 .041.022.104.022h.062v-.276h-.271a.42.42 0 0 0-.313.127.588.588 0 0 0-.208.296h-.021v-.338h-.291v.084c.02.17.02.319.02.423v1.822h.27v-1.396h.003Zm3.204.296c0-.192-.022-.36-.063-.53a1.195 1.195 0 0 0-.188-.403.73.73 0 0 0-.332-.276 1.08 1.08 0 0 0-.48-.107.943.943 0 0 0-.436.107.848.848 0 0 0-.333.276 1.199 1.199 0 0 0-.188.403 1.794 1.794 0 0 0 0 .931c.042.149.105.276.188.403.083.107.188.191.313.276a.94.94 0 0 0 .437.085c.562 0 .916-.276 1.04-.806h-.29a.651.651 0 0 1-.667.552c-.249 0-.457-.085-.583-.254a1.071 1.071 0 0 1-.208-.657H78Zm-1.768-.254c.02-.234.083-.423.207-.572a.625.625 0 0 1 .499-.234c.23 0 .415.085.54.234.125.127.188.318.208.572h-1.454ZM46.978 31.646h11.443c.54 0 1.185-.361 1.707-.89.499-.53.875-1.168.875-1.74v-7.903c0-.573-.354-1.23-.875-1.76-.52-.507-1.165-.89-1.707-.89h-10.36v2.65c0 3.157-1.686 6.464-4.14 8.965-2.455 2.5-5.701 4.218-8.8 4.218h-2.602V44.85c0 .552.374 1.209.874 1.739.52.53 1.165.89 1.727.89h7.76c.498 0 1.102-.422 1.602-.995.582-.635.977-1.42.977-2.035V32.962a1.32 1.32 0 0 1 1.312-1.336c.063 0 .146 0 .207.02Zm11.443 2.65h-10.36v10.152c0 1.294-.667 2.734-1.644 3.837-.958 1.06-2.247 1.844-3.537 1.844h-7.76c-1.29 0-2.601-.68-3.556-1.675-.978-.975-1.644-2.31-1.644-3.603V34.296H19.58c-1.247 0-2.517-.637-3.475-1.59l-.083-.065c-.957-.995-1.622-2.331-1.622-3.625v-7.903c0-1.314.667-2.65 1.622-3.626.977-.995 2.289-1.674 3.559-1.674H29.92V5.278c0-1.294.666-2.628 1.644-3.626C32.54.677 33.83 0 35.12 0h7.76c1.226 0 2.496.637 3.475 1.59l.062.064c.979.996 1.643 2.332 1.643 3.626v10.535h10.361c1.27 0 2.58.677 3.537 1.674.977.996 1.644 2.31 1.644 3.626v7.905c0 1.294-.667 2.628-1.644 3.625v-.02c-.977.994-2.267 1.67-3.537 1.67ZM45.46 18.463H32.52v13.183h2.601c2.372 0 4.953-1.42 6.949-3.456 1.998-2.036 3.39-4.663 3.39-7.08v-2.647Zm-15.541 0h-10.34c-.561 0-1.186.38-1.704.91-.52.508-.875 1.167-.875 1.74v7.905c0 .572.354 1.21.875 1.74l.041.062c.52.487 1.124.826 1.664.826h10.339V18.463Zm2.601-2.65h12.94V5.278c0-.573-.354-1.21-.874-1.74l-.061-.064c-.5-.488-1.104-.826-1.644-.826h-7.76c-.562 0-1.206.36-1.727.89-.498.53-.874 1.167-.874 1.74v10.535Z"/></svg>