<svg xmlns="http://www.w3.org/2000/svg" width="80" height="78" fill="none"><path fill="#000D44" d="M6.297 58.81v4.285H3.095v-4.286H0v11.783h3.095v-4.897h3.202v4.897h3.095V58.809H6.297Zm10.99 12.02c3.416 0 5.892-2.776 5.892-6.143 0-3.388-2.476-6.121-5.891-6.121-3.436 0-5.914 2.733-5.914 6.121.002 3.37 2.478 6.144 5.914 6.144Zm0-2.905c-1.174 0-2.39-.7-2.39-3.236 0-2.558 1.216-3.213 2.39-3.213 1.131 0 2.371.657 2.371 3.213 0 2.536-1.238 3.236-2.37 3.236Zm14.259-5.946.383-2.733c-.746-.306-2.05-.678-3.35-.678-1.75 0-4.097.678-4.097 3.475 0 2.143 1.388 2.908 3.927 4.022.789.328 1.388.59 1.388 1.203 0 .568-.577.722-1.196.722-.832 0-1.984-.262-3.65-.896l-.492 2.841c1.857.831 3.33.896 4.012.896 3.01 0 4.46-1.312 4.46-3.606 0-2.077-1.194-3.062-3.65-4.001-1.13-.437-1.942-.655-1.942-1.18 0-.504.704-.766 1.473-.766.942 0 1.944.372 2.734.7Zm7.301-3.17h-4.332v11.783h3.117v-3.63c3.415 0 5.956-.677 5.956-4.35-.002-2.712-1.626-3.803-4.74-3.803Zm-1.217 5.705V61.06h.982c.726 0 1.922 0 1.922 1.684 0 1.77-.706 1.77-2.904 1.77Zm11.057-5.705h-3.116v11.783h3.117V58.809Zm10.543 0h-9.2v2.602h3.053v9.183h3.095V61.41h3.052V58.81Zm7.963 11.783h3.756L67 58.809h-3.736l-3.799 11.783h3.756l.597-2.623h2.754l.62 2.623Zm-2.796-5.225.681-3.126h.17l.727 3.126h-1.578Zm10.927-6.558H72.23v11.783h7.768V67.99h-4.674v-9.18Z"/><path fill="#04CE78" d="M45.014 76.166a.768.768 0 0 0-.085-.393.677.677 0 0 0-.235-.261 1.338 1.338 0 0 0-.298-.175c-.106-.044-.236-.087-.406-.154a2.232 2.232 0 0 1-.364-.13 1.407 1.407 0 0 1-.255-.132.627.627 0 0 1-.193-.218c-.065-.067-.085-.175-.085-.285 0-.108.02-.197.085-.262a.507.507 0 0 1 .17-.197c.086-.044.17-.087.256-.11.108-.021.193-.044.278-.044.108 0 .193.023.278.044.085 0 .17.043.236.087a.379.379 0 0 1 .17.154.479.479 0 0 1 .065.262h.32a1.012 1.012 0 0 0-.127-.393 1.01 1.01 0 0 0-.599-.393c-.128-.02-.256-.044-.383-.044a1.29 1.29 0 0 0-.724.239 1.12 1.12 0 0 0-.257.306.76.76 0 0 0-.085.395c0 .152.043.305.108.416a.7.7 0 0 0 .278.284c.107.088.235.154.34.198.128.043.279.11.47.154a.49.49 0 0 0 .192.066c.15.067.278.131.384.218.085.11.15.242.15.393 0 .108-.02.198-.085.285a.61.61 0 0 1-.193.218.737.737 0 0 1-.256.11c-.107.044-.193.044-.298.044-.108 0-.213 0-.32-.023-.108-.023-.194-.066-.279-.108-.063-.067-.128-.13-.17-.218a.748.748 0 0 1-.065-.329h-.341c0 .131.042.262.085.395.065.108.128.219.213.306.108.087.213.154.341.197a.698.698 0 0 0 .363.088c.193 0 .364-.021.512-.065.15-.023.298-.087.426-.154.108-.087.213-.174.278-.305.063-.137.105-.291.105-.466Zm.94-2.558h-.278v3.454h.278v-3.454Zm2.476 2.253c0 .13-.023.24-.043.349-.042.13-.085.241-.15.328a.555.555 0 0 1-.256.241.574.574 0 0 1-.34.11.704.704 0 0 1-.364-.11c-.107-.043-.17-.13-.235-.24a.798.798 0 0 1-.15-.33c-.043-.107-.043-.217-.043-.348 0-.108 0-.241.043-.35a.772.772 0 0 1 .15-.328.647.647 0 0 1 .235-.241.679.679 0 0 1 .363-.087c.128 0 .256.023.341.087a.673.673 0 0 1 .256.241c.065.087.108.198.15.328.023.109.043.24.043.35Zm-.79-1.268c-.192 0-.34.02-.49.087-.128.087-.256.175-.342.306a1.12 1.12 0 0 0-.192.392 1.259 1.259 0 0 0-.086.48c0 .175.02.329.086.48.042.155.107.286.192.416.086.108.214.219.341.285.15.065.299.108.491.108.17 0 .341-.043.47-.108.15-.066.255-.174.362-.285.086-.13.15-.261.193-.415.043-.154.065-.306.065-.48 0-.154-.022-.329-.065-.48a1.102 1.102 0 0 0-.556-.699c-.128-.066-.298-.087-.469-.087Zm3.308 1.224c0 .11-.02.241-.042.35l-.128.328c-.065.087-.15.153-.236.218a.625.625 0 0 1-.34.087.698.698 0 0 1-.321-.087c-.106-.067-.193-.131-.236-.241-.065-.087-.107-.198-.15-.306a2.086 2.086 0 0 1-.042-.349c0-.108.022-.218.042-.35.043-.11.086-.217.128-.305a.737.737 0 0 1 .236-.218.539.539 0 0 1 .32-.087c.128 0 .235.023.341.066.085.067.17.131.235.241a.752.752 0 0 1 .128.306.866.866 0 0 1 .065.347Zm0-.81-.02.02a.92.92 0 0 0-.32-.328c-.128-.087-.279-.108-.45-.108a.96.96 0 0 0-.448.087 1.018 1.018 0 0 0-.32.285.817.817 0 0 0-.17.393 1.746 1.746 0 0 0-.064.48c0 .174.02.328.063.48.043.154.085.285.17.395a.951.951 0 0 0 .321.262c.128.043.278.087.449.087.17 0 .32-.044.469-.131a.634.634 0 0 0 .298-.328h.02v.459c0 .197-.085.35-.213.48a.738.738 0 0 1-.513.175.986.986 0 0 1-.449-.088c-.128-.043-.193-.153-.213-.284h-.298c0 .11.022.218.085.305a.472.472 0 0 0 .213.198c.085.043.193.087.298.11.108.02.213.043.321.043.128 0 .213-.022.298-.022.065-.021.15-.044.256-.088a.847.847 0 0 0 .256-.218.565.565 0 0 0 .15-.262.902.902 0 0 0 .065-.328c.02-.131.02-.262.02-.437v-1.442c0-.11 0-.262.023-.46v-.087h-.3v.352h.003Zm1.09 1.4c0-.13.02-.24.085-.305a.553.553 0 0 1 .256-.175c.108-.02.213-.043.34-.066h.534v.066c.02.021.02.044.02.067 0 .11-.02.24-.042.328a.898.898 0 0 1-.107.285.529.529 0 0 1-.236.197.716.716 0 0 1-.34.088.498.498 0 0 1-.364-.131.433.433 0 0 1-.146-.354Zm1.216-.81H52.527a1.644 1.644 0 0 0-.34.087.871.871 0 0 0-.342.285.732.732 0 0 0-.128.416c0 .24.086.415.236.546.15.154.32.218.554.218.15 0 .298-.043.448-.13a.669.669 0 0 0 .278-.263l.02-.043h.02v.35h.3c0-.045-.021-.067-.021-.088V75.379c0-.262-.085-.48-.236-.59-.127-.132-.34-.198-.619-.198-.235 0-.426.043-.598.154-.15.11-.235.284-.278.523h.298c.023-.153.085-.261.193-.328.085-.066.233-.087.384-.087.17 0 .32.043.405.11.086.087.15.218.15.393v.24h.003Zm1.302.09c0-.242.065-.437.17-.591.129-.175.3-.241.514-.241.193 0 .341.043.449.174.107.11.17.285.17.48v1.553h.278v-1.509c0-.087 0-.197-.02-.285-.022-.11-.065-.218-.108-.328a.762.762 0 0 0-.255-.262.96.96 0 0 0-.449-.087c-.15 0-.298.02-.426.108a.634.634 0 0 0-.298.328l-.023-.02-.02-.35h-.278v.088c.022.197.022.349.022.459v1.858h.278v-1.376h-.004Zm5.06-.396v.306h.854v1.116c-.15.044-.278.087-.406.108-.106.023-.236.023-.341.023-.213 0-.426-.023-.576-.11a.98.98 0 0 1-.406-.306 1.09 1.09 0 0 1-.213-.48 1.867 1.867 0 0 1-.085-.611c0-.195.022-.372.065-.547.042-.197.107-.349.192-.503.108-.13.213-.262.363-.349a.999.999 0 0 1 .512-.13c.213 0 .406.066.554.174.17.11.256.262.278.48h.34a.766.766 0 0 0-.107-.395 1.25 1.25 0 0 0-.278-.305 1.541 1.541 0 0 0-.383-.175 1.312 1.312 0 0 0-.406-.065c-.236 0-.449.065-.641.154-.17.11-.321.241-.449.416a2.038 2.038 0 0 0-.278.567c-.065.219-.085.46-.085.678 0 .262.02.503.085.721.065.241.17.416.298.59.108.154.256.285.449.373.193.087.385.13.619.13.213 0 .426-.02.619-.064.193-.023.383-.087.598-.154v-1.64h-1.172v-.002Zm3.69.57c0 .13-.02.24-.042.349-.042.13-.085.241-.15.328a.554.554 0 0 1-.256.241.573.573 0 0 1-.34.11.645.645 0 0 1-.364-.11c-.107-.043-.17-.13-.256-.24a.754.754 0 0 1-.127-.33c-.043-.107-.043-.217-.043-.348 0-.108 0-.241.043-.35a.73.73 0 0 1 .127-.328.94.94 0 0 1 .256-.241.636.636 0 0 1 .363-.087c.128 0 .256.023.341.087a.672.672 0 0 1 .256.241c.063.087.108.198.15.328.022.109.043.24.043.35Zm-.789-1.268c-.192 0-.34.02-.49.087-.129.087-.256.175-.342.306-.085.108-.15.24-.213.392a1.87 1.87 0 0 0 0 .96c.065.155.128.286.213.416.086.108.213.219.341.285.148.065.299.108.491.108.17 0 .341-.043.471-.108a.887.887 0 0 0 .341-.285c.108-.13.17-.261.213-.415.043-.154.065-.306.065-.48 0-.154-.02-.329-.065-.48a.858.858 0 0 0-.213-.393.95.95 0 0 0-.34-.306c-.129-.066-.301-.087-.472-.087Zm3.672 1.332c0-.197-.02-.372-.063-.524a1.35 1.35 0 0 0-.193-.436.903.903 0 0 0-.341-.285c-.128-.066-.299-.087-.491-.087-.17 0-.32.02-.449.087a1.384 1.384 0 0 0-.34.285c-.086.13-.15.262-.194.416a1.873 1.873 0 0 0-.064.48c0 .174.022.328.064.48.043.154.108.285.193.416.086.108.193.218.321.284a.989.989 0 0 0 .448.108c.577 0 .94-.284 1.068-.852h-.298a.64.64 0 0 1-.236.416.677.677 0 0 1-.428.175c-.278 0-.491-.088-.619-.285-.128-.175-.193-.393-.213-.678h1.835Zm-1.815-.262c.023-.218.086-.415.213-.59.128-.154.299-.218.512-.218.235 0 .426.066.556.218.128.154.213.35.213.59h-1.494Zm2.348-.415c0 .11.02.197.065.284.043.065.085.131.17.175.066.044.128.087.214.108.085.044.17.064.298.087.022 0 .043.021.085.021.106.02.193.044.256.067.085.022.15.043.213.087a.304.304 0 0 1 .15.13c.022.044.043.111.043.198a.39.39 0 0 1-.193.35.667.667 0 0 1-.426.13.964.964 0 0 1-.449-.11.41.41 0 0 1-.192-.372h-.321c.022.131.042.241.085.329a.79.79 0 0 0 .213.24c.085.067.17.11.278.132.108.022.213.043.32.043.129 0 .257-.02.364-.064a.74.74 0 0 0 .32-.131.97.97 0 0 0 .236-.262.747.747 0 0 0 .065-.328c0-.131-.022-.262-.108-.35a.544.544 0 0 0-.278-.218c-.127-.043-.298-.11-.533-.154-.213-.066-.363-.11-.449-.153-.085-.065-.127-.131-.127-.241a.35.35 0 0 1 .17-.306.632.632 0 0 1 .363-.087c.17 0 .299.023.406.087.108.067.17.175.193.306h.298c-.02-.242-.107-.393-.256-.503-.15-.11-.363-.154-.598-.154-.128 0-.236 0-.32.02a.676.676 0 0 0-.279.131.428.428 0 0 0-.193.198.555.555 0 0 0-.083.31Zm4.12 1.814v-1.66h1.856v1.66h.299v-3.454h-.299v1.509h-1.856v-1.51h-.299v3.455h.299Zm4.996-1.137c0-.197-.02-.372-.065-.524a1.352 1.352 0 0 0-.193-.436 1.017 1.017 0 0 0-.32-.285 1.212 1.212 0 0 0-.492-.087c-.17 0-.32.02-.468.087a1.016 1.016 0 0 0-.321.285c-.085.13-.15.262-.213.416a1.869 1.869 0 0 0-.065.48c0 .174.02.328.065.48.043.154.105.285.193.416a.923.923 0 0 0 .34.284.989.989 0 0 0 .45.108c.553 0 .916-.284 1.067-.852h-.299a.767.767 0 0 1-.255.416.63.63 0 0 1-.427.175c-.278 0-.468-.088-.618-.285-.128-.175-.193-.393-.193-.678h1.814Zm-1.816-.262a1.18 1.18 0 0 1 .235-.59c.128-.154.298-.218.511-.218.236 0 .406.066.534.218.128.154.213.35.235.59h-1.515Zm2.71-.043c.023-.242.066-.437.194-.568.105-.13.255-.197.468-.197h.106c.022 0 .043.023.065.023v-.285h-.278a.524.524 0 0 0-.32.108.72.72 0 0 0-.214.306h-.022v-.35h-.298v.088c.02.197.02.328.02.459v1.858h.278V75.62h.002Zm3.268.305c0-.197 0-.372-.043-.524a1.347 1.347 0 0 0-.192-.436.903.903 0 0 0-.341-.285c-.128-.066-.299-.087-.491-.087-.17 0-.321.02-.449.087a1.092 1.092 0 0 0-.34.285c-.086.13-.151.262-.194.416a1.87 1.87 0 0 0 0 .96c.043.154.108.285.193.416.085.108.193.218.32.284a.99.99 0 0 0 .45.108c.576 0 .939-.284 1.067-.852h-.299a.628.628 0 0 1-.233.416.687.687 0 0 1-.448.175c-.256 0-.471-.088-.6-.285a1.11 1.11 0 0 1-.212-.678H80Zm-1.794-.262c.02-.218.085-.415.213-.59.128-.154.299-.218.512-.218.235 0 .426.066.556.218.128.154.192.35.213.59h-1.494ZM53.276 5.728c3.523 0 6.382 2.928 6.382 6.536 0 3.609-2.86 6.537-6.382 6.537-3.544 0-6.403-2.928-6.403-6.537-.002-3.606 2.86-6.536 6.403-6.536Zm7.555 14.276a2.549 2.549 0 0 1 3.65 0c1.003 1.05 1.003 2.734 0 3.76a16.128 16.128 0 0 1-5.144 3.498 15.201 15.201 0 0 1-6.061 1.247c-4.376 0-8.345-1.814-11.227-4.743a16.479 16.479 0 0 1-4.633-11.5c0-2.143.406-4.24 1.196-6.208.811-1.966 1.964-3.76 3.435-5.269 1.025-1.05 2.669-1.05 3.671 0a2.658 2.658 0 0 1 0 3.74c-1.002 1.049-1.794 2.25-2.305 3.541a11.119 11.119 0 0 0-.812 4.196c0 3.018 1.196 5.75 3.117 7.74 1.942 1.967 4.611 3.193 7.556 3.193 1.43 0 2.816-.285 4.076-.831a10.453 10.453 0 0 0 3.48-2.364ZM26.744 32.903c3.523 0 6.383 2.929 6.383 6.537 0 3.629-2.86 6.558-6.383 6.558-3.543 0-6.404-2.929-6.404-6.558 0-3.608 2.861-6.537 6.404-6.537ZM19.187 31.7a2.553 2.553 0 0 1-3.67 0 2.679 2.679 0 0 1 .022-3.74 15.42 15.42 0 0 1 5.144-3.518c1.9-.809 3.97-1.247 6.061-1.247 4.376 0 8.347 1.814 11.206 4.766a16.412 16.412 0 0 1 4.654 11.477c0 2.143-.427 4.263-1.218 6.208a16.266 16.266 0 0 1-3.436 5.29c-1.002 1.027-2.646 1.027-3.67 0-1.003-1.05-1.003-2.733 0-3.76a10.723 10.723 0 0 0 2.327-3.542c.534-1.311.81-2.733.81-4.196 0-3.016-1.196-5.75-3.138-7.717-1.922-1.99-4.588-3.214-7.535-3.214-1.43 0-2.816.285-4.097.832a10.676 10.676 0 0 0-3.46 2.36Z"/><path fill="#1F5FFF" d="M53.276 32.903c3.523 0 6.382 2.929 6.382 6.537 0 3.629-2.86 6.558-6.382 6.558-3.543 0-6.403-2.929-6.403-6.558-.002-3.608 2.86-6.537 6.403-6.537Zm11.206-4.942c1.002 1.027 1.002 2.71 0 3.739-1.003 1.027-2.646 1.05-3.651 0a10.75 10.75 0 0 0-3.478-2.361 10.236 10.236 0 0 0-4.077-.832c-2.947 0-5.613 1.225-7.555 3.214a11.023 11.023 0 0 0-3.117 7.717c0 1.465.278 2.885.811 4.196a10.64 10.64 0 0 0 2.306 3.542c1.025 1.027 1.025 2.71 0 3.76-1.003 1.027-2.647 1.027-3.671 0-1.474-1.51-2.626-3.324-3.436-5.29a16.551 16.551 0 0 1-1.195-6.208c0-4.481 1.771-8.549 4.633-11.477 2.881-2.952 6.85-4.766 11.226-4.766 2.092 0 4.142.436 6.062 1.247a15.874 15.874 0 0 1 5.142 3.519ZM15.539 23.765c-1.025-1.027-1.025-2.71-.023-3.76 1.003-1.027 2.646-1.027 3.671 0a10.353 10.353 0 0 0 3.458 2.36c1.28.547 2.669.832 4.097.832 2.947 0 5.613-1.224 7.535-3.192a11.04 11.04 0 0 0 3.138-7.74c0-1.466-.278-2.885-.81-4.197a11.13 11.13 0 0 0-2.328-3.542c-1.002-1.026-1.002-2.71 0-3.739 1.025-1.05 2.669-1.05 3.671 0a16.164 16.164 0 0 1 3.436 5.27 16.667 16.667 0 0 1 1.218 6.207c0 4.482-1.772 8.55-4.654 11.5-2.859 2.929-6.83 4.744-11.206 4.744-2.092 0-4.162-.416-6.061-1.248a15.648 15.648 0 0 1-5.143-3.495ZM26.744 5.728c3.523 0 6.383 2.928 6.383 6.536 0 3.609-2.86 6.537-6.383 6.537-3.543 0-6.404-2.928-6.404-6.537 0-3.606 2.861-6.536 6.404-6.536Z"/></svg>